<svg width="135" height="71" viewBox="0 0 135 71" fill="none" xmlns="http://www.w3.org/2000/svg">
<rect x="0.5" y="0.236816" width="134" height="69.9492" fill="#E3F6D4"/>
<rect x="15.2797" y="52.9146" width="17.8662" height="6.90141" fill="#A6F2B3"/>
<rect x="0.552307" y="0.236816" width="8.99907" height="70" fill="#A6F2B3"/>
<path d="M0.5 21.7043L9.74723 16.6447M9.74723 22.5831L0.5 27.6427M0.5 33.5811L9.74723 28.5215M9.74723 34.4599L0.5 39.5195M9.74723 40.3983L0.5 45.458M9.74723 46.3368L0.5 51.3964" stroke="#58A42F"/>
<path fill-rule="evenodd" clip-rule="evenodd" d="M54.5258 70.186C46.9992 60.3263 42.5392 48.0707 42.5392 34.79C42.5392 21.8852 46.7504 9.94817 53.8942 0.236816H134.5V70.186H54.5258Z" fill="#A7F2B3"/>
<path d="M42.5392 34.79C42.5392 48.0707 46.9992 60.3263 54.5258 70.186H122.159C122.197 69.3271 122.215 68.4634 122.215 67.5953C122.215 35.1636 95.747 8.8725 63.0965 8.8725C57.7566 8.8725 52.5821 9.57573 47.6616 10.894C44.3687 18.1988 42.5392 26.2842 42.5392 34.79Z" fill="#9AE6A7"/>
<path d="M98.259 57.4881H106.949V17.7084H84.4814V22.2884" stroke="#69C287" stroke-width="2"/>
<path d="M99.574 36.9563H69.4988V34.0652H99.574V36.9563Z" stroke="#56956B" stroke-width="2"/>
<path d="M79.7228 28.155C79.9035 25.5387 82.0184 23.474 84.6007 23.474C87.1831 23.474 89.2979 25.5387 89.4787 28.155C92.001 26.5282 94.6822 27.3196 94.6822 30.9448C97.6763 27.6432 100.059 30.9448 99.5739 33.9117H69.4988C69.0137 30.7534 71.4868 27.6009 74.485 30.907C74.485 27.3196 77.122 26.4776 79.7228 28.155Z" stroke="#56956B" stroke-width="2" stroke-linejoin="bevel"/>
<path d="M71.4391 62.0116V36.9563H97.6336V62.0116H71.4391Z" stroke="#56956B" stroke-width="2"/>
<path d="M77.2601 62.0116V48.0872C77.2601 44.0686 80.5178 40.8109 84.5364 40.8109C88.555 40.8109 91.8126 44.0686 91.8126 48.0872V62.0116H77.2601Z" stroke="#56956B" stroke-width="2"/>
<path d="M81.1407 62.0116V49.0249C81.1407 47.1495 82.661 45.6293 84.5363 45.6293C86.4117 45.6293 87.9319 47.1495 87.9319 49.0249V62.0116H81.1407Z" stroke="#56956B" stroke-width="2"/>
<path d="M39.186 9.26105L35.2631 12.5911L32.9149 9.98035L39.2965 4.78539H43.1641V23.6471H39.186V9.26105Z" fill="black"/>
<path d="M45.1861 14.2162C45.1861 13.0973 45.2874 11.9606 45.49 10.8062C45.711 9.65178 46.0886 8.6039 46.6227 7.6626C47.1752 6.72129 47.9211 5.95758 48.8604 5.37149C49.7996 4.76763 50.9967 4.4657 52.4517 4.4657C53.9067 4.4657 55.1038 4.76763 56.043 5.37149C56.9823 5.95758 57.719 6.72129 58.2531 7.6626C58.8056 8.6039 59.1832 9.65178 59.3858 10.8062C59.6068 11.9606 59.7173 13.0973 59.7173 14.2162C59.7173 15.3352 59.6068 16.4718 59.3858 17.6263C59.1832 18.7807 58.8056 19.8286 58.2531 20.7699C57.719 21.7112 56.9823 22.4838 56.043 23.0876C55.1038 23.6737 53.9067 23.9668 52.4517 23.9668C50.9967 23.9668 49.7996 23.6737 48.8604 23.0876C47.9211 22.4838 47.1752 21.7112 46.6227 20.7699C46.0886 19.8286 45.711 18.7807 45.49 17.6263C45.2874 16.4718 45.1861 15.3352 45.1861 14.2162ZM49.33 14.2162C49.33 14.7135 49.3484 15.3085 49.3852 16.0012C49.4405 16.6938 49.5694 17.3599 49.772 17.9992C49.9746 18.6386 50.2785 19.1803 50.6836 19.6243C51.1072 20.0683 51.6966 20.2903 52.4517 20.2903C53.1884 20.2903 53.7685 20.0683 54.1921 19.6243C54.6157 19.1803 54.9288 18.6386 55.1314 17.9992C55.334 17.3599 55.4537 16.6938 55.4905 16.0012C55.5458 15.3085 55.5734 14.7135 55.5734 14.2162C55.5734 13.7189 55.5458 13.124 55.4905 12.4313C55.4537 11.7386 55.334 11.0726 55.1314 10.4332C54.9288 9.79386 54.6157 9.25217 54.1921 8.80815C53.7685 8.36414 53.1884 8.14213 52.4517 8.14213C51.6966 8.14213 51.1072 8.36414 50.6836 8.80815C50.2785 9.25217 49.9746 9.79386 49.772 10.4332C49.5694 11.0726 49.4405 11.7386 49.3852 12.4313C49.3484 13.124 49.33 13.7189 49.33 14.2162Z" fill="black"/>
<path d="M60.7369 14.2162C60.7369 13.0973 60.8382 11.9606 61.0408 10.8062C61.2618 9.65178 61.6394 8.6039 62.1735 7.6626C62.726 6.72129 63.4719 5.95758 64.4111 5.37149C65.3504 4.76763 66.5475 4.4657 68.0025 4.4657C69.4574 4.4657 70.6546 4.76763 71.5938 5.37149C72.5331 5.95758 73.2698 6.72129 73.8039 7.6626C74.3564 8.6039 74.734 9.65178 74.9365 10.8062C75.1576 11.9606 75.2681 13.0973 75.2681 14.2162C75.2681 15.3352 75.1576 16.4718 74.9365 17.6263C74.734 18.7807 74.3564 19.8286 73.8039 20.7699C73.2698 21.7112 72.5331 22.4838 71.5938 23.0876C70.6546 23.6737 69.4574 23.9668 68.0025 23.9668C66.5475 23.9668 65.3504 23.6737 64.4111 23.0876C63.4719 22.4838 62.726 21.7112 62.1735 20.7699C61.6394 19.8286 61.2618 18.7807 61.0408 17.6263C60.8382 16.4718 60.7369 15.3352 60.7369 14.2162ZM64.8808 14.2162C64.8808 14.7135 64.8992 15.3085 64.936 16.0012C64.9913 16.6938 65.1202 17.3599 65.3228 17.9992C65.5254 18.6386 65.8293 19.1803 66.2344 19.6243C66.658 20.0683 67.2474 20.2903 68.0025 20.2903C68.7392 20.2903 69.3193 20.0683 69.7429 19.6243C70.1665 19.1803 70.4796 18.6386 70.6822 17.9992C70.8848 17.3599 71.0045 16.6938 71.0413 16.0012C71.0966 15.3085 71.1242 14.7135 71.1242 14.2162C71.1242 13.7189 71.0966 13.124 71.0413 12.4313C71.0045 11.7386 70.8848 11.0726 70.6822 10.4332C70.4796 9.79386 70.1665 9.25217 69.7429 8.80815C69.3193 8.36414 68.7392 8.14213 68.0025 8.14213C67.2474 8.14213 66.658 8.36414 66.2344 8.80815C65.8293 9.25217 65.5254 9.79386 65.3228 10.4332C65.1202 11.0726 64.9913 11.7386 64.936 12.4313C64.8992 13.124 64.8808 13.7189 64.8808 14.2162Z" fill="black"/>
<rect x="14.9352" y="4.4657" width="12.5858" height="9.75054" fill="#006FFF"/>
<path d="M124.611 13.2268L134.5 7.12494M134.5 12.464L124.611 18.5658M124.611 23.9049L134.5 17.8031M134.5 23.1422L124.611 29.244M134.5 28.4813L124.611 34.5831M134.5 33.8204L124.611 39.9222" stroke="black"/>
<rect x="112.652" y="0.236816" width="12.1715" height="69.9492" fill="#6ABA78"/>
<rect x="112.652" y="0.236816" width="12.1715" height="9.49927" fill="#316139"/>
<rect x="112.652" y="27.8711" width="12.1715" height="17.2714" fill="#316139"/>
<path d="M52.2419 39.8674L53.579 43.9549H57.9058L54.4054 46.4811L55.7424 50.5686L52.2419 48.0424L48.7414 50.5686L50.0785 46.4811L46.578 43.9549H50.9049L52.2419 39.8674Z" fill="#FCF350"/>
<path d="M58.788 53.5242L60.1251 57.6117H64.4519L60.9514 60.1379L62.2885 64.2254L58.788 61.6992L55.2875 64.2254L56.6246 60.1379L53.1241 57.6117H57.4509L58.788 53.5242Z" fill="#FCF350"/>
<path d="M50.3598 27.8711L51.2512 30.5961H54.1357L51.8021 32.2802L52.6935 35.0052L50.3598 33.3211L48.0261 35.0052L48.9175 32.2802L46.5839 30.5961H49.4684L50.3598 27.8711Z" fill="#FCF350"/>
</svg>
