<svg width="135" height="72" viewBox="0 0 135 72" fill="none" xmlns="http://www.w3.org/2000/svg">
<rect x="0.5" y="0.236816" width="134" height="71" fill="#FFE7E2"/>
<rect x="0.5" y="0.236816" width="8.93333" height="71" fill="#F9C7BC"/>
<path d="M55.0332 71.2368C48.7914 61.3035 45.1667 49.4569 45.1667 36.7368C45.1667 23.1515 49.3012 10.5627 56.3428 0.236816L134.5 0.236816V71.2368L55.0332 71.2368Z" fill="#FAAF98"/>
<path d="M123.581 12.1205L134.5 5.23682M134.5 11.2601L123.581 18.1438M123.581 24.1671L134.5 17.2833M134.5 23.3066L123.581 30.1903M134.5 29.3298L123.581 36.2136M134.5 35.3531L123.581 42.2368" stroke="black"/>
<path d="M46.7205 10.1549L42.798 13.5702L40.45 10.8926L46.831 5.56469L50.6983 5.56469V24.9089H46.7205V10.1549Z" fill="black"/>
<path d="M52.7201 15.2368C52.7201 14.0893 52.8214 12.9235 53.024 11.7395C53.245 10.5556 53.6225 9.4809 54.1566 8.51551C54.709 7.55011 55.4549 6.76687 56.394 6.16578C57.3332 5.54647 58.5302 5.23682 59.9851 5.23682C61.4399 5.23682 62.6369 5.54647 63.5761 6.16578C64.5153 6.76687 65.2519 7.55011 65.786 8.51551C66.3384 9.4809 66.716 10.5556 66.9185 11.7395C67.1395 12.9235 67.25 14.0893 67.25 15.2368C67.25 16.3844 67.1395 17.5501 66.9185 18.7341C66.716 19.9181 66.3384 20.9927 65.786 21.9581C65.2519 22.9235 64.5153 23.7159 63.5761 24.3352C62.6369 24.9363 61.4399 25.2368 59.9851 25.2368C58.5302 25.2368 57.3332 24.9363 56.394 24.3352C55.4549 23.7159 54.709 22.9235 54.1566 21.9581C53.6225 20.9927 53.245 19.9181 53.024 18.7341C52.8214 17.5501 52.7201 16.3844 52.7201 15.2368ZM56.8636 15.2368C56.8636 15.7468 56.8821 16.357 56.9189 17.0674C56.9741 17.7778 57.103 18.4609 57.3056 19.1166C57.5082 19.7723 57.812 20.3279 58.2172 20.7833C58.6407 21.2386 59.23 21.4663 59.9851 21.4663C60.7217 21.4663 61.3018 21.2386 61.7253 20.7833C62.1489 20.3279 62.462 19.7723 62.6645 19.1166C62.8671 18.4609 62.9868 17.7778 63.0236 17.0674C63.0789 16.357 63.1065 15.7468 63.1065 15.2368C63.1065 14.7268 63.0789 14.1166 63.0236 13.4062C62.9868 12.6958 62.8671 12.0128 62.6645 11.357C62.462 10.7013 62.1489 10.1457 61.7253 9.69037C61.3018 9.235 60.7217 9.00731 59.9851 9.00731C59.23 9.00731 58.6407 9.235 58.2172 9.69037C57.812 10.1457 57.5082 10.7013 57.3056 11.357C57.103 12.0128 56.9741 12.6958 56.9189 13.4062C56.8821 14.1166 56.8636 14.7268 56.8636 15.2368Z" fill="black"/>
<rect x="14.3963" y="4.23682" width="14.8889" height="10" fill="#006FFF"/>
<rect x="112.86" y="0.236816" width="11.9673" height="71" fill="#A77676"/>
<rect x="112.86" y="10.284" width="11.9673" height="10.717" fill="#774F4F"/>
<rect x="112.86" y="32.3878" width="11.9673" height="17.4151" fill="#774F4F"/>
<path d="M71.7045 45.0164C71.7045 37.6458 77.6795 31.6707 85.0501 31.6707C92.4207 31.6707 98.3958 37.6458 98.3958 45.0164V63.5859L71.7045 63.5859V45.0164Z" stroke="#B56766" stroke-width="2"/>
<path d="M63.331 43.9383C63.331 31.8226 73.1527 22.001 85.2683 22.001C97.384 22.001 107.206 31.8226 107.206 43.9383V63.5414L63.331 63.5414L63.331 43.9383Z" stroke="#B56766" stroke-width="2"/>
<path d="M72.6617 9.86425C76.6295 8.17429 80.9639 7.24408 85.5039 7.24408C94.0539 7.24408 101.875 10.5433 107.89 16.0032" stroke="#B56766" stroke-width="2"/>
<path d="M72.6617 16.8715C76.4336 15.1815 80.5541 14.2513 84.87 14.2513C92.998 14.2513 100.433 17.5505 106.151 23.0104" stroke="#B56766" stroke-opacity="0.5" stroke-width="2"/>
<path d="M78.183 45.1323C78.183 41.3398 81.2575 38.2653 85.05 38.2653C88.8425 38.2653 91.917 41.3398 91.917 45.1323V63.5859H78.183V45.1323Z" stroke="#B56766" stroke-width="2"/>
<rect x="15.3889" y="54.2368" width="17.8667" height="7" fill="#FFCEBE"/>
<path d="M0.5 22.0109L9.67968 16.879M9.67968 22.9023L0.5 28.0342M0.5 34.0574L9.67968 28.9255M9.67968 34.9488L0.5 40.0807M9.67968 40.9721L0.5 46.104M9.67968 46.9953L0.5 52.1272" stroke="#D68870"/>
<path d="M55.6545 42.2368L56.9916 46.3827H61.3185L57.818 48.945L59.1551 53.0909L55.6545 50.5286L52.1539 53.0909L53.491 48.945L49.9904 46.3827H54.3174L55.6545 42.2368Z" fill="#FCF755"/>
<path d="M62.303 56.3029L63.6401 60.4488H67.967L64.4665 63.0111L65.8036 67.157L62.303 64.5947L58.8024 67.157L60.1395 63.0111L56.6389 60.4488H60.9659L62.303 56.3029Z" fill="#FCF755"/>
<path d="M53.7722 30.3784L54.6637 33.1423H57.5483L55.2146 34.8505L56.106 37.6144L53.7722 35.9062L51.4385 37.6144L52.3299 34.8505L49.9962 33.1423H52.8808L53.7722 30.3784Z" fill="#FCF755"/>
</svg>
