<svg width="135" height="72" viewBox="0 0 135 72" fill="none" xmlns="http://www.w3.org/2000/svg">
<rect x="0.551575" y="0.236816" width="133.949" height="71" fill="#FFEFEC"/>
<rect x="0.551575" y="0.236816" width="8.92992" height="71" fill="#FFCD9E"/>
<path d="M55.0635 71.2368C48.824 61.3035 45.2007 49.4569 45.2007 36.7368C45.2007 23.1515 49.3337 10.5627 56.3726 0.236816L134.5 0.236816V71.2368L55.0635 71.2368Z" fill="#FFC38B"/>
<path d="M45.2007 36.7368C45.2007 49.4569 48.824 61.3035 55.0635 71.2368H122.115C122.153 70.3485 122.172 69.4553 122.172 68.5576C122.172 34.6951 94.9349 7.24408 61.3361 7.24408C58.1104 7.24408 54.9434 7.49708 51.8535 7.9845C47.5991 16.6171 45.2007 26.3878 45.2007 36.7368Z" fill="#FFB58B"/>
<path d="M123.586 12.1205L134.5 5.23682M134.5 11.2601L123.586 18.1438M123.586 24.1671L134.5 17.2833M134.5 23.3066L123.586 30.1903M134.5 29.3298L123.586 36.2136M134.5 35.3531L123.586 42.2368" stroke="black"/>
<path d="M0.5 22.0109L9.67618 16.879M9.67618 22.9023L0.5 28.0342M0.5 34.0574L9.67618 28.9255M9.67618 34.9488L0.5 40.0807M9.67618 40.9721L0.5 46.104M9.67618 46.9953L0.5 52.1272" stroke="#E4704B"/>
<rect x="14.4421" y="4.23682" width="14.8832" height="10" fill="#006FFF"/>
<path d="M98.2722 57.6087H105.225V25.6381H109.57C104.79 14.2513 92.9046 11.6362 84.8014 17.1381" stroke="#F98C8B" stroke-width="2"/>
<path d="M70.1578 31.0177L97.7068 31.0177V63.1781L70.1578 63.1781V31.0177Z" stroke="#B56766" stroke-width="2"/>
<path d="M83.9324 16.453L100.38 30.7695H67.4844L83.9324 16.453Z" stroke="#B56766" stroke-width="2"/>
<path d="M83.9323 22.5919L88.2391 26.39H79.6255L83.9323 22.5919Z" stroke="#B56766" stroke-opacity="0.6" stroke-width="2"/>
<path d="M77.1105 43.9708C77.1105 40.2033 80.1647 37.149 83.9323 37.149C87.6999 37.149 90.7541 40.2033 90.7541 43.9708V63.1781H77.1105V43.9708Z" stroke="#B56766" stroke-width="2"/>
<path d="M83.9323 46.6599C83.9323 55.2584 83.9323 63.3021 83.9323 63.3021M76.9796 46.6599H90.885M90.885 53.7329H76.9796" stroke="#B56766" stroke-width="2"/>
<path d="M55.1221 41.3094L56.4587 45.4553H60.784L57.2848 48.0176L58.6214 52.1635L55.1221 49.6012L51.6229 52.1635L52.9595 48.0176L49.4602 45.4553H53.7855L55.1221 41.3094Z" fill="#FCF350"/>
<path d="M61.6658 55.1613L63.0024 59.3072H67.3278L63.8285 61.8695L65.1651 66.0154L61.6658 63.4531L58.1666 66.0154L59.5032 61.8695L56.0039 59.3072H60.3293L61.6658 55.1613Z" fill="#FCF350"/>
<path d="M53.2407 29.1417L54.1317 31.9057H57.0153L54.6824 33.6139L55.5735 36.3778L53.2407 34.6696L50.9078 36.3778L51.7989 33.6139L49.4661 31.9057H52.3496L53.2407 29.1417Z" fill="#FCF350"/>
<rect x="114.35" y="0.236816" width="10.429" height="70.9485" fill="#F3ECA8"/>
<rect x="114.35" y="38.7767" width="10.429" height="13.1386" fill="#F98C8B"/>
<rect x="114.35" y="3.74042" width="10.429" height="15.7663" fill="#E26D00"/>
<rect x="15.4344" y="54.5431" width="17.8598" height="7" fill="#FFCEBE"/>
<path d="M52.983 9.30887H44.0763L43.6549 15.2073H43.8796C44.0669 14.7625 44.273 14.3621 44.4978 14.0063C44.7413 13.6326 45.0222 13.3212 45.3407 13.0721C45.6591 12.8052 46.0431 12.6006 46.4926 12.4583C46.9422 12.3159 47.476 12.2447 48.0942 12.2447C48.9371 12.2447 49.7238 12.3782 50.4543 12.6451C51.1848 12.912 51.8217 13.3034 52.3649 13.8194C52.9081 14.3176 53.3389 14.9404 53.6574 15.6877C53.9758 16.4172 54.135 17.2446 54.135 18.1699C54.135 19.1129 53.9664 19.9936 53.6293 20.8121C53.3108 21.6128 52.8238 22.3068 52.1682 22.8939C51.5314 23.4811 50.7447 23.9437 49.8081 24.2818C48.8715 24.6021 47.8038 24.7622 46.605 24.7622C45.6497 24.7622 44.8068 24.6643 44.0763 24.4686C43.3458 24.2729 42.6996 24.0149 42.1376 23.6946C41.5757 23.3566 41.0887 22.974 40.6766 22.547C40.2645 22.1199 39.9086 21.6662 39.6089 21.1858L42.6715 18.8905C43.1023 19.62 43.6174 20.2428 44.2168 20.7588C44.8162 21.257 45.6216 21.5061 46.6331 21.5061C47.6446 21.5061 48.4032 21.2303 48.909 20.6787C49.4335 20.1271 49.6957 19.3976 49.6957 18.4901V18.2766C49.6957 17.4225 49.4335 16.7464 48.909 16.2482C48.3845 15.75 47.6634 15.5009 46.7455 15.5009C45.9775 15.5009 45.3407 15.6521 44.8349 15.9546C44.3479 16.2393 43.9733 16.524 43.711 16.8087L40.2551 16.355L40.9856 5.81253H52.983V9.30887Z" fill="black"/>
<path d="M62.4688 24.7622C59.9027 24.7622 58.0014 23.917 56.7652 22.2267C55.5289 20.5363 54.9108 18.1699 54.9108 15.1272C54.9108 12.0846 55.5289 9.71812 56.7652 8.02777C58.0014 6.33742 59.9027 5.49225 62.4688 5.49225C65.035 5.49225 66.9363 6.33742 68.1725 8.02777C69.4088 9.71812 70.0269 12.0846 70.0269 15.1272C70.0269 18.1699 69.4088 20.5363 68.1725 22.2267C66.9363 23.917 65.035 24.7622 62.4688 24.7622ZM62.4688 21.3726C63.5927 21.3726 64.3701 20.9812 64.8009 20.1983C65.2317 19.4154 65.4471 18.3122 65.4471 16.8887V13.3657C65.4471 11.9423 65.2317 10.8391 64.8009 10.0562C64.3701 9.27329 63.5927 8.88184 62.4688 8.88184C61.345 8.88184 60.5676 9.27329 60.1368 10.0562C59.706 10.8391 59.4906 11.9423 59.4906 13.3657V16.8887C59.4906 18.3122 59.706 19.4154 60.1368 20.1983C60.5676 20.9812 61.345 21.3726 62.4688 21.3726Z" fill="black"/>
</svg>
