<svg width="106" height="129" viewBox="0 0 106 129" fill="none" xmlns="http://www.w3.org/2000/svg">
<path d="M0.694107 108.838L0.944588 106.677C3.09671 101.229 24.4813 87.9372 51.2291 75.6581L51.3885 75.5906L51.3088 75.433L13.9143 0.880276L13.7662 0.947803C12.9236 1.33047 12.8553 1.52181 12.8553 1.62311L0.591599 106.699C0.420792 107.149 0.375259 107.543 0.466354 107.892L0.694107 108.838ZM50.933 75.433C25.0393 87.3294 4.75922 99.7999 1.0471 105.821L13.1969 1.66814C13.2538 1.61186 13.4474 1.48805 13.7662 1.33048L50.933 75.433Z" fill="black"/>
<path d="M6.99102 100.408L13.2994 1.51055L12.9691 1.48805L6.64943 100.385L6.99102 100.408Z" fill="black"/>
<path d="M25.119 88.7701L13.5841 1.29672L13.2538 1.34173L24.7773 88.8151L25.119 88.7701Z" fill="black"/>
<path d="M105.829 60.07L105.738 59.6648C105.624 59.2034 105.305 58.8432 104.793 58.5844C104.486 58.438 104.098 58.3255 103.654 58.2467L14.8708 0.733973V0.722707L14.7797 0.677694C14.643 0.610165 14.3014 0.711448 13.7776 0.947802L13.6182 1.01535L13.6979 1.17291L51.0925 75.7256L51.2405 75.6581C75.3465 64.5945 97.0044 57.5714 103.518 58.5731L105.829 60.07ZM104.588 58.877C104.599 58.8882 104.622 58.8882 104.634 58.8995C104.816 58.9895 104.964 59.0796 105.078 59.1921L104.588 58.877ZM14.6316 0.992831L102.903 58.1679C95.5696 57.6614 74.9138 64.4369 51.2405 75.2867L14.0737 1.18416C14.3584 1.06036 14.5519 1.00409 14.6316 0.992831Z" fill="black"/>
<path d="M14.3768 0.807315L78.0205 64.3754L77.7777 64.6128L14.134 1.04481L14.3768 0.807315Z" fill="black"/>
<path d="M14.6604 0.713552L97.5365 58.6586L97.3392 58.9342L14.4632 0.989196L14.6604 0.713552Z" fill="black"/>
<path d="M0.785225 107.341C1.37734 102.287 23.5362 88.3762 51.2405 75.6581C77.7036 63.514 100.739 56.3671 104.861 59.012L105.044 58.7307L14.7911 0.688948C14.7455 0.655183 14.5975 0.587645 13.7662 0.947803C12.8894 1.35298 12.8667 1.53307 12.8667 1.58935L0.454964 107.307L0.785225 107.341ZM55.8522 73.2158C54.2808 73.9136 52.698 74.6226 51.0925 75.3654C25.3809 87.1606 4.41759 100.059 0.944588 106.013L13.1969 1.67939C13.2652 1.62311 13.5043 1.45429 13.9143 1.27421C14.3128 1.10539 14.5633 1.02661 14.643 1.01535L103.723 58.303C97.6079 57.2563 78.3185 63.2552 55.8522 73.2158Z" fill="black"/>
<path d="M0.694107 108.838L0.944588 106.677C3.09671 101.229 24.4813 87.9372 51.2291 75.6581L51.3885 75.5906L51.3088 75.433L13.9143 0.880276L13.7662 0.947803C12.9236 1.33047 12.8553 1.52181 12.8553 1.62311L0.591599 106.699C0.420792 107.149 0.375259 107.543 0.466354 107.892L0.694107 108.838ZM50.933 75.433C25.0393 87.3294 4.75922 99.7999 1.0471 105.821L13.1969 1.66814C13.2538 1.61186 13.4474 1.48805 13.7662 1.33048L50.933 75.433Z" fill="black"/>
<path d="M0.694107 108.838L13.1969 1.58934L12.8667 1.58935L0.454964 107.307C0.43219 107.51 0.443588 107.712 0.477753 107.892L0.694107 108.838Z" fill="black"/>
<path d="M105.829 60.07L105.738 59.6648C105.624 59.2034 105.305 58.8432 104.793 58.5844C104.486 58.438 104.098 58.3255 103.654 58.2467L14.8708 0.733973V0.722707L14.7797 0.677694C14.643 0.610165 14.3014 0.711448 13.7776 0.947802L13.6182 1.01535L13.6979 1.17291L51.0925 75.7256L51.2405 75.6581C75.3465 64.5945 97.0044 57.5714 103.518 58.5731L105.829 60.07ZM104.588 58.877C104.599 58.8882 104.622 58.8882 104.634 58.8995C104.816 58.9895 104.964 59.0796 105.078 59.1921L104.588 58.877ZM14.6316 0.992831L102.903 58.1679C95.5696 57.6614 74.9138 64.4369 51.2405 75.2867L14.0737 1.18416C14.3584 1.06036 14.5519 1.00409 14.6316 0.992831Z" fill="black"/>
<path d="M54.9639 92.2704L55.1234 92.2029C84.6154 78.6744 106.843 64.3806 105.738 59.6648L105.727 59.5973L105.67 59.5635L14.4495 0.475098L14.5291 0.812749C14.4494 0.880279 14.2103 1.03785 13.8345 1.20668L13.6865 1.27421L54.9639 92.2704ZM105.419 59.8111C106.25 64.3581 83.7842 78.6744 55.1348 91.8314L14.1306 1.45429C14.4608 1.29672 14.643 1.17291 14.7569 1.08287L105.419 59.8111Z" fill="black"/>
<path d="M99.2818 67.2957L99.4981 67.0368L14.7114 0.835264L14.5064 1.10539L99.2818 67.2957Z" fill="black"/>
<path d="M14.4028 1.09203L81.3718 78.6877L81.1119 78.9069L14.1429 1.31115L14.4028 1.09203Z" fill="black"/>
<path d="M50.2157 94.4088C51.8326 93.6885 53.4609 92.9569 55.112 92.2029L55.26 92.1353L13.9712 1.1504L13.8118 1.21793C13.493 1.35299 13.2652 1.43177 13.1514 1.46554L12.9578 0.643932L0.454964 107.903C0.568832 108.365 0.887672 108.725 1.40009 108.984C5.96622 111.167 26.0869 105.101 50.2157 94.4088ZM54.8273 91.9665C29.1157 103.739 6.25093 110.92 1.57092 108.669C1.1496 108.466 0.899048 108.196 0.807953 107.847L13.1742 1.79192C13.3222 1.76941 13.5385 1.7019 13.8118 1.57809L54.8273 91.9665Z" fill="black"/>
<path d="M13.6216 1.56688L28.4534 103.099L28.1153 103.147L13.2835 1.61513L13.6216 1.56688Z" fill="black"/>
<path d="M12.9752 1.6107L13.3165 1.62434L8.93471 108.742L8.59338 108.728L12.9752 1.6107Z" fill="black"/>
<path d="M50.2157 94.4088C51.8326 93.6885 53.4609 92.9569 55.112 92.2029C84.604 78.6744 106.831 64.3806 105.727 59.6648C105.636 59.2822 105.408 58.967 105.032 58.7306L14.7797 0.688944L14.6885 0.824015L14.5405 0.880276C14.5291 0.824001 14.5405 0.778986 14.5519 0.778986C14.5177 0.824006 14.2672 1.00409 13.8231 1.20668C13.5043 1.34174 13.2766 1.42052 13.1627 1.45429L12.9691 0.632666L0.466354 107.892C0.580223 108.354 0.899055 108.714 1.41147 108.973C5.96622 111.167 26.0869 105.101 50.2157 94.4088ZM14.7569 1.07161L104.861 59.012C105.157 59.2034 105.34 59.451 105.408 59.7436C106.467 64.2343 83.8411 78.6519 54.9753 91.8989C29.2068 103.728 6.26232 110.931 1.57092 108.669C1.1496 108.466 0.899048 108.196 0.807953 107.847L13.1855 1.79192C13.3677 1.76941 13.6296 1.66812 13.9712 1.51055C14.4039 1.31922 14.6316 1.1729 14.7569 1.07161Z" fill="black"/>
<path d="M74.1623 128.466L74.3103 128.399C74.3445 128.376 74.447 128.342 74.4811 128.252L104.281 62.94C105.419 61.5894 105.932 60.4864 105.738 59.6648L105.624 59.1809L103.939 62.8837C98.4847 69.164 78.8765 80.9254 54.9868 91.8877L54.8273 91.9665L54.9071 92.1241L74.1623 128.466ZM103.529 63.7729L74.2534 127.926L55.2829 92.1353C78.5463 81.4431 97.2777 70.2895 103.529 63.7729ZM105.374 60.5314C105.294 60.8691 105.112 61.2405 104.861 61.6569L105.374 60.5314Z" fill="black"/>
<path d="M74.4583 128.275L99.5437 67.2281L99.2362 67.1043L74.1509 128.151L74.4583 128.275Z" fill="black"/>
<path d="M81.0781 78.7099L81.4164 78.7566L74.429 128.215L74.0906 128.169L81.0781 78.7099Z" fill="black"/>
<path d="M74.2876 128.41C74.2989 128.41 74.2989 128.399 74.3103 128.399L74.4697 128.32L74.39 128.162L55.1234 91.8202L54.9754 91.8877C33.6022 101.713 14.142 108.331 5.46521 109.018L0.409431 107.611L0.477753 107.881C0.591621 108.342 0.910477 108.703 1.42288 108.961C2.25413 109.367 3.62052 109.49 5.44243 109.355L74.094 128.421C74.1509 128.455 74.2078 128.444 74.2876 128.41ZM54.9754 92.2704L73.9346 128.039L6.37615 109.277C15.4743 108.275 34.0463 101.871 54.9754 92.2704ZM0.921867 108.106L4.42898 109.074C3.17642 109.097 2.21992 108.973 1.58225 108.669C1.26342 108.523 1.04712 108.331 0.921867 108.106Z" fill="black"/>
<path d="M74.1167 128.41L74.2762 128.117L28.387 102.929L28.2162 103.221L74.1167 128.41Z" fill="black"/>
<path d="M8.86079 108.642L74.2675 128.107L74.169 128.431L8.76231 108.965L8.86079 108.642Z" fill="black"/>
<path d="M74.2876 128.41C74.2989 128.41 74.3103 128.399 74.3103 128.399C74.4014 128.365 74.4469 128.32 74.4697 128.264L105.488 61.1617C105.488 61.1617 105.488 61.1617 105.488 61.1505L105.18 61.0154C102.561 66.6879 80.9716 79.9575 54.9753 91.8989C30.1633 103.289 7.94757 110.413 2.12888 108.871L2.03776 109.198H2.04916L74.1167 128.444C74.1509 128.444 74.1965 128.455 74.2876 128.41ZM74.185 128.095L74.1623 128.106L4.1443 109.412C12.1721 109.378 32.6229 102.546 55.1234 92.2029C78.8309 81.3193 98.8946 69.299 104.326 62.895L74.185 128.095Z" fill="black"/>
<path d="M74.39 128.511L74.3559 128.354L74.4242 128.32L74.39 128.151L51.2518 75.2754L51.0925 75.3429C21.6004 88.8826 -0.626778 103.165 0.477753 107.881L0.500549 107.982L0.591599 108.005L74.39 128.511ZM51.0811 75.7369L73.9801 128.05L0.796547 107.723C0.0677872 103.143 22.4886 88.8714 51.0811 75.7369Z" fill="black"/>
<path d="M74.1053 128.421L74.2306 128.106L6.88857 100.239L6.76334 100.554L74.1053 128.421Z" fill="black"/>
<path d="M74.094 128.376L74.299 128.117L25.0507 88.6688L24.8457 88.9277L74.094 128.376Z" fill="black"/>
<path d="M74.2648 128.725L74.4697 128.275L105.75 59.7211L105.738 59.6648C105.624 59.2034 105.305 58.8432 104.793 58.5844C99.9422 56.2433 77.3734 63.3002 51.1039 75.3542L50.9558 75.4217L51.0242 75.5681L74.1623 128.444L74.2078 128.421L74.2648 128.725ZM105.397 59.6873L74.2762 127.892L51.3885 75.5906C52.9258 74.8928 54.4516 74.195 55.966 73.5309C79.7646 62.985 100.25 56.7723 104.645 58.8882C105.043 59.0908 105.294 59.3497 105.397 59.6873Z" fill="black"/>
<path d="M74.4356 128.219L78.0794 64.5044L77.7377 64.4819L74.1053 128.207L74.4356 128.219Z" fill="black"/>
<path d="M74.4583 128.252L97.5851 58.877L97.2663 58.7644L74.1395 128.151L74.4583 128.252Z" fill="black"/>
<path d="M74.1623 128.466L74.3103 128.399C74.3445 128.376 74.447 128.342 74.4811 128.252L104.281 62.94C105.419 61.5894 105.932 60.4864 105.738 59.6648L105.624 59.1809L103.939 62.8837C98.4847 69.164 78.8765 80.9254 54.9868 91.8877L54.8273 91.9665L54.9071 92.1241L74.1623 128.466ZM103.529 63.7729L74.2534 127.926L55.2829 92.1353C78.5463 81.4431 97.2777 70.2895 103.529 63.7729ZM105.374 60.5314C105.294 60.8691 105.112 61.2405 104.861 61.6569L105.374 60.5314Z" fill="black"/>
<path d="M74.39 128.511L74.3559 128.365L74.4811 128.309V128.241L105.488 61.1617C105.749 60.599 105.829 60.0925 105.738 59.6648C105.624 59.2034 105.305 58.8432 104.793 58.5844C99.9422 56.2433 77.3734 63.3002 51.1039 75.3542C21.6118 88.8939 -0.615379 103.176 0.489143 107.892L0.511879 107.994L0.602989 108.016L74.037 128.41L73.9801 128.534L74.1736 128.444L74.39 128.511ZM74.1623 128.072C74.1509 128.072 74.1395 128.084 74.1281 128.095L0.78521 107.723C0.0678406 103.131 22.5683 88.8151 51.2291 75.6581C76.9862 63.8179 99.9422 56.626 104.634 58.8882C105.066 59.0908 105.317 59.3722 105.408 59.7323C105.488 60.0812 105.419 60.5089 105.18 61.0154L74.185 128.061C74.185 128.072 74.1737 128.072 74.1623 128.072Z" fill="black"/>
<path d="M74.2876 128.41C74.2989 128.41 74.2989 128.399 74.3103 128.399L74.4697 128.32L74.39 128.162L55.1234 91.8202L54.9754 91.8877C33.6022 101.713 14.142 108.331 5.46521 109.018L0.409431 107.611L0.477753 107.881C0.591621 108.342 0.910477 108.703 1.42288 108.961C2.25413 109.367 3.62052 109.49 5.44243 109.355L74.094 128.421C74.1509 128.455 74.2078 128.444 74.2876 128.41ZM54.9754 92.2704L73.9346 128.039L6.37615 109.277C15.4743 108.275 34.0463 101.871 54.9754 92.2704ZM0.921867 108.106L4.42898 109.074C3.17642 109.097 2.21992 108.973 1.58225 108.669C1.26342 108.523 1.04712 108.331 0.921867 108.106Z" fill="black"/>
<path d="M74.1167 128.444L74.1736 128.275L74.3103 128.207L74.2762 128.14L74.1964 128.117L0.398041 107.622L0.466354 107.892C0.614388 108.511 1.13818 108.95 2.02635 109.187L74.1167 128.444ZM0.921867 108.106L41.9488 119.496L2.12888 108.86C1.52537 108.714 1.11544 108.455 0.921867 108.106Z" fill="black"/>
<path d="M74.1623 128.466L74.3103 128.399C74.3445 128.376 74.447 128.342 74.4811 128.252L104.44 62.9063C105.59 61.5557 106.114 60.4301 105.92 59.6085L105.806 59.1246L104.098 62.85C98.6099 69.1527 78.9448 80.9479 55.0096 91.9327L54.8501 92.0115L54.9299 92.1691L74.1623 128.466ZM103.689 63.7391L74.2648 127.926L55.3056 92.1803C78.6146 81.4656 97.3916 70.2895 103.689 63.7391ZM105.556 60.4639C105.465 60.8128 105.294 61.2068 105.021 61.6344L105.556 60.4639Z" fill="black"/>
<path d="M74.4583 128.275L99.7031 67.2056L99.3842 67.0706L74.1509 128.151L74.4583 128.275Z" fill="black"/>
<path d="M74.447 128.252L81.5296 78.7982L81.1994 78.7532L74.1053 128.207L74.447 128.252Z" fill="black"/>
<path d="M74.2876 128.41C74.2989 128.41 74.2989 128.399 74.3103 128.399L74.4697 128.32L74.39 128.162L55.1462 91.8652L54.9982 91.9327C33.568 101.77 14.0737 108.421 5.3627 109.108L0.261406 107.701L0.329727 107.971C0.443596 108.432 0.762451 108.793 1.28625 109.051C2.12888 109.457 3.50669 109.58 5.33998 109.445L74.1053 128.41C74.1509 128.455 74.2078 128.444 74.2876 128.41ZM54.9868 92.3154L73.9346 128.039L6.26231 109.378C15.3946 108.365 34.0121 101.927 54.9868 92.3154ZM0.762421 108.207L4.30373 109.187C3.0284 109.22 2.06055 109.085 1.42288 108.781C1.11544 108.624 0.88768 108.432 0.762421 108.207Z" fill="black"/>
<path d="M28.2897 103.05L74.2467 128.173L74.0814 128.469L28.1243 103.346L28.2897 103.05Z" fill="black"/>
<path d="M74.1281 128.432L74.2192 128.117L8.69905 108.691L8.608 109.006L74.1281 128.432Z" fill="black"/>
<path d="M74.2876 128.41C74.2989 128.41 74.3103 128.399 74.3103 128.399C74.39 128.365 74.4469 128.32 74.4697 128.275L105.658 61.1167L105.351 60.9816C102.698 66.6766 81.0514 79.9912 54.9868 91.944C30.1292 103.356 7.82231 110.515 1.98083 108.973L1.88972 109.299L74.1053 128.444C74.1509 128.444 74.1965 128.455 74.2876 128.41ZM74.185 128.095L74.1623 128.106L4.00766 109.513C12.0696 109.468 32.566 102.625 55.1348 92.2478C78.9106 81.3418 99.0312 69.2765 104.486 62.85L74.185 128.095Z" fill="black"/>
<path d="M74.39 128.511L74.3559 128.354L74.4242 128.32L74.39 128.151L51.2518 75.2754L51.0925 75.3429C21.5094 88.9164 -0.797592 103.255 0.318321 107.982L0.341118 108.084L0.432236 108.106L74.39 128.511ZM51.0811 75.7369L73.9687 128.061L0.625793 107.836C-0.0915833 103.221 22.4089 88.9052 51.0811 75.7369Z" fill="black"/>
<path d="M6.7489 100.31L74.2383 128.078L74.1071 128.39L6.61763 100.622L6.7489 100.31Z" fill="black"/>
<path d="M74.094 128.376L74.299 128.117L24.971 88.7026L24.766 88.9614L74.094 128.376Z" fill="black"/>
<path d="M74.2648 128.725L105.932 59.6648L105.92 59.6085C105.806 59.1471 105.488 58.7869 104.964 58.5281C100.102 56.187 77.4531 63.2777 51.1039 75.3542L50.9558 75.4217L51.0242 75.5681L74.1623 128.444L74.2078 128.421L74.2648 128.725ZM105.567 59.6311L74.2762 127.892L51.3885 75.5906C77.1684 63.7729 100.124 56.5697 104.816 58.8319C105.226 59.0345 105.465 59.2934 105.567 59.6311Z" fill="black"/>
<path d="M77.8699 64.4696L78.2109 64.4891L74.4888 128.252L74.1477 128.233L77.8699 64.4696Z" fill="black"/>
<path d="M74.4583 128.252L97.7331 58.8207L97.4143 58.7082L74.1395 128.151L74.4583 128.252Z" fill="black"/>
<path d="M74.1623 128.466L74.3103 128.399C74.3445 128.376 74.447 128.342 74.4811 128.252L104.44 62.9063C105.59 61.5557 106.114 60.4301 105.92 59.6085L105.806 59.1246L104.098 62.85C98.6099 69.1527 78.9448 80.9479 55.0096 91.9327L54.8501 92.0115L54.9299 92.1691L74.1623 128.466ZM103.689 63.7391L74.2648 127.926L55.3056 92.1803C78.6146 81.4656 97.3916 70.2895 103.689 63.7391ZM105.556 60.4639C105.465 60.8128 105.294 61.2068 105.021 61.6344L105.556 60.4639Z" fill="black"/>
<path d="M74.39 128.511L74.3559 128.365L74.4811 128.309V128.241L105.658 61.1167C105.92 60.5427 106.011 60.0362 105.909 59.6085C105.795 59.1471 105.476 58.7869 104.952 58.5281C100.09 56.187 77.4417 63.2777 51.0925 75.3542C21.5094 88.9277 -0.797577 103.266 0.318344 107.994L0.341141 108.095L0.432251 108.117L74.0256 128.41L73.9687 128.534L74.1623 128.444L74.39 128.511ZM74.1623 128.072C74.1509 128.072 74.1395 128.084 74.1281 128.095L0.637207 107.825C-0.0915527 103.221 22.4886 88.8601 51.2405 75.6581C77.066 63.7841 100.113 56.5697 104.816 58.8319C105.248 59.0345 105.499 59.3159 105.59 59.6873C105.67 60.0362 105.601 60.4752 105.362 60.9816L74.1965 128.061C74.1851 128.072 74.1737 128.072 74.1623 128.072Z" fill="black"/>
<path d="M74.2876 128.41C74.2989 128.41 74.2989 128.399 74.3103 128.399L74.4697 128.32L74.39 128.162L55.1462 91.8652L54.9982 91.9327C33.568 101.77 14.0737 108.421 5.3627 109.108L0.261406 107.701L0.329727 107.971C0.443596 108.432 0.762451 108.793 1.28625 109.051C2.12888 109.457 3.50669 109.58 5.33998 109.445L74.1053 128.41C74.1509 128.455 74.2078 128.444 74.2876 128.41ZM54.9868 92.3154L73.9346 128.039L6.26231 109.378C15.3946 108.365 34.0121 101.927 54.9868 92.3154ZM0.762421 108.207L4.30373 109.187C3.0284 109.22 2.06055 109.085 1.42288 108.781C1.11544 108.624 0.88768 108.432 0.762421 108.207Z" fill="black"/>
<path d="M74.1167 128.444L74.1736 128.275L74.3103 128.207L74.2762 128.14L74.1964 128.117L0.25 107.723L0.318344 107.994C0.46637 108.624 0.990158 109.063 1.88972 109.299L74.1167 128.444ZM0.762421 108.207L42.131 119.62L1.98083 108.973C1.37733 108.815 0.967384 108.556 0.762421 108.207Z" fill="black"/>
<path d="M0.546082 108.928L0.796547 106.767C2.97144 101.297 24.4244 87.971 51.2405 75.6581L51.3999 75.5906L51.3202 75.433L13.9257 0.880276L13.7776 0.947802C12.935 1.33047 12.8667 1.52181 12.8667 1.62311L0.454964 106.789C0.284164 107.239 0.238632 107.645 0.318344 107.994L0.546082 108.928ZM50.9444 75.433C24.971 87.3632 4.63396 99.8675 0.899071 105.911L13.1969 1.66814C13.2538 1.61186 13.4474 1.48805 13.7662 1.33048L50.9444 75.433Z" fill="black"/>
<path d="M6.85439 100.486L13.2994 1.51055L12.9691 1.48805L6.52419 100.464L6.85439 100.486Z" fill="black"/>
<path d="M13.6243 1.32805L25.0705 88.8455L24.7318 88.8888L13.2855 1.37134L13.6243 1.32805Z" fill="black"/>
<path d="M106 60.0137L105.909 59.6085C105.795 59.1471 105.476 58.7869 104.952 58.5281C104.645 58.3818 104.258 58.2692 103.802 58.1904L14.848 0.733973V0.722707L14.7569 0.677694C14.6202 0.610165 14.2786 0.711448 13.7548 0.947802L13.5955 1.01535L13.6751 1.17291L51.0697 75.7256L51.2177 75.6581C75.3921 64.5495 97.1068 57.5151 103.654 58.5168L106 60.0137ZM104.747 58.8094C104.77 58.8207 104.793 58.8319 104.816 58.8432C104.998 58.9332 105.157 59.0346 105.271 59.1471L104.747 58.8094ZM14.6316 0.992831L103.062 58.1116C95.6948 57.6052 74.9821 64.4144 51.2518 75.2867L14.0737 1.18416C14.3584 1.06036 14.5519 1.00409 14.6316 0.992831Z" fill="black"/>
<path d="M77.8744 64.572L78.1135 64.3356L14.3925 0.812749L14.142 1.04911L77.8744 64.572Z" fill="black"/>
<path d="M14.6894 0.660237L97.6398 58.6573L97.4426 58.9329L14.4921 0.935882L14.6894 0.660237Z" fill="black"/>
<path d="M0.625793 107.442C1.22929 102.366 23.4565 88.4099 51.2291 75.6693C77.7606 63.4915 100.887 56.3109 105.021 58.967L105.203 58.6857L23.8209 6.50775C22.9441 5.945 21.9193 5.40478 20.8375 4.83077C18.5715 3.61524 16.2144 2.36594 14.8138 0.745226L14.7797 0.711463C14.7341 0.677698 14.5861 0.610163 13.7548 0.970321C13.1741 1.24044 12.8667 1.45429 12.8553 1.61186L0.284195 107.42L0.625793 107.442ZM55.8863 73.1933C54.3035 73.8911 52.7094 74.6114 51.0925 75.3542C25.3012 87.1832 4.26961 100.115 0.785225 106.091L13.1969 1.65687C13.2652 1.6006 13.5043 1.43177 13.9143 1.25169C14.29 1.08287 14.5292 1.01535 14.6202 0.992836C16.0664 2.63606 18.4235 3.88535 20.7009 5.10088C21.7712 5.67488 22.7846 6.21513 23.6614 6.76662L103.893 58.2129C97.7559 57.1887 78.421 63.2101 55.8863 73.1933Z" fill="black"/>
<path d="M0.546082 108.928L0.796547 106.767C2.97144 101.297 24.4244 87.971 51.2405 75.6581L51.3999 75.5906L51.3202 75.433L13.9257 0.880276L13.7776 0.947802C12.935 1.33047 12.8667 1.52181 12.8667 1.62311L0.454964 106.789C0.284164 107.239 0.238632 107.645 0.318344 107.994L0.546082 108.928ZM50.9444 75.433C24.971 87.3632 4.63396 99.8675 0.899071 105.911L13.1969 1.66814C13.2538 1.61186 13.4474 1.48805 13.7662 1.33048L50.9444 75.433Z" fill="black"/>
<path d="M0.546082 108.928L0.659912 107.971L13.2083 1.58934H12.8781L0.306923 107.397C0.284149 107.611 0.295563 107.813 0.329727 107.994L0.546082 108.928Z" fill="black"/>
<path d="M106 60.0137L105.909 59.6085C105.795 59.1471 105.476 58.7869 104.952 58.5281C104.645 58.3818 104.258 58.2692 103.802 58.1904L14.848 0.733973V0.722707L14.7569 0.677694C14.6202 0.610165 14.2786 0.711448 13.7548 0.947802L13.5955 1.01535L13.6751 1.17291L51.0697 75.7256L51.2177 75.6581C75.3921 64.5495 97.1068 57.5151 103.654 58.5168L106 60.0137ZM104.747 58.8094C104.77 58.8207 104.793 58.8319 104.816 58.8432C104.998 58.9332 105.157 59.0346 105.271 59.1471L104.747 58.8094ZM14.6316 0.992831L103.062 58.1116C95.6948 57.6052 74.9821 64.4144 51.2518 75.2867L14.0737 1.18416C14.3584 1.06036 14.5519 1.00409 14.6316 0.992831Z" fill="black"/>
<path d="M54.9754 92.3266L55.1348 92.2591C84.7179 78.6857 107.025 64.3469 105.909 59.6198L105.898 59.5523L105.841 59.5185L14.4495 0.486364L14.5291 0.824015C14.4494 0.891545 14.2103 1.0491 13.8346 1.21793L13.6865 1.28545L54.9754 92.3266ZM105.59 59.7548C106.421 64.3244 83.8867 78.6744 55.1462 91.8764L14.1192 1.44302C14.4495 1.28545 14.6316 1.16165 14.7455 1.07161L105.59 59.7548Z" fill="black"/>
<path d="M99.4411 67.2731L99.6461 67.003L14.7114 0.835264L14.5064 1.10539L99.4411 67.2731Z" fill="black"/>
<path d="M14.4473 1.0342L81.4606 78.6813L81.2007 78.9004L14.1874 1.25332L14.4473 1.0342Z" fill="black"/>
<path d="M50.2043 94.4763C51.8326 93.756 53.4723 93.0132 55.1348 92.2591L55.2828 92.1916L13.9826 1.1504L13.8232 1.21793C13.5043 1.35299 13.2766 1.43177 13.1628 1.46554L12.9691 0.643932L12.8553 1.60059L0.306923 107.994C0.420792 108.455 0.739655 108.815 1.26345 109.074C5.82959 111.269 26.0071 105.191 50.2043 94.4763ZM54.8387 92.0228C29.0474 103.829 6.11428 111.044 1.42288 108.781C1.00157 108.579 0.751007 108.309 0.659912 107.96L13.1855 1.81444C13.3335 1.79193 13.5499 1.7244 13.8232 1.60059L54.8387 92.0228Z" fill="black"/>
<path d="M28.3984 103.131L13.641 1.52182L13.3108 1.56683L28.0682 103.176L28.3984 103.131Z" fill="black"/>
<path d="M8.82436 108.849L13.3335 1.64562L12.9919 1.62311L8.4827 108.838L8.82436 108.849Z" fill="black"/>
<path d="M50.2043 94.4763C51.8326 93.756 53.4723 93.0132 55.1348 92.2591C84.7179 78.6857 107.025 64.3469 105.909 59.6198C105.818 59.2371 105.59 58.922 105.214 58.6857L14.7911 0.70021L14.7 0.835264L14.5519 0.891542C14.5406 0.835267 14.5519 0.790235 14.5633 0.790235C14.5292 0.835254 14.2786 1.01534 13.8346 1.21793C13.5157 1.35299 13.288 1.43177 13.1742 1.46554L12.9805 0.643932L12.8667 1.60059L0.318344 107.994C0.432213 108.455 0.75106 108.815 1.27486 109.074C5.82961 111.269 26.0071 105.191 50.2043 94.4763ZM105.032 58.9558C105.34 59.1471 105.51 59.3947 105.59 59.6873C106.649 64.1893 83.955 78.6632 54.9982 91.944C29.1499 103.829 6.12568 111.032 1.4229 108.77C1.00158 108.568 0.751022 108.297 0.659927 107.949L13.1855 1.80319C13.3677 1.78068 13.6296 1.67938 13.9712 1.52182C14.4039 1.33048 14.6316 1.18416 14.7455 1.07161L105.032 58.9558Z" fill="black"/>
</svg>
