<svg width="72" height="93" viewBox="0 0 72 93" fill="none" xmlns="http://www.w3.org/2000/svg">
<path d="M0.519531 24.7065V0.294434H6.52473C7.78361 0.294434 8.87237 0.736743 9.75699 1.63837C10.6586 2.52299 11.1009 3.61175 11.1009 4.87063C11.1009 9.95719 11.1009 15.0437 11.1009 20.1303C11.1009 21.3892 10.6586 22.4779 9.75699 23.3626C8.87237 24.2642 7.78361 24.7065 6.52473 24.7065H0.519531ZM5.58907 2.2508H4.44928V22.7501H5.58907C6.03138 22.7501 6.40564 22.597 6.71186 22.2908C7.01807 21.9676 7.18819 21.5933 7.18819 21.151C7.18819 15.384 7.18819 9.61695 7.18819 3.84992C7.18819 3.40761 7.01807 3.03335 6.71186 2.71012C6.40564 2.40391 6.03138 2.2508 5.58907 2.2508Z" fill="#0E0E0E"/>
<path d="M17.0639 0.294434V24.7065H13.1342V0.294434H17.0639Z" fill="#0E0E0E"/>
<path d="M23.095 24.7065C22.0402 24.7065 21.1556 24.3492 20.4241 23.6007C19.6756 22.8692 19.3183 21.9846 19.3183 20.9299V4.07107C19.3183 3.01634 19.6756 2.13172 20.4241 1.40021C21.1556 0.651683 22.0402 0.294434 23.095 0.294434H26.1231C27.1608 0.294434 28.0625 0.651683 28.794 1.40021C29.5255 2.13172 29.8997 3.01634 29.8997 4.07107V8.4091H25.97V3.61175C25.97 3.23749 25.8339 2.91426 25.5787 2.65909C25.3065 2.3869 24.9833 2.2508 24.592 2.2508C24.2008 2.26781 23.8775 2.40391 23.6224 2.6761C23.3672 2.94829 23.2311 3.27151 23.2311 3.66279V11.7094L25.3916 11.3011C26.5654 11.131 27.5861 11.3862 28.4707 12.0667C29.3383 12.7471 29.8147 13.6828 29.8997 14.8736C29.8997 14.9076 29.8997 14.9587 29.8997 15.0097V20.9299C29.8997 21.9846 29.5255 22.8692 28.794 23.6007C28.0625 24.3492 27.1608 24.7065 26.1231 24.7065H23.095ZM23.2311 14.5164V21.3381C23.2311 21.7294 23.3672 22.0526 23.6224 22.3248C23.8775 22.597 24.2008 22.7331 24.592 22.7501C24.9833 22.7501 25.3065 22.614 25.5787 22.3418C25.8339 22.0867 25.97 21.7634 25.97 21.3892V14.5164C25.97 14.1421 25.8339 13.8189 25.5787 13.5467C25.3065 13.2745 24.9833 13.1384 24.609 13.1384C24.2348 13.1384 23.9116 13.2745 23.6394 13.5467C23.3672 13.8189 23.2311 14.1421 23.2311 14.5164Z" fill="#0E0E0E"/>
<path d="M35.6586 0.294434V24.7065H31.7289V0.294434H35.6586Z" fill="#0E0E0E"/>
<path d="M39.9715 24.7065V2.2508H36.6541V0.294434H47.2355V2.2508H43.9012V24.7065H39.9715Z" fill="#0E0E0E"/>
<path d="M51.8716 19.9772V24.7065H47.9419V4.07107C47.9419 3.01634 48.3161 2.13172 49.0476 1.40021C49.7962 0.651683 50.6808 0.294434 51.7185 0.294434H54.7636C55.8014 0.294434 56.686 0.651683 57.4345 1.40021C58.166 2.13172 58.5403 3.01634 58.5403 4.07107V24.7065H54.6105V19.9772H51.8716ZM53.2496 2.2508C52.8583 2.2508 52.5351 2.3869 52.2799 2.65909C52.0077 2.91426 51.8716 3.23749 51.8716 3.61175V18.0038H54.6105V3.61175C54.6105 3.23749 54.4744 2.91426 54.2022 2.65909C53.9471 2.3869 53.6238 2.2508 53.2496 2.2508Z" fill="#0E0E0E"/>
<path d="M60.7607 24.7065V0.294434H64.6904V22.7501H67.4293V19.6029H71.3591V24.7065H60.7607Z" fill="#0E0E0E"/>
<path d="M0.519531 58.7075V32.7823H6.89697C8.23389 32.7823 9.39014 33.252 10.3296 34.2095C11.2871 35.149 11.7568 36.3052 11.7568 37.6421C11.7568 43.044 11.7568 48.4458 11.7568 53.8477C11.7568 55.1846 11.2871 56.3408 10.3296 57.2803C9.39014 58.2378 8.23389 58.7075 6.89697 58.7075H0.519531ZM5.90332 34.8599H4.69287V56.6299H5.90332C6.37305 56.6299 6.77051 56.4673 7.0957 56.1421C7.4209 55.7989 7.60156 55.4014 7.60156 54.9317C7.60156 48.8072 7.60156 42.6826 7.60156 36.5581C7.60156 36.0884 7.4209 35.6909 7.0957 35.3477C6.77051 35.0225 6.37305 34.8599 5.90332 34.8599Z" fill="#0E0E0E"/>
<path d="M17.8907 58.7075C16.7887 58.7075 15.8312 58.3282 15.0543 57.5332C14.2775 56.7564 13.88 55.8169 13.88 54.6968V36.793C13.88 35.6729 14.2775 34.7334 15.0543 33.9566C15.8312 33.1616 16.7887 32.7823 17.8907 32.7823H21.1066C22.2267 32.7823 23.1661 33.1616 23.943 33.9566C24.7379 34.7334 25.1173 35.6729 25.1173 36.793V41.3999H20.962V36.3052C20.962 35.9077 20.8175 35.5645 20.5284 35.2935C20.2394 35.0044 19.8961 34.8599 19.4987 34.8599C19.1012 34.8599 18.7579 35.0044 18.4689 35.2935C18.1979 35.5645 18.0533 35.9077 18.0533 36.3052V47.145H22.3893V49.2227H18.0533V55.1846C18.0533 55.5821 18.1979 55.9253 18.4689 56.1963C18.7579 56.4854 19.1012 56.6299 19.4987 56.6299C19.8961 56.6299 20.2394 56.4854 20.5284 56.1963C20.8175 55.9253 20.962 55.5821 20.962 55.1846V53.396H25.1173V54.6968C25.1173 55.8169 24.7379 56.7564 23.943 57.5332C23.1661 58.3282 22.2267 58.7075 21.1066 58.7075H17.8907Z" fill="#0E0E0E"/>
<path d="M33.5456 32.7823C34.6477 32.7823 35.5872 33.1616 36.3821 33.9566C37.1589 34.7334 37.5564 35.6729 37.5564 36.793V41.3999H33.383V36.3052C33.383 35.9077 33.2385 35.5645 32.9495 35.2935C32.6785 35.0044 32.3171 34.8599 31.9016 34.8599C31.4861 34.878 31.1609 35.0225 30.8899 35.3116C30.6008 35.6006 30.4744 35.9439 30.4744 36.3594V46.5308C30.4744 47.0366 30.655 47.4522 31.0163 47.8135C31.3596 48.1748 31.7932 48.3555 32.2991 48.3555H34.178C35.0994 48.3555 35.8943 48.6807 36.5627 49.3491C37.2131 49.9995 37.5564 50.7945 37.5564 51.7339V54.6968C37.5564 55.8169 37.1589 56.7564 36.3821 57.5332C35.5872 58.3282 34.6477 58.7075 33.5456 58.7075H30.3118C29.2097 58.7075 28.2703 58.3282 27.4753 57.5332C26.6985 56.7564 26.301 55.8169 26.301 54.6968V53.396H30.4744V55.1846C30.4744 55.5821 30.6189 55.9253 30.9079 56.1963C31.1789 56.4854 31.5222 56.6299 31.9558 56.6299C32.3533 56.6118 32.6965 56.4673 32.9675 56.1782C33.2385 55.8892 33.383 55.5459 33.383 55.1304V52.2759C33.383 51.77 33.2024 51.3365 32.8411 50.9751C32.4797 50.6138 32.0642 50.4331 31.5583 50.4331H29.6794C28.74 50.4331 27.9451 50.1079 27.2947 49.4575C26.6262 48.7891 26.301 47.9942 26.301 47.0728V36.793C26.301 35.6729 26.6985 34.7334 27.4753 33.9566C28.2703 33.1616 29.2097 32.7823 30.3118 32.7823H33.5456Z" fill="#0E0E0E"/>
<path d="M43.2928 32.7823V58.7075H39.1195V32.7823H43.2928Z" fill="#0E0E0E"/>
<path d="M49.6977 58.7075C48.5776 58.7075 47.6382 58.3282 46.8613 57.5332C46.0664 56.7564 45.687 55.8169 45.687 54.6968V36.793C45.687 35.6729 46.0664 34.7334 46.8613 33.9566C47.6382 33.1616 48.5776 32.7823 49.6977 32.7823H52.9136C54.0156 32.7823 54.9731 33.1616 55.75 33.9566C56.5268 34.7334 56.9243 35.6729 56.9243 36.793V41.3999H52.751V36.3052C52.751 35.9077 52.6064 35.5645 52.3354 35.2935C52.0464 35.0044 51.7031 34.8599 51.2876 34.8599C50.8721 34.878 50.5288 35.0225 50.2578 35.3116C49.9868 35.6006 49.8423 35.9439 49.8423 36.3594V44.9048L52.1367 44.4712C53.3833 44.2906 54.4673 44.5616 55.4067 45.2842C56.3281 46.0069 56.834 47.0005 56.9243 48.2652C56.9243 48.3013 56.9243 48.3555 56.9243 48.4097V54.6968C56.9243 55.8169 56.5268 56.7564 55.75 57.5332C54.9731 58.3282 54.0156 58.7075 52.9136 58.7075H49.6977ZM49.8423 47.8858V55.1304C49.8423 55.5459 49.9868 55.8892 50.2578 56.1782C50.5288 56.4673 50.8721 56.6118 51.2876 56.6299C51.7031 56.6299 52.0464 56.4854 52.3354 56.1963C52.6064 55.9253 52.751 55.5821 52.751 55.1846V47.8858C52.751 47.4883 52.6064 47.145 52.3354 46.856C52.0464 46.5669 51.7031 46.4224 51.3056 46.4224C50.9082 46.4224 50.5649 46.5669 50.2759 46.856C49.9868 47.145 49.8423 47.4883 49.8423 47.8858Z" fill="#0E0E0E"/>
<path d="M63.0401 43.604V58.7075H58.8668V32.7823H63.0401L65.9308 47.8858V32.7823H70.1041V58.7075H65.9308L63.0401 43.604Z" fill="#0E0E0E"/>
<path d="M4.27065 79.1302V92.7057H0.519531V69.4033H4.27065L6.86883 82.9788V69.4033H10.62V92.7057H6.86883L4.27065 79.1302Z" fill="#0E0E0E"/>
<path d="M16.4256 92.7057C15.435 92.7057 14.5906 92.3647 13.8761 91.6502C13.1779 90.952 12.8206 90.1075 12.8206 89.1007V73.0083C12.8206 72.0015 13.1779 71.1571 13.8761 70.4588C14.5906 69.7443 15.435 69.4033 16.4256 69.4033H19.3323C20.3228 69.4033 21.1673 69.7443 21.8655 70.4588C22.58 71.1571 22.9373 72.0015 22.9373 73.0083V89.1007C22.9373 90.1075 22.58 90.952 21.8655 91.6502C21.1673 92.3647 20.3228 92.7057 19.3323 92.7057H16.4256ZM16.5717 72.5698V89.5392C16.5717 89.8964 16.7016 90.205 16.9452 90.4485C17.205 90.7084 17.5136 90.8383 17.8708 90.8383C18.2443 90.8383 18.5366 90.7084 18.7964 90.4485C19.0562 90.205 19.1861 89.8964 19.1861 89.5392V72.5698C19.1861 72.2126 19.0562 71.904 18.7964 71.6605C18.5366 71.4007 18.2443 71.2707 17.8708 71.2707C17.5136 71.2707 17.205 71.4007 16.9452 71.6605C16.7016 71.904 16.5717 72.2126 16.5717 72.5698Z" fill="#0E0E0E"/>
<path d="M28.7916 85.8205V92.7057H25.0567V69.4033H28.7916L30.0745 86.2103L31.3573 69.4033H35.1572V92.7057H31.406V85.4146L30.5779 92.7057H29.5873L28.7916 85.8205Z" fill="#0E0E0E"/>
<path d="M41.0115 88.1914V92.7057H37.2604V73.0083C37.2604 72.0015 37.6176 71.1571 38.3159 70.4588C39.0304 69.7443 39.8748 69.4033 40.8654 69.4033H43.7721C44.7626 69.4033 45.607 69.7443 46.3215 70.4588C47.0198 71.1571 47.377 72.0015 47.377 73.0083V92.7057H43.6259V88.1914H41.0115ZM42.3268 71.2707C41.9533 71.2707 41.6448 71.4007 41.4012 71.6605C41.1414 71.904 41.0115 72.2126 41.0115 72.5698V86.3077H43.6259V72.5698C43.6259 72.2126 43.496 71.904 43.2362 71.6605C42.9926 71.4007 42.6841 71.2707 42.3268 71.2707Z" fill="#0E0E0E"/>
<path d="M49.5939 92.7057V69.4033H55.3262C56.5278 69.4033 57.5671 69.8255 58.4115 70.6861C59.2722 71.5306 59.6944 72.5698 59.6944 73.7715C59.6944 78.6268 59.6944 83.4822 59.6944 88.3375C59.6944 89.5392 59.2722 90.5785 58.4115 91.4229C57.5671 92.2835 56.5278 92.7057 55.3262 92.7057H49.5939ZM54.433 71.2707H53.3451V90.8383H54.433C54.8552 90.8383 55.2125 90.6921 55.5048 90.3998C55.7971 90.0913 55.9595 89.734 55.9595 89.3118C55.9595 83.807 55.9595 78.3021 55.9595 72.7972C55.9595 72.375 55.7971 72.0177 55.5048 71.7092C55.2125 71.4169 54.8552 71.2707 54.433 71.2707Z" fill="#0E0E0E"/>
<path d="M67.7896 69.4033C68.7802 69.4033 69.6246 69.7443 70.3391 70.4588C71.0374 71.1571 71.3946 72.0015 71.3946 73.0083V77.1491H67.6435V72.5698C67.6435 72.2126 67.5136 71.904 67.2538 71.6605C67.0102 71.4007 66.6854 71.2707 66.3119 71.2707C65.9384 71.287 65.6461 71.4169 65.4026 71.6767C65.1427 71.9365 65.0291 72.2451 65.0291 72.6185V81.7609C65.0291 82.2156 65.1915 82.5891 65.5162 82.9138C65.8248 83.2386 66.2145 83.401 66.6692 83.401H68.358C69.1862 83.401 69.9007 83.6933 70.5015 84.2941C71.0861 84.8787 71.3946 85.5932 71.3946 86.4376V89.1007C71.3946 90.1075 71.0374 90.952 70.3391 91.6502C69.6246 92.3647 68.7802 92.7057 67.7896 92.7057H64.8829C63.8924 92.7057 63.048 92.3647 62.3335 91.6502C61.6352 90.952 61.2779 90.1075 61.2779 89.1007V87.9316H65.0291V89.5392C65.0291 89.8964 65.159 90.205 65.4188 90.4485C65.6624 90.7084 65.9709 90.8383 66.3606 90.8383C66.7179 90.822 67.0264 90.6921 67.27 90.4323C67.5136 90.1725 67.6435 89.864 67.6435 89.4905V86.9248C67.6435 86.4701 67.4811 86.0804 67.1563 85.7556C66.8316 85.4308 66.4581 85.2684 66.0034 85.2684H64.3146C63.4702 85.2684 62.7557 84.9761 62.1711 84.3915C61.5702 83.7907 61.2779 83.0762 61.2779 82.248V73.0083C61.2779 72.0015 61.6352 71.1571 62.3335 70.4588C63.048 69.7443 63.8924 69.4033 64.8829 69.4033H67.7896Z" fill="#0E0E0E"/>
</svg>
