<svg width="179" height="162" viewBox="0 0 179 162" fill="none" xmlns="http://www.w3.org/2000/svg">
<g id="Vector">
<path d="M129.673 113.467C129.629 113.447 129.591 113.415 129.561 113.375C129.472 113.252 129.484 113.086 129.591 112.979L140.418 101.855C140.526 101.747 140.693 101.731 140.813 101.823C140.934 101.915 140.967 102.079 140.895 102.217L136.794 109.656C136.766 109.706 136.724 109.749 136.671 109.779L129.942 113.467C129.858 113.504 129.756 113.506 129.673 113.467ZM139.297 103.871L131.424 111.956L136.314 109.274L139.297 103.871Z" fill="#0E0E0E"/>
<path d="M124.553 123.934C124.542 123.929 124.528 123.922 124.519 123.914C124.393 123.833 124.348 123.663 124.412 123.526C126.322 119.572 127.386 117.385 129.537 113.057C129.564 112.998 129.612 112.953 129.665 112.923L136.394 109.235C136.524 109.165 136.677 109.196 136.769 109.311C136.858 109.425 136.857 109.586 136.761 109.699L124.909 123.853C124.82 123.959 124.673 123.99 124.553 123.934ZM130.029 113.413C128.335 116.828 127.317 118.906 126.006 121.604L135.275 110.537L130.029 113.413Z" fill="#0E0E0E"/>
<path d="M129.676 113.469C129.669 113.465 129.662 113.462 129.654 113.459C129.536 113.39 129.478 113.25 129.513 113.118L130.033 111.132C131.042 107.271 131.711 104.719 132.844 100.263C132.864 100.183 132.913 100.115 132.984 100.077C133.055 100.038 133.134 100.02 133.213 100.039C133.974 100.227 134.74 100.432 135.488 100.627C137.558 101.169 139.513 101.685 140.661 101.761C140.776 101.77 140.878 101.844 140.918 101.957C140.96 102.067 140.932 102.193 140.847 102.28L130.02 113.404C129.925 113.495 129.789 113.521 129.676 113.469ZM133.352 100.708C132.264 104.982 131.604 107.506 130.616 111.282L130.386 112.165L139.989 102.303C138.785 102.129 137.097 101.684 135.33 101.22C134.678 101.047 134.013 100.872 133.352 100.708Z" fill="#0E0E0E"/>
<path d="M124.553 123.934C124.415 123.87 124.349 123.709 124.397 123.56C127.425 114.688 129.163 109.956 132.856 100.228C132.914 100.075 133.076 99.9934 133.229 100.043C133.38 100.09 133.469 100.249 133.431 100.407C132.296 104.866 131.629 107.414 130.618 111.278L130.098 113.265C130.093 113.285 130.084 113.303 130.074 113.326C127.923 117.654 126.861 119.837 124.951 123.791C124.878 123.937 124.711 124.003 124.566 123.945C124.56 123.938 124.557 123.936 124.553 123.934ZM131.492 105.531C129.606 110.55 128.223 114.34 126.59 119.026C127.454 117.259 128.316 115.504 129.519 113.085L130.033 111.132C130.578 109.054 131.022 107.352 131.492 105.531Z" fill="#0E0E0E"/>
<path d="M124.553 123.934C124.491 123.905 124.444 123.856 124.41 123.796C123.464 121.837 122.888 120.808 121.467 118.551C121.404 118.45 121.407 118.32 121.472 118.22C124.619 113.326 126.677 110.049 129.281 105.905C130.358 104.192 131.522 102.34 132.883 100.178C132.967 100.046 133.14 99.9875 133.271 100.067C133.407 100.135 133.472 100.3 133.417 100.445C129.73 110.162 127.991 114.894 124.967 123.758C124.926 123.874 124.821 123.956 124.701 123.967C124.649 123.965 124.597 123.955 124.553 123.934ZM122.08 118.382C123.279 120.292 123.871 121.324 124.635 122.869C127.218 115.312 128.889 110.724 131.795 103.034C131.08 104.169 130.422 105.221 129.789 106.227C127.211 110.325 125.169 113.578 122.08 118.382Z" fill="#0E0E0E"/>
<path d="M112.997 131.63C112.961 131.613 112.924 131.587 112.897 131.551C112.808 131.447 112.802 131.291 112.882 131.175C116.129 126.552 117.815 123.949 121.47 118.215C121.524 118.127 121.62 118.073 121.726 118.073C121.828 118.071 121.923 118.124 121.978 118.213C123.414 120.495 123.999 121.533 124.955 123.518C125.015 123.645 124.984 123.797 124.876 123.887C120.639 127.535 118.25 129.126 113.256 131.624C113.172 131.671 113.077 131.667 112.997 131.63ZM121.716 118.946C118.494 123.999 116.809 126.599 114.059 130.536C118.23 128.392 120.535 126.811 124.305 123.576C123.477 121.875 122.909 120.858 121.716 118.946Z" fill="#0E0E0E"/>
<path d="M121.593 118.66C121.532 118.631 121.482 118.585 121.454 118.523C120.185 115.95 119.45 114.608 117.722 111.694C117.638 111.552 117.681 111.365 117.825 111.274C124.174 107.301 127.281 105.004 132.945 100.103C133.058 100.003 133.225 100.004 133.338 100.102C133.452 100.2 133.475 100.369 133.393 100.497C132.032 102.658 130.868 104.511 129.791 106.224C127.185 110.371 125.127 113.648 121.978 118.546C121.917 118.639 121.817 118.692 121.709 118.686C121.666 118.684 121.626 118.675 121.593 118.66ZM118.391 111.633C119.919 114.209 120.655 115.548 121.759 117.773C124.748 113.125 126.758 109.924 129.281 105.905C130.067 104.655 130.897 103.331 131.818 101.865C127.106 105.872 124.017 108.101 118.391 111.633Z" fill="#0E0E0E"/>
<path d="M112.997 131.63C112.87 131.57 112.799 131.429 112.834 131.288C114.487 123.945 115.53 119.812 117.686 111.457C117.716 111.336 117.815 111.247 117.935 111.227C118.055 111.206 118.175 111.262 118.236 111.367C119.976 114.294 120.716 115.644 121.993 118.238C122.042 118.333 122.031 118.45 121.976 118.541C118.313 124.284 116.624 126.891 113.374 131.522C113.292 131.641 113.135 131.685 113.006 131.629C113.001 131.631 112.997 131.63 112.997 131.63ZM118.086 112.314C116.201 119.625 115.177 123.686 113.756 129.926C116.434 126.078 118.124 123.467 121.376 118.369C120.243 116.08 119.527 114.756 118.086 112.314Z" fill="#0E0E0E"/>
<path d="M100.094 128.499C100.007 128.458 99.9457 128.38 99.9258 128.281C99.9037 128.167 99.9482 128.053 100.04 127.979C107.024 122.492 110.757 118.843 117.761 111.325C117.856 111.226 118.005 111.201 118.125 111.265C118.245 111.33 118.303 111.47 118.27 111.608C116.114 119.954 115.072 124.083 113.422 131.418C113.386 131.581 113.226 131.687 113.066 131.653C108.718 130.746 105.963 130.11 100.144 128.513C100.123 128.512 100.108 128.505 100.094 128.499ZM117.391 112.603C111.302 119.115 107.419 122.914 100.883 128.084C106.169 129.526 108.872 130.152 112.9 130.995C114.439 124.171 115.459 120.099 117.391 112.603Z" fill="#0E0E0E"/>
<path d="M98.9279 136.483C98.8989 136.469 98.8752 136.454 98.8513 136.429C98.78 136.364 98.7457 136.267 98.7583 136.174C99.0898 133.294 99.3177 131.725 99.9236 128.172C99.9381 128.084 99.9888 128.013 100.06 127.965C100.131 127.917 100.22 127.905 100.303 127.926C106.102 129.518 108.854 130.152 113.19 131.053C113.315 131.08 113.409 131.182 113.424 131.311C113.439 131.439 113.371 131.566 113.256 131.624C107.932 134.288 104.896 135.335 99.1134 136.502C99.049 136.517 98.9859 136.51 98.9279 136.483ZM100.46 128.602C99.9291 131.74 99.6956 133.302 99.402 135.826C104.575 134.762 107.532 133.764 112.199 131.474C108.404 130.672 105.674 130.029 100.46 128.602Z" fill="#0E0E0E"/>
<path d="M133.007 100.614C132.942 100.584 132.89 100.533 132.864 100.466C132.828 100.382 132.828 100.288 132.868 100.203C135.465 94.8894 136.813 92.1865 139.444 87.065C139.507 86.941 139.642 86.878 139.776 86.9043C139.909 86.9305 140.007 87.0435 140.013 87.1815L140.936 102.042C140.943 102.131 140.907 102.218 140.847 102.28C140.787 102.342 140.7 102.378 140.612 102.368C139.411 102.29 137.43 101.767 135.328 101.215C134.584 101.021 133.822 100.818 133.061 100.63C133.04 100.629 133.025 100.623 133.007 100.614ZM139.476 88.3135C137.219 92.718 135.889 95.3802 133.569 100.129C134.212 100.294 134.855 100.458 135.484 100.626C137.357 101.116 139.139 101.587 140.31 101.728L139.476 88.3135Z" fill="#0E0E0E"/>
<path d="M140.505 102.341C140.407 102.296 140.341 102.201 140.333 102.085L139.41 87.2245C139.4 87.0757 139.499 86.9376 139.644 86.9016C139.789 86.8656 139.938 86.944 139.989 87.0805L142.953 94.6851C142.978 94.746 142.981 94.815 142.964 94.8793L140.924 102.136C140.883 102.279 140.747 102.373 140.603 102.36C140.569 102.366 140.534 102.355 140.505 102.341ZM140.13 89.1182L140.824 100.275L142.356 94.8297L140.13 89.1182Z" fill="#0E0E0E"/>
<path d="M133.007 100.614C132.913 100.57 132.846 100.476 132.835 100.367C132.337 94.1606 131.758 90.8377 130.001 84.2148C129.972 84.1067 130.005 83.9873 130.09 83.9098C130.171 83.8305 130.289 83.8046 130.396 83.8408C134.857 85.3942 136.789 86.0249 139.801 86.907C139.889 86.9348 139.955 86.9925 139.991 87.0768C140.027 87.161 140.023 87.2539 139.98 87.3373C137.352 92.4605 136.002 95.158 133.408 100.464C133.346 100.588 133.213 100.656 133.083 100.632C133.052 100.631 133.029 100.624 133.007 100.614ZM130.728 84.6077C132.28 90.5229 132.873 93.8162 133.343 99.2219C135.582 94.647 136.915 91.9865 139.269 87.3931C136.563 86.5949 134.655 85.9706 130.728 84.6077Z" fill="#0E0E0E"/>
<path d="M117.848 111.812C117.822 111.8 117.799 111.784 117.777 111.765C117.68 111.679 117.65 111.535 117.702 111.415C122.574 100.342 125.323 94.2664 130.018 84.0069C130.074 83.8885 130.191 83.8171 130.319 83.8272C130.443 83.8356 130.551 83.9264 130.582 84.049C132.35 90.7133 132.937 94.0577 133.436 100.31C133.443 100.408 133.402 100.506 133.328 100.57C127.634 105.497 124.513 107.806 118.13 111.795C118.043 111.849 117.939 111.854 117.848 111.812ZM130.213 85.0205C125.857 94.5424 123.154 100.518 118.647 110.752C124.409 107.118 127.482 104.819 132.823 100.204C132.352 94.3565 131.789 91.064 130.213 85.0205Z" fill="#0E0E0E"/>
<path d="M130.163 84.4074C130.061 84.36 129.997 84.2623 129.992 84.1478C129.988 84.0243 130.056 83.9073 130.168 83.8561C136.335 80.9279 139.234 79.3893 144.275 76.3642C144.391 76.2965 144.531 76.3079 144.63 76.399C144.727 76.4848 144.757 76.6292 144.7 76.7513C142.864 80.839 141.893 82.9976 139.985 87.3262C139.923 87.4684 139.766 87.5394 139.622 87.499C136.599 86.6118 134.658 85.9814 130.19 84.4246C130.181 84.4159 130.17 84.4108 130.163 84.4074ZM143.76 77.3754C139.364 79.9905 136.497 81.5079 131.095 84.0855C134.946 85.422 136.836 86.0378 139.548 86.834C141.244 82.9785 142.198 80.8479 143.76 77.3754Z" fill="#0E0E0E"/>
<path d="M100.094 128.499C100.046 128.477 100.003 128.438 99.9747 128.394C98.234 125.79 97.2657 124.353 95.533 121.789L95.1072 121.158C95.0517 121.078 95.0425 120.975 95.073 120.881C95.1071 120.789 95.1812 120.715 95.2723 120.69C104.598 117.911 109.45 115.888 117.835 111.27C117.965 111.2 118.128 111.231 118.218 111.349C118.308 111.468 118.297 111.634 118.197 111.745C111.482 118.956 107.526 122.874 100.406 128.464C100.342 128.515 100.256 128.539 100.173 128.527C100.146 128.519 100.119 128.511 100.094 128.499ZM95.835 121.151L96.0276 121.438C97.6993 123.915 98.6601 125.34 100.292 127.781C106.682 122.742 110.355 119.223 116.479 112.691C109.133 116.654 104.336 118.604 95.835 121.151Z" fill="#0E0E0E"/>
<path d="M117.848 111.812C117.75 111.766 117.681 111.667 117.677 111.552C117.548 108.723 117.471 107.269 117.283 104.223C117.278 104.158 117.295 104.093 117.33 104.038C119.232 101.039 120.79 98.5688 122.256 96.2401C124.75 92.2839 126.904 88.867 130.041 83.9679C130.126 83.8321 130.302 83.7878 130.44 83.8611C130.576 83.9382 130.633 84.109 130.566 84.2532C125.872 94.5091 123.123 100.584 118.253 111.654C118.196 111.785 118.061 111.857 117.922 111.833C117.897 111.83 117.87 111.822 117.848 111.812ZM117.89 104.276C118.043 106.77 118.124 108.199 118.218 110.242C122.142 101.333 124.701 95.647 128.228 87.9221C126.241 91.0475 124.594 93.6608 122.764 96.5625C121.308 98.8689 119.766 101.315 117.89 104.276Z" fill="#0E0E0E"/>
<path d="M95.2242 121.257C95.1589 121.227 95.1076 121.176 95.0792 121.104C95.0207 120.964 95.0714 120.799 95.201 120.72C104.286 115.046 109.184 111.135 117.39 103.966C117.478 103.891 117.598 103.87 117.701 103.914C117.81 103.955 117.877 104.059 117.885 104.175C118.074 107.226 118.149 108.684 118.279 111.513C118.285 111.633 118.22 111.742 118.119 111.799C109.688 116.44 104.812 118.475 95.4347 121.27C95.3615 121.294 95.2859 121.286 95.2242 121.257ZM117.319 104.829C109.938 111.261 105.191 115.067 97.4091 120.039C105.332 117.587 110.046 115.548 117.67 111.36C117.552 108.846 117.476 107.41 117.319 104.829Z" fill="#0E0E0E"/>
<path d="M88.7675 137.567C88.6877 137.529 88.627 137.46 88.6073 137.37C88.5723 137.237 88.6306 137.093 88.7497 137.027C92.8042 134.64 95.1183 132.68 100.017 127.999C100.113 127.909 100.254 127.889 100.367 127.951C100.479 128.012 100.543 128.141 100.519 128.269C99.9143 131.81 99.6845 133.373 99.3562 136.237C99.3426 136.37 99.2424 136.481 99.1116 136.505C95.0837 137.32 92.9835 137.542 88.8957 137.595C88.8525 137.593 88.8074 137.585 88.7675 137.567ZM99.774 129.061C95.6595 132.969 93.3789 134.895 90.0245 136.964C93.3246 136.887 95.2809 136.651 98.7863 135.953C99.0751 133.458 99.2911 131.925 99.774 129.061Z" fill="#0E0E0E"/>
<path d="M77.0056 133.532C76.8968 133.481 76.8263 133.367 76.8327 133.239C76.8427 133.104 76.9357 132.99 77.0662 132.957L86.0439 130.772C86.1888 130.736 86.3341 130.813 86.3889 130.951C87.4627 133.64 88.0079 134.858 89.1655 137.149C89.2198 137.26 89.2062 137.393 89.1218 137.489C89.0428 137.582 88.9142 137.621 88.7965 137.58C84.1633 136.036 81.778 135.203 77.0274 133.542C77.0202 133.538 77.0129 133.535 77.0056 133.532ZM85.9255 131.424L78.2072 133.304C82.1035 134.666 84.4254 135.474 88.297 136.766C87.3765 134.923 86.8403 133.705 85.9255 131.424Z" fill="#0E0E0E"/>
<path d="M88.7675 137.567C88.7058 137.538 88.6564 137.492 88.6282 137.43C87.4613 135.12 86.9123 133.892 85.8291 131.185C85.7951 131.097 85.8021 130.997 85.8507 130.912C85.8994 130.826 85.9864 130.772 86.0796 130.762C91.7238 130.156 94.615 129.573 100.14 127.926C100.274 127.885 100.415 127.942 100.486 128.065C100.553 128.186 100.529 128.342 100.427 128.438C95.4889 133.155 93.1499 135.13 89.0457 137.548C88.9728 137.59 88.8886 137.6 88.8108 137.578C88.7965 137.58 88.782 137.573 88.7675 137.567ZM86.5401 131.328C87.4755 133.65 88.0168 134.857 89.025 136.863C92.6579 134.698 94.9199 132.831 99.1105 128.864C94.4158 130.227 91.5527 130.779 86.5401 131.328Z" fill="#0E0E0E"/>
<path d="M85.9797 131.345C85.918 131.317 85.8631 131.264 85.833 131.196C85.7821 131.078 85.8081 130.937 85.9016 130.85C89.1839 127.675 91.0833 125.553 95.1232 120.783C95.1829 120.711 95.2773 120.67 95.3673 120.676C95.4627 120.68 95.5463 120.728 95.5982 120.806L96.0239 121.437C97.7549 124.004 98.7249 125.438 100.468 128.047C100.523 128.127 100.532 128.231 100.498 128.323C100.464 128.415 100.392 128.485 100.299 128.513C94.7311 130.176 91.8203 130.764 86.1312 131.371C86.0809 131.375 86.0268 131.367 85.9797 131.345ZM95.3238 121.479C91.7036 125.748 89.8132 127.87 86.9531 130.669C91.9081 130.112 94.7614 129.524 99.7432 128.047C98.1451 125.659 97.1879 124.235 95.533 121.789L95.3238 121.479Z" fill="#0E0E0E"/>
<path d="M85.9797 131.345C85.9688 131.34 85.9543 131.334 85.9415 131.323C79.1627 126.879 75.1699 124.36 68.5564 120.186L67.0822 119.256C66.9566 119.175 66.9068 119.016 66.967 118.878C67.0271 118.739 67.1767 118.665 67.3193 118.7L68.9775 119.122C71.678 119.809 73.4971 120.275 76.6145 121.053C76.6705 121.066 76.7178 121.097 76.7528 121.136C80.6921 125.228 82.6373 127.175 86.3168 130.85C86.425 130.959 86.4356 131.135 86.3375 131.26C86.2552 131.37 86.103 131.403 85.9797 131.345ZM69.046 119.771C74.7278 123.357 78.4804 125.728 83.8058 129.197C81.3435 126.73 79.4784 124.838 76.3832 121.625C73.4011 120.878 71.6056 120.419 69.046 119.771Z" fill="#0E0E0E"/>
<path d="M85.9797 131.345C85.9507 131.332 85.9197 131.313 85.8959 131.288C82.2128 127.612 80.2692 125.661 76.3263 121.567C76.2401 121.477 76.2177 121.345 76.2711 121.231C76.321 121.114 76.4382 121.043 76.5605 121.046C84.1889 121.262 87.9717 121.239 95.3404 120.677C95.4606 120.665 95.5751 120.732 95.6294 120.843C95.6837 120.954 95.6666 121.085 95.5875 121.179C91.5317 125.965 89.6272 128.098 86.3237 131.29C86.2211 131.377 86.0885 131.396 85.9797 131.345ZM77.2811 121.679C80.8056 125.335 82.7325 127.265 86.1168 130.644C89.1432 127.706 91.0182 125.627 94.6561 121.339C87.9637 121.834 84.1953 121.864 77.2811 121.679Z" fill="#0E0E0E"/>
<path d="M95.2242 121.257C95.1988 121.246 95.1751 121.23 95.1532 121.211C95.0526 121.123 95.0264 120.981 95.0797 120.857C96.8035 117.028 98.2203 113.951 99.7163 110.696C101.242 107.377 102.819 103.948 104.911 99.3183C104.98 99.1704 105.146 99.0991 105.296 99.1556L105.535 99.2491C110.681 101.239 113.263 102.236 117.692 103.914C117.794 103.952 117.864 104.039 117.88 104.146C117.897 104.252 117.859 104.361 117.778 104.431C109.544 111.623 104.632 115.545 95.5097 121.242C95.419 121.294 95.3149 121.3 95.2242 121.257ZM105.34 99.8289C103.308 104.329 101.758 107.69 100.262 110.946C98.885 113.937 97.5768 116.78 96.0373 120.196C104.452 114.89 109.276 111.043 117.001 104.307C112.862 102.737 110.283 101.742 105.34 99.8289Z" fill="#0E0E0E"/>
<path d="M76.412 121.63C76.3721 121.611 76.3337 121.58 76.3061 121.544C76.2508 121.473 76.2293 121.387 76.2474 121.301C77.1817 116.266 77.8614 113.265 79.4343 106.794C79.461 106.689 79.5366 106.603 79.6402 106.57C79.7438 106.538 79.8521 106.561 79.929 106.633C82.7599 109.2 84.9757 111.193 87.0761 113.082C89.7273 115.466 92.2322 117.719 95.5575 120.751C95.6472 120.833 95.6767 120.96 95.6394 121.077C95.5986 121.193 95.4942 121.275 95.3757 121.283C87.982 121.851 84.1865 121.874 76.5329 121.654C76.488 121.656 76.4483 121.646 76.412 121.63ZM79.8979 107.429C78.4499 113.395 77.7787 116.369 76.9057 121.054C84.0594 121.256 87.8296 121.231 94.6279 120.727C91.5624 117.934 89.1856 115.794 86.6771 113.539C84.6646 111.736 82.5478 109.835 79.8979 107.429Z" fill="#0E0E0E"/>
<path d="M95.2242 121.257C95.1263 121.212 95.0597 121.118 95.0539 121.007C94.4172 111.849 94.3188 106.027 94.156 96.3831L94.0817 92.1477C94.0813 92.035 94.1403 91.9274 94.238 91.8694C94.3357 91.8114 94.4562 91.8181 94.5509 91.8803C99.0458 94.8858 101.282 96.3879 105.356 99.1881C105.477 99.2712 105.517 99.4298 105.459 99.5647C103.365 104.198 101.788 107.627 100.262 110.946C98.7662 114.201 97.3511 117.274 95.6274 121.103C95.5687 121.229 95.4355 121.306 95.3019 121.28C95.2731 121.276 95.246 121.268 95.2242 121.257ZM94.6931 92.712L94.7577 96.3621C94.9155 105.571 95.0137 111.29 95.5722 119.763C97.0792 116.427 98.3633 113.635 99.7163 110.696C101.216 107.433 102.769 104.064 104.806 99.553C101.009 96.945 98.7982 95.4547 94.6931 92.712Z" fill="#0E0E0E"/>
<path d="M95.2242 121.257C95.1988 121.246 95.1715 121.228 95.1495 121.209C91.8278 118.179 89.323 115.926 86.6718 113.541C84.5677 111.651 82.352 109.658 79.521 107.091C79.4588 107.035 79.4213 106.955 79.4214 106.869C79.4215 106.784 79.4558 106.701 79.5176 106.644C84.9594 101.415 87.8559 98.452 94.1672 91.9264C94.2517 91.8398 94.3806 91.8098 94.4929 91.8532C94.6088 91.8982 94.6774 92.0068 94.6834 92.1266L94.7577 96.3621C94.9203 105.997 95.0222 111.812 95.6568 120.955C95.6646 121.08 95.5969 121.197 95.4865 121.254C95.4011 121.295 95.304 121.295 95.2242 121.257ZM80.1706 106.854C82.888 109.314 85.0342 111.247 87.0761 113.082C89.5791 115.329 91.9503 117.462 94.9993 120.243C94.4089 111.517 94.3135 105.754 94.1524 96.3815L94.0905 92.8677C88.2125 98.947 85.3176 101.897 80.1706 106.854Z" fill="#0E0E0E"/>
<path d="M67.1185 119.273C67.0351 119.234 66.9725 119.159 66.9545 119.065C66.9307 118.955 66.968 118.838 67.0546 118.765C71.4962 114.952 74.061 112.397 79.5088 106.653C79.6039 106.554 79.7579 106.526 79.8725 106.593C79.9924 106.658 80.0508 106.798 80.0193 106.932C78.4497 113.386 77.7718 116.383 76.8406 121.402C76.8243 121.484 76.7755 121.56 76.7062 121.605C76.6353 121.653 76.5493 121.667 76.4699 121.648C73.3541 120.866 71.5334 120.404 68.8329 119.716L67.1746 119.294C67.1511 119.288 67.1366 119.281 67.1185 119.273ZM79.1682 107.886C74.3962 112.9 71.8699 115.401 67.8883 118.844L68.9865 119.122C71.5967 119.785 73.3813 120.239 76.311 120.975C77.1542 116.42 77.8118 113.485 79.1682 107.886Z" fill="#0E0E0E"/>
<path d="M105.056 99.7188C104.958 99.6732 104.889 99.5737 104.884 99.463C104.878 99.3431 104.938 99.2319 105.045 99.1736C115.524 93.475 120.499 90.3557 130.127 83.8776C130.248 83.7988 130.405 83.8133 130.504 83.9135C130.603 84.0137 130.62 84.1749 130.542 84.2959C127.408 89.1968 125.254 92.6136 122.762 96.5662C121.293 98.8931 119.738 101.365 117.836 104.364C117.758 104.485 117.609 104.537 117.474 104.487C113.044 102.809 110.458 101.81 105.313 99.8208L105.074 99.7273C105.067 99.7239 105.063 99.7222 105.056 99.7188ZM129.26 85.1885C120.554 91.025 115.582 94.1186 105.91 99.3924C110.722 101.254 113.281 102.244 117.464 103.826C119.305 100.92 120.825 98.513 122.256 96.2401C124.535 92.6206 126.533 89.4548 129.26 85.1885Z" fill="#0E0E0E"/>
<path d="M130.163 84.4074C130.127 84.3905 130.094 84.3662 130.068 84.3361C129.982 84.2373 129.966 84.0905 130.038 83.9753C135.29 75.1641 137.754 71.1306 142.032 64.3635C142.1 64.2556 142.222 64.2004 142.343 64.2253C142.464 64.2501 142.558 64.3432 142.58 64.4662L144.723 76.5686C144.744 76.6952 144.689 76.8226 144.579 76.8883C139.518 79.9269 136.608 81.4695 130.42 84.4057C130.331 84.4452 130.239 84.4429 130.163 84.4074ZM142.119 65.3408C138.232 71.4977 135.794 75.4847 131.057 83.4284C136.552 80.8039 139.406 79.276 144.089 76.4708L142.119 65.3408Z" fill="#0E0E0E"/>
<path d="M105.056 99.7188C105.034 99.7087 105.01 99.6932 104.99 99.6793C104.899 99.6007 104.862 99.471 104.899 99.3533L105.384 97.8412C107.592 90.9556 108.928 86.8016 111.19 79.3649C111.237 79.2068 111.405 79.1136 111.562 79.1554C120.235 81.5069 123.96 82.4604 130.36 83.833C130.477 83.8562 130.569 83.953 130.588 84.0742C130.606 84.1954 130.558 84.3172 130.455 84.3863C120.809 90.8742 115.828 93.9991 105.325 99.7094C105.242 99.756 105.139 99.7577 105.056 99.7188ZM111.679 79.8225C109.468 87.0847 108.14 91.2201 105.957 98.023L105.701 98.8177C115.522 93.4605 120.486 90.3544 129.528 84.2824C123.255 82.9198 119.306 81.8887 111.679 79.8225Z" fill="#0E0E0E"/>
<path d="M105.056 99.7188C105.041 99.7121 105.027 99.7053 105.014 99.6948C100.944 96.8964 98.7071 95.3942 94.2141 92.3941C94.1303 92.337 94.08 92.246 94.0834 92.144C94.0814 92.0441 94.1299 91.9496 94.2114 91.8885C100.71 87.2244 104.151 84.6191 109.852 80.3031L111.299 79.2083C111.401 79.1301 111.545 79.1251 111.651 79.2014C111.756 79.2777 111.8 79.4108 111.763 79.5376C109.5 86.9781 108.167 91.1337 105.953 98.0213L105.469 99.5334C105.44 99.6235 105.37 99.6988 105.279 99.7329C105.207 99.7536 105.125 99.751 105.056 99.7188ZM94.9151 92.1221C99.0494 94.8874 101.266 96.3758 105.026 98.9578L105.385 97.8375C107.507 91.2314 108.82 87.1383 110.92 80.2474L110.21 80.7853C104.61 85.0268 101.189 87.6187 94.9151 92.1221Z" fill="#0E0E0E"/>
<path d="M79.5957 107.14C79.5666 107.126 79.5393 107.109 79.5155 107.084C72.521 100.356 68.882 96.8218 62.5802 90.0381C62.494 89.9484 62.4751 89.809 62.5321 89.6961C62.5892 89.5831 62.7065 89.5117 62.8289 89.5238C67.0064 89.8284 70.5348 90.1139 73.946 90.3854C80.1655 90.8858 86.0412 91.3564 94.4025 91.8291C94.5194 91.8341 94.6215 91.9087 94.6615 92.0219C94.7032 92.1314 94.6751 92.2579 94.5942 92.3462C88.2794 98.8792 85.3776 101.844 79.9288 107.079C79.8371 107.171 79.7045 107.19 79.5957 107.14ZM63.5556 90.1913C69.464 96.5304 73.0738 100.042 79.7258 106.444C84.9011 101.464 87.7889 98.5199 93.7021 92.4029C85.6789 91.9439 79.9454 91.481 73.8879 90.9931C70.6944 90.7377 67.3948 90.4732 63.5556 90.1913Z" fill="#0E0E0E"/>
<path d="M57.3189 101.88C57.2572 101.851 57.2059 101.8 57.1777 101.738C57.1402 101.657 57.1365 101.561 57.1761 101.476C58.9444 97.6267 60.0107 95.2739 61.7725 91.3724L62.5287 89.7035C62.5718 89.611 62.6567 89.5425 62.7571 89.5263C62.8574 89.51 62.9569 89.5429 63.0248 89.6151C69.3138 96.3883 72.9509 99.9168 79.9363 106.636C80.0334 106.731 80.0561 106.881 79.9902 107.004C79.9243 107.126 79.7853 107.187 79.6535 107.157C75.1197 106.101 71.6726 105.282 68.339 104.484C64.9081 103.667 61.6686 102.895 57.3821 101.896C57.3588 101.899 57.3406 101.89 57.3189 101.88ZM62.8868 90.3657L62.3202 91.6188C60.6081 95.4039 59.5576 97.7326 57.8753 101.388C61.9866 102.346 65.1431 103.097 68.482 103.893C71.5428 104.623 74.7029 105.376 78.7095 106.312C72.3451 100.184 68.7588 96.6788 62.8868 90.3657Z" fill="#0E0E0E"/>
<path d="M111.348 79.7267C111.287 79.698 111.235 79.647 111.207 79.5844C111.168 79.5075 111.168 79.413 111.2 79.3336C112.887 75.2529 113.951 72.6109 115.179 69.5503C115.628 68.4359 116.103 67.257 116.645 65.9157C116.686 65.8178 116.773 65.7456 116.878 65.7274C116.984 65.7091 117.089 65.7491 117.153 65.8287C123.244 73.1127 126.182 76.9458 130.548 83.961C130.611 84.0625 130.61 84.1971 130.536 84.2979C130.467 84.4004 130.342 84.4503 130.226 84.4234C123.461 82.9708 119.492 81.935 111.397 79.736C111.377 79.7403 111.363 79.7335 111.348 79.7267ZM117.012 66.6139C116.548 67.7616 116.132 68.7966 115.736 69.7781C114.536 72.7577 113.494 75.3425 111.887 79.244C120.007 81.4458 123.752 82.404 129.649 83.6815C125.591 77.2012 122.693 73.414 117.012 66.6139Z" fill="#0E0E0E"/>
<path d="M130.163 84.4074C130.054 84.3567 129.987 84.2444 129.992 84.1206C130.267 78.2068 130.317 75.2675 130.061 69.5288C130.055 69.3998 130.133 69.2788 130.254 69.2273C135.225 67.1868 137.678 66.1605 142.177 64.242C142.298 64.1905 142.437 64.2238 142.521 64.3264C142.606 64.4289 142.614 64.5723 142.543 64.6875C138.269 71.4473 135.807 75.477 130.556 84.2845C130.483 84.4035 130.342 84.4594 130.208 84.424C130.188 84.4193 130.174 84.4125 130.163 84.4074ZM130.67 69.7093C130.9 74.936 130.873 77.8545 130.648 82.9498C135.28 75.1863 137.713 71.2103 141.512 65.1839C137.607 66.8432 135.177 67.8579 130.67 69.7093Z" fill="#0E0E0E"/>
<path d="M130.163 84.4074C130.112 84.3837 130.068 84.3452 130.039 84.2954C125.695 77.3084 122.768 73.4895 116.698 66.2285C116.613 66.1259 116.605 65.9825 116.676 65.8673C116.747 65.752 116.883 65.6981 117.008 65.7338L119.069 66.2854C123.436 67.4528 126.072 68.1552 130.437 69.2136C130.565 69.2418 130.658 69.3568 130.666 69.4912C130.925 75.2535 130.875 78.2018 130.598 84.1375C130.593 84.2705 130.5 84.3847 130.373 84.4201C130.297 84.4428 130.225 84.4362 130.163 84.4074ZM117.774 66.5727C123.217 73.1045 126.093 76.8725 130.032 83.1442C130.266 77.9358 130.298 75.0244 130.067 69.7522C125.821 68.7224 123.201 68.0231 118.901 66.8733L117.774 66.5727Z" fill="#0E0E0E"/>
<path d="M94.254 92.4127C94.2178 92.3958 94.1849 92.3715 94.1556 92.3397C94.0544 92.2251 94.0564 92.0504 94.1601 91.9321C99.136 86.3192 102.814 81.9922 106.368 77.8096C109.635 73.9663 112.72 70.335 116.699 65.8283C116.795 65.7157 116.96 65.6936 117.084 65.7693C117.208 65.845 117.257 66.0033 117.203 66.1398C116.661 67.4811 116.186 68.6601 115.737 69.7744C114.505 72.8334 113.44 75.4791 111.757 79.5615C111.736 79.6149 111.703 79.6579 111.657 79.6905L110.21 80.7853C104.504 85.1033 101.061 87.7122 94.5554 92.3821C94.4615 92.4509 94.3484 92.4567 94.254 92.4127ZM115.988 67.5502C112.559 71.4574 109.762 74.7458 106.823 78.2065C103.704 81.8755 100.491 85.6587 96.3858 90.3226C101.55 86.5892 104.821 84.1118 109.852 80.3031L111.231 79.2579C112.897 75.2216 113.954 72.5944 115.178 69.554C115.437 68.9137 115.706 68.2513 115.988 67.5502Z" fill="#0E0E0E"/>
<path d="M62.6732 90.104C62.5825 90.0617 62.5178 89.973 62.505 89.868C62.4878 89.7249 62.5696 89.5874 62.7034 89.5373C72.3203 85.9533 77.2879 84.1185 87.3411 80.4229C87.475 80.3727 87.627 80.4256 87.6977 80.5487C89.4533 83.4519 90.6678 85.4411 91.9977 87.628C92.7908 88.9299 93.6229 90.2994 94.6408 91.9717C94.6983 92.0661 94.6972 92.1916 94.6434 92.2881C94.5842 92.3866 94.4775 92.4449 94.366 92.4379C85.9956 91.9656 80.1181 91.4895 73.8968 90.9928C70.4873 90.7177 66.9609 90.4375 62.7834 90.1329C62.7402 90.1307 62.7058 90.1192 62.6732 90.104ZM87.3057 81.0862C77.8715 84.5528 72.9183 86.3853 64.2113 89.6281C67.7968 89.8953 70.9182 90.1442 73.9443 90.3891C80.0197 90.8764 85.7622 91.339 93.8196 91.8004C92.941 90.3506 92.1944 89.129 91.4812 87.959C90.1811 85.8219 88.9961 83.8736 87.3057 81.0862Z" fill="#0E0E0E"/>
<path d="M94.254 92.4127C94.2033 92.389 94.1557 92.3488 94.126 92.2989C93.1082 90.6267 92.276 89.2571 91.483 87.9553C90.1531 85.7683 88.9385 83.7792 87.1829 80.8759C87.1383 80.8011 87.1258 80.7142 87.1512 80.6315C87.1765 80.5487 87.2308 80.4795 87.3109 80.4403L91.815 78.1598C101.382 73.3098 107.155 70.3827 116.803 65.7555C116.933 65.6945 117.089 65.7309 117.172 65.8462C117.255 65.9616 117.245 66.1238 117.151 66.2326C113.174 70.7356 110.091 74.3632 106.825 78.2028C103.27 82.3891 99.5914 86.7161 94.6084 92.3348C94.5433 92.408 94.4506 92.4458 94.357 92.4382C94.3174 92.4377 94.2831 92.4262 94.254 92.4127ZM87.8687 80.8355C89.5331 83.5837 90.7088 85.5142 91.996 87.6317C92.7351 88.8408 93.5078 90.1107 94.4292 91.6299C99.2696 86.1653 102.88 81.919 106.366 77.8133C109.36 74.2925 112.2 70.9479 115.712 66.9487C106.857 71.2117 101.183 74.0862 92.0684 78.7057L87.8687 80.8355Z" fill="#0E0E0E"/>
<path d="M57.3189 101.88C57.2028 101.826 57.1338 101.699 57.151 101.568C58.3252 92.3718 59.2736 86.6818 61.5743 75.0893C61.6055 74.9372 61.7436 74.8305 61.893 74.8417C62.046 74.8545 62.1653 74.9776 62.17 75.1284C62.3965 81.0647 62.5606 84.0183 63.1002 89.7944C63.1067 89.8469 63.0951 89.9001 63.0746 89.9535L62.3184 91.6225C60.5566 95.524 59.4886 97.8805 57.7203 101.729C57.6565 101.866 57.5034 101.939 57.3641 101.897C57.3479 101.894 57.3334 101.887 57.3189 101.88ZM61.6709 77.7142C59.8812 86.866 58.9807 92.2543 58.0035 99.6824C59.3202 96.8115 60.3054 94.6324 61.7744 91.3778L62.4961 89.7828C62.043 84.9295 61.8518 82.0623 61.6709 77.7142Z" fill="#0E0E0E"/>
<path d="M62.6732 90.104C62.6623 90.0989 62.6514 90.0939 62.6422 90.0851C62.564 90.0351 62.5138 89.9532 62.5048 89.8589C61.9631 84.0683 61.797 81.1093 61.5721 75.1603C61.5667 75.0677 61.6098 74.9753 61.6787 74.9128C61.7512 74.8521 61.8441 74.8234 61.9362 74.8438C69.6769 76.3822 74.7228 77.524 82.3629 79.2497C83.9498 79.6069 85.6505 79.9947 87.5135 80.4133C87.6453 80.4432 87.7391 80.5545 87.7455 80.6925C87.7535 80.8268 87.6679 80.9535 87.5448 80.9996C77.4969 84.6933 72.5257 86.5264 62.9124 90.112C62.8285 90.1404 62.7457 90.1378 62.6732 90.104ZM62.1867 75.5189C62.4001 81.0664 62.5658 84.0072 63.0656 89.4045C72.133 86.0236 77.0791 84.1968 86.3651 80.7827C84.8902 80.4507 83.5163 80.1387 82.2182 79.8441C74.7082 78.152 69.711 77.0194 62.1867 75.5189Z" fill="#0E0E0E"/>
<path d="M87.3092 80.9934C87.2294 80.9561 87.1705 80.8836 87.1454 80.7954C86.1641 76.961 85.6396 74.8749 84.7708 71.4622L84.4825 70.3282C84.4593 70.2453 84.4755 70.1538 84.5226 70.0812C84.5697 70.0086 84.646 69.9587 84.732 69.9448C95.374 68.3112 101.922 67.5286 110.213 66.5322C112.286 66.2831 114.479 66.0225 116.887 65.7271C117.032 65.7093 117.171 65.8008 117.21 65.945C117.248 66.0891 117.178 66.2407 117.046 66.3054C107.408 70.9286 101.635 73.8557 92.0701 78.702L87.566 80.9825C87.4878 81.0271 87.3944 81.0286 87.3092 80.9934ZM85.1544 70.4974L85.3589 71.2997C86.195 74.6026 86.7172 76.6651 87.6402 80.2742L91.815 78.1598C100.82 73.5969 106.464 70.7362 115.14 66.5559C113.432 66.7631 111.827 66.9558 110.288 67.1389C102.083 68.1214 95.5887 68.902 85.1544 70.4974Z" fill="#0E0E0E"/>
<path d="M87.3092 80.9934C87.2802 80.9798 87.2529 80.9626 87.2327 80.9397L84.1594 78.0208C80.5678 74.6125 77.9744 72.1515 73.9815 68.259C73.8844 68.1642 73.8636 68.0194 73.9258 67.8954C73.99 67.7767 74.1235 67.7084 74.2553 67.7383C78.1801 68.5374 80.3513 68.9961 84.2912 69.8292L84.8453 69.948C84.9572 69.9732 85.0416 70.0576 85.0706 70.1657L85.3589 71.2997C86.2223 74.7144 86.7486 76.7968 87.7299 80.6312C87.7612 80.7629 87.7047 80.9031 87.5892 80.9708C87.5004 81.0285 87.3963 81.034 87.3092 80.9934ZM75.1464 68.5456C78.7232 72.0234 81.2086 74.3845 84.5712 77.5734L86.8825 79.7678C86.0628 76.5626 85.5578 74.5576 84.7708 71.4622L84.531 70.5084L84.1574 70.4287C80.5749 69.6722 78.4524 69.2227 75.1464 68.5456Z" fill="#0E0E0E"/>
<path d="M61.7409 75.4236C61.6538 75.383 61.5874 75.298 61.5729 75.1966C61.5524 75.07 61.6093 74.948 61.7195 74.8823C66.4996 72.0191 68.9518 70.5871 74.0473 67.7674C74.1647 67.7051 74.307 67.7219 74.4005 67.8151C78.3898 71.7059 80.9832 74.1669 84.5729 77.5697L87.6462 80.4886C87.7433 80.5834 87.7678 80.7299 87.7019 80.8523C87.636 80.9746 87.5006 81.0376 87.3688 81.0076C85.5058 80.5891 83.8051 80.2013 82.2182 79.8441C74.5871 78.1181 69.5448 76.978 61.8077 75.4412C61.7862 75.4402 61.7627 75.4337 61.7409 75.4236ZM74.1355 68.4119C69.424 71.0235 66.9788 72.4406 62.7031 74.9988C70.0163 76.4594 74.9774 77.5842 82.3576 79.2517C83.6321 79.5398 84.9789 79.8437 86.425 80.1713L84.1558 78.0191C80.6136 74.6564 78.0368 72.2166 74.1355 68.4119Z" fill="#0E0E0E"/>
<path d="M116.793 66.3088C116.709 66.2699 116.647 66.1957 116.629 66.1018C116.605 65.9916 116.64 65.8776 116.723 65.8038C121.737 61.2935 124.155 59.2062 128.562 55.7322C128.645 55.6674 128.754 55.6508 128.852 55.6874C128.95 55.724 129.021 55.807 129.038 55.9137C129.985 60.948 130.313 63.7394 130.653 69.4898C130.66 69.5878 130.617 69.6802 130.543 69.7446C130.469 69.8091 130.37 69.8307 130.278 69.8103C125.906 68.7486 123.266 68.0444 118.898 66.8807L116.84 66.3308C116.827 66.3203 116.811 66.3173 116.793 66.3088ZM128.545 56.5167C124.513 59.7065 122.12 61.7694 117.544 65.8805L119.068 66.2891C123.297 67.4195 125.906 68.1138 130.035 69.1204C129.715 63.8568 129.392 61.1034 128.545 56.5167Z" fill="#0E0E0E"/>
<path d="M130.228 69.7866C130.217 69.7815 130.206 69.7765 130.197 69.7677C130.115 69.716 130.063 69.6287 130.059 69.5324C129.724 63.811 129.392 61.036 128.453 56.0324C128.432 55.9149 128.48 55.7932 128.579 55.7224C128.679 55.6517 128.804 55.6473 128.908 55.7091C134.756 59.2328 137.669 61.0733 142.456 64.2686C142.547 64.3291 142.597 64.4383 142.589 64.5513C142.58 64.6644 142.505 64.7598 142.403 64.807C137.901 66.7238 135.448 67.7501 130.476 69.7943C130.39 69.8264 130.304 69.8221 130.228 69.7866ZM129.168 56.5822C129.997 61.084 130.319 63.8501 130.632 69.0703C135.155 67.2129 137.585 66.1982 141.644 64.4662C137.296 61.5702 134.441 59.7659 129.168 56.5822Z" fill="#0E0E0E"/>
<path d="M61.7409 75.4236L61.7373 75.4219C61.6466 75.3796 61.5873 75.2889 61.5727 75.1876C60.8619 69.3902 60.5975 66.5474 60.1566 60.9479C60.1472 60.8354 60.2009 60.7299 60.293 60.6648C60.3835 60.6034 60.502 60.5956 60.6018 60.6467C65.6069 63.2778 68.4178 64.7326 74.333 67.761C74.4328 67.8121 74.4959 67.9136 74.4964 68.0263C74.4968 68.1391 74.4342 68.245 74.3382 68.2993C69.2497 71.1133 66.8029 72.5432 62.0281 75.4044C61.9357 75.4604 61.828 75.4642 61.7409 75.4236ZM60.7991 61.4456C61.2011 66.5317 61.4669 69.3526 62.112 74.6466C66.4801 72.0325 68.9198 70.6083 73.5406 68.0489C68.1574 65.2911 65.3683 63.8464 60.7991 61.4456Z" fill="#0E0E0E"/>
<path d="M74.058 68.3127C74.0544 68.311 74.0508 68.3093 74.0472 68.3076C68.1337 65.2755 65.3175 63.8227 60.3141 61.1879C60.2288 61.1436 60.1714 61.0583 60.1587 60.9624C60.146 60.8664 60.1783 60.7689 60.2469 60.6973C63.8274 57.1486 65.6194 55.4179 69.186 52.1643C69.2636 52.0925 69.3691 52.0651 69.4704 52.0943C69.5679 52.1218 69.6467 52.1991 69.6757 52.2981C71.4527 58.3946 72.4362 61.6087 74.4747 67.9307C74.513 68.0476 74.4742 68.1781 74.3841 68.2576C74.2942 68.3463 74.1669 68.3635 74.058 68.3127ZM60.9651 60.8431C65.5581 63.2595 68.3416 64.6971 73.6777 67.433C71.838 61.717 70.8641 58.5299 69.2355 52.9484C66.0009 55.8974 64.2248 57.6131 60.9651 60.8431Z" fill="#0E0E0E"/>
<path d="M74.058 68.3127C73.9855 68.2789 73.9268 68.2155 73.9018 68.1363C71.8631 61.8052 70.8724 58.5878 69.0971 52.4876C69.0701 52.3939 69.0878 52.2896 69.1509 52.211C69.2105 52.1307 69.3049 52.0892 69.4056 52.0911C75.3381 52.3451 78.4968 52.5709 84.7689 53.1859C84.8787 53.1966 84.97 53.2661 85.0115 53.3665C85.053 53.4669 85.0391 53.582 84.9744 53.6734C81.0821 58.9137 78.7733 62.0559 74.4336 68.2177C74.3672 68.3128 74.2567 68.3603 74.145 68.3442C74.1142 68.3344 74.0871 68.3263 74.058 68.3127ZM69.7972 52.7195C71.4432 58.3677 72.4244 61.5582 74.2947 67.3695C78.2971 61.6943 80.5707 58.5897 84.1741 53.7415C78.4064 53.1816 75.2782 52.9566 69.7972 52.7195Z" fill="#0E0E0E"/>
<path d="M84.6517 70.5242C84.5937 70.4971 84.5443 70.4515 84.5124 70.3872C84.4545 70.2746 84.4769 70.132 84.5649 70.0379L85.2743 69.2837C93.1239 60.918 97.0637 56.7219 103.981 50.2223C104.043 50.1656 104.12 50.1338 104.201 50.14C104.283 50.1426 104.358 50.1818 104.409 50.2419C109.69 56.2974 112.322 59.4064 117.164 65.8429C117.229 65.9316 117.242 66.0457 117.199 66.1472C117.156 66.2488 117.062 66.3175 116.953 66.3341C114.545 66.6295 112.352 66.8901 110.279 67.1392C101.994 68.1336 95.4489 68.9179 84.8175 70.5474C84.7602 70.5567 84.7025 70.5478 84.6517 70.5242ZM104.154 50.8838C97.3922 57.2488 93.4558 61.4374 85.7014 69.7034L85.5958 69.8162C95.7363 68.273 102.152 67.5006 110.217 66.5339C112.136 66.3029 114.16 66.0628 116.362 65.7928C111.796 59.7377 109.176 56.6428 104.154 50.8838Z" fill="#0E0E0E"/>
<path d="M116.793 66.3088C116.749 66.2885 116.711 66.2571 116.681 66.2163C111.849 59.794 109.222 56.6958 103.95 50.649C103.864 50.5502 103.852 50.4051 103.918 50.2918C103.984 50.1786 104.118 50.1193 104.246 50.1475C107.041 50.7844 109.46 51.3362 111.69 51.8492C117.503 53.1823 122.092 54.2328 128.81 55.6725C128.926 55.6994 129.014 55.7854 129.04 55.9009C129.065 56.0164 129.023 56.1362 128.927 56.2086C124.529 59.6732 122.122 61.7566 117.119 66.2537C117.057 66.3104 116.973 66.3389 116.888 66.3309C116.858 66.3302 116.825 66.324 116.793 66.3088ZM105.027 50.9532C109.834 56.4724 112.442 59.575 116.971 65.5859C121.63 61.401 124.031 59.3196 128.056 56.1355C121.672 54.766 117.187 53.7373 111.552 52.447C109.57 51.9908 107.439 51.5016 105.027 50.9532Z" fill="#0E0E0E"/>
<path d="M74.058 68.3127C73.9891 68.2806 73.9323 68.2225 73.9056 68.1471C73.8696 68.0538 73.8818 67.9424 73.9431 67.8584C78.2845 61.6929 80.595 58.547 84.489 53.303C84.5679 53.2002 84.7 53.1537 84.823 53.1931C84.9423 53.2307 85.0291 53.3477 85.0316 53.475C85.1203 59.356 85.1075 62.6323 85.0844 68.5828L85.0793 70.2418C85.0794 70.3364 85.0397 70.4214 84.9672 70.4822C84.8947 70.5429 84.8017 70.5625 84.7132 70.5438L84.1591 70.425C80.2192 69.5918 78.048 69.1332 74.1285 68.3321C74.1016 68.333 74.0798 68.3229 74.058 68.3127ZM84.4419 54.3796C80.9384 59.0988 78.6718 62.1977 74.7028 67.8299C78.348 68.5752 80.5029 69.0308 84.2895 69.8329L84.4789 69.8718L84.4843 68.5911C84.5081 62.9516 84.5199 59.7154 84.4419 54.3796Z" fill="#0E0E0E"/>
<path d="M84.6517 70.5242C84.5465 70.4751 84.4815 70.3682 84.4792 70.2501L84.4843 68.5911C84.5093 62.646 84.5204 59.3734 84.4299 53.4961C84.4288 53.347 84.534 53.2159 84.6755 53.1873C92.5292 51.6133 96.429 51.0455 104.15 50.1436C104.281 50.1281 104.403 50.1984 104.458 50.3184C104.512 50.4383 104.482 50.5776 104.387 50.6682C97.4856 57.1527 93.5475 61.3451 85.7067 69.7014L84.9973 70.4556C84.911 70.546 84.7822 70.576 84.6662 70.5309C84.6626 70.5292 84.6554 70.5259 84.6517 70.5242ZM85.0368 53.7385C85.1206 59.4597 85.1076 62.7269 85.0863 68.5881L85.0824 69.4868L85.2673 69.2894C92.8599 61.2001 96.7943 57.006 103.304 50.8609C96.2709 51.6877 92.3929 52.2656 85.0368 53.7385Z" fill="#0E0E0E"/>
<path d="M104.052 50.7237C103.969 50.6847 103.908 50.6069 103.886 50.5112C103.861 50.3957 103.907 50.2777 103.999 50.2035C108.675 46.5309 110.949 44.8851 115.191 42.3518C115.306 42.2841 115.447 42.2955 115.545 42.3867C121.411 47.7287 124.174 50.4129 128.974 55.7577C129.06 55.8565 129.077 55.9996 129.01 56.1166C128.942 56.2336 128.814 56.2908 128.684 56.2663C121.964 54.8303 117.367 53.7764 111.554 52.4433C109.324 51.9303 106.908 51.3802 104.11 50.7416C104.088 50.7406 104.07 50.7321 104.052 50.7237ZM115.3 42.9973C111.362 45.3526 109.12 46.9682 104.872 50.2911C107.409 50.8661 109.635 51.3773 111.697 51.8525C117.239 53.1224 121.672 54.1402 127.895 55.4754C123.528 50.652 120.778 47.9873 115.3 42.9973Z" fill="#0E0E0E"/>
<path d="M128.617 56.2486C128.58 56.2317 128.548 56.2074 128.522 56.1774C123.741 50.8501 120.987 48.1746 115.136 42.8485C115.042 42.7644 115.013 42.6291 115.059 42.511C115.105 42.393 115.221 42.3162 115.348 42.3172C121.774 42.4411 124.961 42.6259 130.725 43.0804C130.887 43.0929 131.006 43.2343 130.997 43.3965C130.788 47.2344 130.324 49.9172 129.04 56.0319C129.019 56.1436 128.933 56.2339 128.824 56.2686C128.754 56.2856 128.682 56.2791 128.617 56.2486ZM116.144 42.9405C121.448 47.782 124.176 50.4456 128.575 55.3243C129.73 49.807 130.175 47.1868 130.382 43.6636C125.061 43.2444 121.918 43.0618 116.144 42.9405Z" fill="#0E0E0E"/>
<path d="M128.617 56.2486C128.58 56.2317 128.548 56.2074 128.522 56.1774C128.458 56.1069 128.434 56.0058 128.452 55.9106C129.732 49.8306 130.194 47.1643 130.4 43.3701C130.406 43.2335 130.504 43.1173 130.639 43.0853C130.773 43.0533 130.907 43.1159 130.97 43.2355L137.089 54.9585C137.136 55.0478 137.134 55.1551 137.087 55.2459C137.041 55.3367 136.95 55.398 136.85 55.4052L135.707 55.5253C133.281 55.785 131.679 55.9521 128.784 56.2682C128.722 56.2795 128.668 56.2723 128.617 56.2486ZM130.932 44.4828C130.699 47.7013 130.227 50.3717 129.126 55.6214C131.773 55.334 133.335 55.1665 135.645 54.92L136.337 54.8466L130.932 44.4828Z" fill="#0E0E0E"/>
<path d="M142.153 64.8031C142.139 64.7963 142.128 64.7912 142.115 64.7808C137.34 61.5905 134.433 59.7534 128.593 56.2331C128.482 56.1679 128.429 56.0351 128.459 55.9049C128.489 55.7747 128.595 55.6801 128.726 55.6646C131.624 55.3501 133.227 55.1793 135.654 54.9196L136.797 54.7996C136.913 54.7864 137.024 54.8425 137.085 54.9477L142.551 64.3671C142.622 64.4902 142.598 64.6456 142.495 64.742C142.397 64.8309 142.262 64.8538 142.153 64.8031ZM129.679 56.1768C134.583 59.1389 137.395 60.9137 141.361 63.5467L136.653 55.4303L135.7 55.531C133.539 55.7614 132.034 55.9196 129.679 56.1768Z" fill="#0E0E0E"/>
<path d="M48.6704 72.0166C48.5906 71.9794 48.5316 71.9069 48.5102 71.8204C48.4811 71.7123 48.5129 71.5966 48.5977 71.519C53.0994 67.1977 55.4143 65.0084 60.263 60.6913C60.3477 60.6138 60.4678 60.5932 60.5764 60.6349C60.6834 60.6802 60.7535 60.776 60.7629 60.8884C61.2 66.4772 61.4661 69.3162 62.1748 75.0992C62.1894 75.2005 62.1465 75.302 62.0705 75.3702C61.9946 75.4383 61.8872 75.4603 61.7932 75.4345C56.0498 73.8278 53.3595 73.1091 48.7336 72.0326C48.7067 72.0336 48.6885 72.0251 48.6704 72.0166ZM60.2026 61.5501C55.8081 65.4712 53.5071 67.64 49.4129 71.5705C53.6092 72.5547 56.285 73.2667 61.5169 74.7293C60.8683 69.4427 60.6024 66.6127 60.2026 61.5501Z" fill="#0E0E0E"/>
<path d="M48.6704 72.0166C48.5833 71.976 48.5169 71.8911 48.5006 71.7934C47.8541 67.8 47.6089 65.7495 47.3159 61.8219C47.3037 61.6586 47.4195 61.5145 47.5754 61.4927C52.1469 60.8104 54.8025 60.6754 60.4574 60.6154C60.5814 60.6147 60.6961 60.6907 60.738 60.8093C60.7799 60.9279 60.7484 61.0617 60.6512 61.147C55.8113 65.4547 53.4964 67.644 49.0018 71.9596C48.9206 72.0388 48.8025 72.0648 48.6994 72.0302C48.6922 72.0268 48.6813 72.0217 48.6704 72.0166ZM47.9369 62.0529C48.2122 65.6302 48.4391 67.5685 49.0033 71.1228C53.0498 67.2376 55.3508 65.0689 59.6482 61.2331C54.6799 61.2982 52.0876 61.4491 47.9369 62.0529Z" fill="#0E0E0E"/>
<path d="M47.4862 62.0724C47.4136 62.0385 47.3549 61.9751 47.33 61.896C47.2841 61.7575 47.3422 61.6045 47.4684 61.5328C54.9749 57.1989 59.4642 55.2626 69.2963 52.1077C69.432 52.0629 69.5769 52.1215 69.6476 52.2446C69.7184 52.3676 69.6891 52.525 69.5868 52.6214C66.0273 55.8692 64.237 57.5963 60.6653 61.1356C60.6089 61.1903 60.5323 61.2221 60.4568 61.2229C54.8324 61.2837 52.1948 61.418 47.6574 62.0937C47.5947 62.105 47.537 62.0961 47.4862 62.0724ZM68.1568 53.1117C59.8561 55.8146 55.4788 57.6905 49.1365 61.2706C52.7916 60.7823 55.4315 60.6716 60.3334 60.6161C63.4997 57.4821 65.2668 55.7667 68.1568 53.1117Z" fill="#0E0E0E"/>
<path d="M57.3225 101.882C57.2463 101.846 57.1857 101.777 57.1606 101.689C55.166 94.2215 54.3372 89.9179 53.3032 81.669C53.2904 81.564 53.3331 81.4533 53.4181 81.3849C56.5948 78.8726 58.2779 77.5458 61.6875 74.9034C61.7902 74.8252 61.9249 74.8205 62.0286 74.8824C62.1342 74.9496 62.1869 75.0733 62.1642 75.1977C59.8668 86.7738 58.9181 92.4547 57.7472 101.634C57.7285 101.778 57.6139 101.891 57.4667 101.904C57.4184 101.913 57.366 101.902 57.3225 101.882ZM53.9214 81.7547C54.8696 89.2971 55.652 93.5296 57.3491 100.035C58.4078 91.9106 59.3579 86.3023 61.4191 75.8768C58.4662 78.1649 56.8114 79.4688 53.9214 81.7547Z" fill="#0E0E0E"/>
<path d="M53.4732 81.9013C53.4115 81.8726 53.3638 81.8233 53.3302 81.7627L48.5275 71.878C48.4751 71.7725 48.4905 71.6446 48.5642 71.5529C48.6379 71.4612 48.7556 71.417 48.8712 71.4439C53.5043 72.5238 56.2036 73.2422 61.9543 74.8522C62.0645 74.8811 62.1454 74.9728 62.1674 75.0867C62.1894 75.2005 62.1432 75.3185 62.0529 75.389C58.6451 78.0276 56.9673 79.3524 53.7869 81.863C53.7162 81.9201 53.6231 81.9397 53.5347 81.921C53.5094 81.9183 53.4913 81.9098 53.4732 81.9013ZM49.3513 72.1856L53.7101 81.1564C56.5523 78.9068 58.2125 77.6008 61.2061 75.2823C56.1132 73.8529 53.4519 73.1477 49.3513 72.1856Z" fill="#0E0E0E"/>
<path d="M104.052 50.7237C103.998 50.6983 103.954 50.6598 103.924 50.6099C102.044 47.5 101.085 45.9858 99.0581 42.8974C98.9988 42.8067 98.9928 42.6869 99.043 42.5887C99.0932 42.4906 99.1944 42.4252 99.3021 42.4214C105.885 42.1324 109.083 42.1421 115.355 42.3115C115.49 42.3158 115.602 42.4084 115.637 42.5417C115.668 42.6734 115.611 42.8136 115.496 42.8813C111.282 45.3918 109.023 47.0353 104.37 50.6871C104.301 50.7404 104.215 50.7634 104.13 50.7464C104.099 50.7456 104.074 50.7338 104.052 50.7237ZM99.8546 43.0077C101.632 45.7138 102.58 47.223 104.263 49.9978C108.426 46.7343 110.679 45.0928 114.292 42.8963C108.867 42.7572 105.698 42.761 99.8546 43.0077Z" fill="#0E0E0E"/>
<path d="M115.21 42.8968C115.138 42.863 115.083 42.8012 115.056 42.7258C115.014 42.6072 115.049 42.475 115.147 42.3897C117.597 40.2594 118.674 39.4377 120.641 38.2028C120.73 38.1451 120.845 38.1447 120.936 38.187C125.029 40.2534 127.098 41.2722 130.835 43.1093C130.964 43.1739 131.031 43.3225 130.991 43.4658C130.951 43.6091 130.82 43.701 130.674 43.6915C124.924 43.2347 121.741 43.0516 115.331 42.9307C115.286 42.9232 115.247 42.9137 115.21 42.8968ZM120.809 38.808C119.13 39.8709 118.092 40.6476 116.134 42.3278C121.452 42.4397 124.543 42.6023 129.133 42.9507C126.271 41.5486 124.264 40.5495 120.809 38.808Z" fill="#0E0E0E"/>
<path d="M99.1806 43.004C99.0899 42.9618 99.0216 42.8714 99.0105 42.7626C98.9948 42.6068 99.0997 42.4576 99.2555 42.4266L120.745 38.161C120.886 38.1324 121.03 38.2128 121.081 38.3493C121.132 38.4857 121.081 38.6421 120.957 38.7192C119.022 39.933 117.959 40.7432 115.537 42.8508C115.478 42.9001 115.403 42.9282 115.33 42.9254C109.075 42.7554 105.883 42.7436 99.3177 43.032C99.2675 43.0356 99.2205 43.0227 99.1806 43.004ZM119.317 39.0622L103.138 42.2742C107.365 42.1423 110.379 42.1749 115.237 42.3102C117.027 40.7541 118.081 39.9041 119.317 39.0622Z" fill="#0E0E0E"/>
<path d="M84.6006 53.7647C84.5389 53.736 84.4839 53.6833 84.4538 53.6153C84.3974 53.4899 84.4339 53.3359 84.5418 53.2466C90.6879 48.2783 93.6612 46.0223 99.1431 42.4688C99.2816 42.3803 99.4638 42.4157 99.5545 42.5526C101.587 45.648 102.544 47.166 104.434 50.2847C104.489 50.3737 104.491 50.4827 104.447 50.5789C104.402 50.675 104.311 50.7364 104.207 50.7509C96.5038 51.6522 92.6148 52.216 84.7843 53.7874C84.7216 53.7987 84.6586 53.7918 84.6006 53.7647ZM99.2175 43.1428C94.2042 46.4016 91.2819 48.5958 85.8785 52.9469C92.7964 51.5803 96.6604 51.0228 103.675 50.1966C102 47.4434 101.048 45.9325 99.2175 43.1428Z" fill="#0E0E0E"/>
<path d="M67.1185 119.273C67.0713 119.251 67.0274 119.212 66.9996 119.168C62.5847 112.552 60.5677 108.969 57.1794 101.734C57.1306 101.63 57.1461 101.502 57.2198 101.411C57.2935 101.319 57.4112 101.275 57.525 101.305C61.8132 102.301 65.0564 103.075 68.4873 103.891C71.8226 104.686 75.268 105.509 79.7982 106.563C79.9065 106.587 79.9872 106.669 80.0144 106.772C80.0452 106.876 80.0151 106.988 79.9412 107.071C74.4758 112.834 71.9022 115.398 67.4411 119.225C67.3757 119.28 67.2881 119.307 67.2052 119.295C67.1747 119.294 67.1475 119.286 67.1185 119.273ZM57.9925 102.046C61.1568 108.766 63.1641 112.314 67.3126 118.544C71.4977 114.939 74.0449 112.403 79.1426 107.041C74.8598 106.043 71.5444 105.254 68.3373 104.488C65.0743 103.709 61.9774 102.972 57.9925 102.046Z" fill="#0E0E0E"/>
<path d="M69.8559 125.943C69.7942 125.914 69.7428 125.863 69.7146 125.8C68.5334 123.314 67.9935 121.999 66.9678 119.103C66.924 118.979 66.9609 118.843 67.0653 118.761C67.1661 118.678 67.3062 118.671 67.4171 118.736L68.8912 119.667C75.503 123.844 79.4959 126.363 86.2819 130.811C86.4075 130.892 86.4522 131.061 86.3848 131.197C86.3156 131.335 86.1605 131.403 86.0194 131.355C82.2438 130.103 79.548 129.197 76.57 128.196C74.5997 127.534 72.5045 126.827 69.8939 125.956C69.874 125.951 69.8667 125.948 69.8559 125.943ZM67.8302 119.726C68.655 122.002 69.1869 123.276 70.2031 125.416C72.7595 126.27 74.8203 126.966 76.7599 127.618C79.1156 128.41 81.2957 129.143 83.9715 130.035C78.3292 126.355 74.5038 123.941 68.56 120.188L67.8302 119.726Z" fill="#0E0E0E"/>
<path d="M77.0056 133.532C76.9766 133.518 76.9457 133.499 76.9218 133.475C73.9729 130.573 72.4989 129.008 69.7574 125.87C69.6673 125.769 69.6589 125.617 69.7357 125.5C69.8125 125.382 69.9553 125.332 70.0838 125.378C72.6944 126.249 74.7896 126.956 76.7599 127.618C79.7379 128.619 82.432 129.529 86.2094 130.777C86.336 130.818 86.4193 130.943 86.413 131.079C86.4067 131.216 86.3083 131.332 86.1778 131.366L77.2001 133.55C77.1357 133.565 77.0637 133.559 77.0056 133.532ZM70.9595 126.313C73.2188 128.875 74.6117 130.34 77.2272 132.915L85.0046 131.021C81.7427 129.937 79.2677 129.107 76.561 128.196C74.8693 127.628 73.0872 127.026 70.9595 126.313Z" fill="#0E0E0E"/>
<path d="M70.9189 133.57C70.8282 133.528 70.7655 133.445 70.749 133.338L69.6859 125.711C69.6689 125.577 69.7382 125.447 69.8593 125.386C69.9786 125.329 70.1247 125.357 70.2111 125.456C72.9729 128.616 74.3734 130.103 77.3462 133.029C77.4342 133.115 77.4602 133.248 77.4121 133.361C77.3676 133.475 77.2523 133.552 77.1319 133.555L71.0435 133.597C71.0022 133.6 70.9589 133.589 70.9189 133.57ZM70.4229 126.631L71.3083 132.991L76.3958 132.955C74.0202 130.604 72.6013 129.101 70.4229 126.631Z" fill="#0E0E0E"/>
<path d="M56.156 119.69C56.029 119.63 55.9616 119.491 55.9912 119.352C56.0225 119.209 56.1445 119.108 56.2865 119.107C60.6785 119.074 62.8246 118.99 67.2311 118.69C67.3639 118.68 67.4859 118.759 67.5315 118.889C68.5533 121.765 69.0857 123.067 70.2557 125.53C70.3119 125.647 70.2877 125.784 70.196 125.876C70.1044 125.969 69.9683 125.995 69.8522 125.941C64.461 123.418 61.6427 122.131 56.156 119.69ZM67.0403 119.317C63.3051 119.57 61.1106 119.663 57.6894 119.707C62.1245 121.685 64.8558 122.931 69.3473 125.035C68.4352 123.07 67.9098 121.762 67.0403 119.317Z" fill="#0E0E0E"/>
<path d="M70.9189 133.57C70.9153 133.569 70.9117 133.567 70.9081 133.565C68.1627 132.15 65.7958 131.06 63.2875 129.913C61.3705 129.032 59.3917 128.123 57.2193 127.052C57.0976 126.99 57.0321 126.856 57.06 126.721C57.0879 126.585 57.1973 126.483 57.3355 126.471L69.9648 125.359C70.1209 125.346 70.2633 125.457 70.2862 125.617L71.3493 133.244C71.364 133.355 71.3178 133.473 71.2256 133.538C71.1317 133.607 71.0169 133.616 70.9189 133.57ZM66.0764 130.524C67.5566 131.215 69.048 131.928 70.6675 132.755L69.7257 125.995L58.4779 126.986C60.2652 127.851 61.9266 128.616 63.5462 129.358C64.3969 129.75 65.2347 130.132 66.0764 130.524Z" fill="#0E0E0E"/>
<path d="M57.2265 127.055C57.1395 127.014 57.0731 126.929 57.0585 126.828L55.988 119.463C55.9732 119.352 56.016 119.242 56.1045 119.175C56.1931 119.108 56.3114 119.091 56.4093 119.137C61.8996 121.58 64.716 122.862 70.1164 125.394C70.2398 125.451 70.3089 125.587 70.2811 125.722C70.2568 125.86 70.142 125.964 70.0056 125.972L57.3763 127.084C57.3224 127.086 57.2737 127.077 57.2265 127.055ZM56.6637 119.917L57.6154 126.448L68.8292 125.464C64.238 123.319 61.474 122.057 56.6637 119.917Z" fill="#0E0E0E"/>
<path d="M56.156 119.69C56.0943 119.661 56.0466 119.612 56.0131 119.551C54.7247 116.915 54.1185 115.43 53.0762 112.333C53.038 112.216 53.0714 112.087 53.1632 112.004C53.2551 111.921 53.3825 111.913 53.4948 111.956C58.9546 114.588 61.74 115.936 67.3827 118.725C67.5043 118.786 67.5699 118.92 67.542 119.056C67.5141 119.191 67.4011 119.292 67.2629 119.304C62.8924 119.603 60.6349 119.689 56.2824 119.722C56.2356 119.718 56.1959 119.708 56.156 119.69ZM53.8821 112.821C54.7649 115.398 55.3366 116.777 56.4716 119.107C60.3514 119.075 62.478 119.004 66.0913 118.767C61.3326 116.421 58.5925 115.09 53.8821 112.821Z" fill="#0E0E0E"/>
<path d="M46.2797 117.948C46.1962 117.909 46.1318 117.829 46.1155 117.732C46.0933 117.609 46.1466 117.485 46.2495 117.416C48.7209 115.781 50.0768 114.721 53.1686 112.002C53.2445 111.934 53.3483 111.91 53.4423 111.936C53.538 111.958 53.6168 112.036 53.6474 112.131C54.6952 115.235 55.2638 116.64 56.5559 119.277C56.6046 119.381 56.5962 119.503 56.5262 119.597C56.4561 119.69 56.342 119.736 56.232 119.716C53.4149 119.222 51.5914 118.898 49.4416 118.517L46.3574 117.97C46.325 117.964 46.3015 117.958 46.2797 117.948ZM53.2193 112.755C50.6008 115.046 49.24 116.127 47.2037 117.501L49.5448 117.917C51.5432 118.273 53.2566 118.576 55.7473 119.013C54.6921 116.814 54.1064 115.362 53.2193 112.755Z" fill="#0E0E0E"/>
<path d="M57.2265 127.055C57.212 127.048 57.1975 127.041 57.1847 127.031C56.4324 126.523 55.7477 126.068 55.1212 125.65C51.5556 123.285 49.5924 121.982 46.1757 117.868C46.0929 117.771 46.0829 117.631 46.149 117.518C46.2151 117.404 46.3397 117.345 46.466 117.368L49.5501 117.915C51.7037 118.298 53.5235 118.62 56.3406 119.114C56.4668 119.137 56.5658 119.237 56.581 119.365L57.6515 126.731C57.6701 126.852 57.6149 126.97 57.5137 127.036C57.4267 127.09 57.3172 127.097 57.2265 127.055ZM47.1853 118.118C50.2079 121.657 52.0271 122.861 55.4562 125.14C55.9243 125.453 56.425 125.781 56.9587 126.142L56.0192 119.68C53.3194 119.209 51.5374 118.891 49.4362 118.519L47.1853 118.118Z" fill="#0E0E0E"/>
<path d="M67.1185 119.273C67.1149 119.271 67.1149 119.271 67.1112 119.269C61.4722 116.482 58.6868 115.134 53.2269 112.502C53.0855 112.436 53.0228 112.267 53.0775 112.122C54.4732 108.428 55.3012 106.302 57.111 101.634L57.1639 101.493C57.2083 101.378 57.3147 101.302 57.4368 101.296C57.5589 101.289 57.6681 101.358 57.7187 101.468C61.092 108.669 63.0979 112.238 67.4924 118.821C67.5683 118.933 67.5588 119.086 67.4692 119.193C67.385 119.298 67.2382 119.328 67.1185 119.273ZM53.7415 112.071C58.7078 114.464 61.4641 115.798 66.3644 118.219C62.5041 112.384 60.5203 108.843 57.4705 102.369C55.8421 106.572 55.0281 108.677 53.7415 112.071Z" fill="#0E0E0E"/>
<path d="M53.2325 112.509C53.2143 112.501 53.1943 112.487 53.1779 112.475C48.6991 109.008 46.5862 107.307 42.89 104.066C42.8023 103.99 42.7675 103.865 42.803 103.751C42.8385 103.637 42.932 103.55 43.0503 103.533C45.3886 103.169 47.2593 102.88 49.1067 102.593C51.5616 102.216 53.9805 101.841 57.4118 101.302C57.5174 101.284 57.6244 101.329 57.6925 101.41C57.7588 101.495 57.7772 101.607 57.7379 101.711L57.6814 101.851C55.8697 106.513 55.0453 108.64 53.6513 112.331C53.6172 112.423 53.5413 112.491 53.4501 112.516C53.3715 112.543 53.2978 112.54 53.2325 112.509ZM43.7808 104.032C47.0817 106.917 49.1764 108.601 53.2299 111.738C54.5061 108.367 55.3254 106.25 56.983 101.984C53.8188 102.481 51.5198 102.836 49.1886 103.194C47.5096 103.452 45.8199 103.713 43.7808 104.032Z" fill="#0E0E0E"/>
<path d="M41.2261 110.751C41.1753 110.727 41.135 110.691 41.1036 110.644C41.0572 110.573 41.0411 110.485 41.0628 110.4L42.7959 103.757C42.8226 103.652 42.9001 103.571 42.9983 103.541C43.0983 103.506 43.2066 103.53 43.2852 103.598C46.9704 106.834 49.0779 108.528 53.5475 111.985C53.6551 112.067 53.6941 112.22 53.6391 112.348C53.5841 112.475 53.4508 112.552 53.3156 112.53C48.1904 111.747 45.8237 111.396 41.3111 110.777C41.2822 110.773 41.2515 110.763 41.2261 110.751ZM43.254 104.385L41.735 110.219C45.6871 110.76 48.0125 111.106 52.247 111.753C48.5237 108.864 46.469 107.199 43.254 104.385Z" fill="#0E0E0E"/>
<path d="M46.2797 117.948C46.2398 117.929 46.207 117.905 46.1793 117.869C43.9334 115.165 42.8869 113.678 41.098 110.637C41.0386 110.538 41.0414 110.408 41.1078 110.313C41.1724 110.213 41.2882 110.163 41.4017 110.176C45.9179 110.796 48.2811 111.146 53.4134 111.932C53.5288 111.949 53.6221 112.034 53.6531 112.147C53.6841 112.261 53.6488 112.384 53.5587 112.463C50.444 115.203 49.0722 116.278 46.5723 117.927C46.4799 117.983 46.3704 117.99 46.2797 117.948ZM41.9382 110.863C43.4901 113.464 44.4772 114.851 46.4711 117.263C48.6691 115.798 50.0128 114.754 52.672 112.432C48.2139 111.754 45.8688 111.403 41.9382 110.863Z" fill="#0E0E0E"/>
<path d="M42.9574 104.111C42.9139 104.091 42.8719 104.058 42.8423 104.017C42.7777 103.929 42.7681 103.807 42.8164 103.703C44.7017 99.774 46.1819 96.6282 47.8985 92.9847C49.4011 89.7908 51.1074 86.1696 53.3358 81.4951C53.3927 81.373 53.5225 81.303 53.6541 81.3238C53.7857 81.3447 53.8867 81.4503 53.9037 81.5843C54.9352 89.8005 55.7583 94.0879 57.7414 101.523C57.7646 101.606 57.7484 101.698 57.7013 101.77C57.6542 101.843 57.578 101.893 57.492 101.907C54.0571 102.444 51.6381 102.819 49.1832 103.197C47.3359 103.483 45.4669 103.769 43.1269 104.136C43.0676 104.14 43.0082 104.135 42.9574 104.111ZM53.4328 82.6794C51.4221 86.9061 49.8417 90.2574 48.4391 93.2368C46.7984 96.7175 45.3733 99.745 43.6056 103.441C45.6877 103.115 47.4043 102.853 49.103 102.592C51.4773 102.227 53.8156 101.863 57.0695 101.354C55.2215 94.3959 54.3942 90.165 53.4328 82.6794Z" fill="#0E0E0E"/>
<path d="M42.9574 104.111C42.9066 104.088 42.8627 104.049 42.8294 103.998L33.8157 89.466C33.7711 89.3911 33.7567 89.2989 33.7821 89.2161C33.8074 89.1334 33.8671 89.0622 33.9472 89.023C40.6798 85.9131 44.518 84.4071 53.5033 81.3346C53.6194 81.2942 53.7441 81.3298 53.8213 81.4199C53.8986 81.5099 53.9173 81.6402 53.8656 81.7512C51.639 86.422 49.9363 90.0449 48.4301 93.2371C46.7135 96.8806 45.2333 100.026 43.3462 103.96C43.2997 104.059 43.2021 104.127 43.0927 104.134C43.0497 104.141 43.001 104.132 42.9574 104.111ZM34.5124 89.4306L43.0546 103.202C44.8257 99.4987 46.2561 96.4691 47.8949 92.983C49.3285 89.9371 50.9468 86.5044 53.0213 82.1409C44.6735 85.0019 40.8623 86.507 34.5124 89.4306Z" fill="#0E0E0E"/>
<path d="M33.9455 89.576C33.902 89.5557 33.8636 89.5243 33.8304 89.4818C33.7473 89.3665 33.755 89.208 33.8499 89.0992C38.246 83.9813 41.1007 80.5398 45.0527 75.7776C46.1219 74.4887 47.279 73.0967 48.5694 71.5418C48.6362 71.4649 48.736 71.4214 48.8368 71.4324C48.9377 71.4434 49.0234 71.5059 49.0683 71.5989L53.8711 81.4836C53.9087 81.5641 53.9105 81.655 53.8761 81.7381C53.8418 81.8211 53.773 81.8836 53.6927 81.9137C44.7304 84.9744 40.903 86.4764 34.1935 89.5746C34.1134 89.6138 34.0217 89.6115 33.9455 89.576ZM48.7315 72.2928C47.5569 73.7036 46.4982 74.9794 45.5115 76.1672C41.8333 80.5978 39.1032 83.8857 35.2012 88.4461C41.1151 85.7469 44.9911 84.245 53.182 81.4459L48.7315 72.2928Z" fill="#0E0E0E"/>
<path d="M33.9455 89.576C33.8222 89.5185 33.7566 89.3844 33.7792 89.2508L37.1871 69.5345C37.2164 69.377 37.3562 69.2666 37.5146 69.2774C40.9336 69.5795 43.3537 70.0822 48.8766 71.4419C48.9759 71.4657 49.0583 71.5447 49.0872 71.6437C49.1197 71.7444 49.095 71.8544 49.0301 71.9367C47.736 73.49 46.5826 74.8837 45.5134 76.1726C41.5597 80.9385 38.7014 84.3782 34.3035 89.4998C34.212 89.6012 34.0653 89.6318 33.9455 89.576ZM37.7302 69.9138L34.5562 88.2759C38.5585 83.6047 41.3168 80.2849 45.051 75.7814C46.0324 74.5956 47.0876 73.3272 48.2551 71.9221C43.2416 70.6918 40.8722 70.2038 37.7302 69.9138Z" fill="#0E0E0E"/>
<path d="M37.3535 69.8597C37.2809 69.8258 37.2222 69.7624 37.1953 69.6779C37.1607 69.5627 37.1941 69.4342 37.2842 69.3546C40.9314 66.0891 43.0242 64.4806 47.4523 61.5388C47.5411 61.4811 47.6595 61.4733 47.7485 61.5193C47.8428 61.5633 47.9077 61.6611 47.9152 61.7681C48.214 65.7211 48.4464 67.6664 49.0971 71.6888C49.1117 71.7902 49.076 71.8951 49.0037 71.965C48.9277 72.0331 48.8241 72.0658 48.7265 72.0383C43.2344 70.6885 40.8359 70.1868 37.4547 69.8889C37.4169 69.8847 37.3825 69.8732 37.3535 69.8597ZM47.3529 62.3299C43.4483 64.935 41.398 66.5093 38.2006 69.3407C41.1865 69.6434 43.5813 70.1434 48.425 71.3304C47.8633 67.8087 47.6222 65.7873 47.3529 62.3299Z" fill="#0E0E0E"/>
<path d="M69.2571 52.6748C69.17 52.6342 69.1056 52.5546 69.091 52.4532C69.0667 52.3158 69.1412 52.175 69.2695 52.1178C80.6581 47.0457 87.3839 44.8691 99.2538 42.4304C99.3952 42.4017 99.5369 42.4768 99.5917 42.6149C99.6429 42.7514 99.5921 42.9078 99.4714 42.9866C94.0126 46.5284 91.0481 48.775 84.9216 53.7299C84.8579 53.7812 84.781 53.8039 84.7018 53.7939C78.4459 53.182 75.2908 52.958 69.3727 52.7016C69.3295 52.6995 69.2898 52.69 69.2571 52.6748ZM97.7999 43.3508C87.3348 45.5711 80.8324 47.6853 70.6917 52.1461C75.7899 52.3802 78.9199 52.6106 84.6428 53.1721C90.2051 48.679 93.162 46.4109 97.7999 43.3508Z" fill="#0E0E0E"/>
<path d="M99.177 43.0023C99.1225 42.977 99.075 42.9368 99.047 42.8832C98.9837 42.7727 98.9954 42.634 99.0779 42.5329C103.766 36.8082 105.866 34.4827 109.063 32.0024C109.159 31.93 109.284 31.9165 109.39 31.9746C113.907 34.45 116.235 35.698 120.941 38.185C121.054 38.2465 121.115 38.3699 121.095 38.4997C121.074 38.6296 120.977 38.733 120.852 38.7556L99.3625 43.0213C99.2963 43.04 99.235 43.0294 99.177 43.0023ZM109.271 32.6081C106.329 34.9103 104.286 37.141 100.077 42.2651L119.898 38.3289C115.739 36.1283 113.432 34.8905 109.271 32.6081Z" fill="#0E0E0E"/>
<path d="M99.1806 43.004C99.1661 42.9973 99.1552 42.9922 99.1424 42.9817C94.7051 40.0707 92.4837 38.6116 88.3219 35.8199C88.2236 35.7561 88.1764 35.6395 88.192 35.5207C88.2113 35.4036 88.292 35.3062 88.4046 35.2732C97.1802 32.4991 101.466 31.8141 109.256 31.9393C109.384 31.9403 109.495 32.0237 109.533 32.1497C109.573 32.2719 109.528 32.4081 109.429 32.488C106.276 34.9304 104.195 37.2333 99.542 42.9204C99.4471 43.0293 99.3003 43.0599 99.1806 43.004ZM89.1852 35.6642C92.9443 38.1825 95.1512 39.6348 99.248 42.3196C103.48 37.1565 105.583 34.8055 108.385 32.5373C101.378 32.4847 97.1611 33.1746 89.1852 35.6642Z" fill="#0E0E0E"/>
<path d="M69.2571 52.6748C69.2099 52.6528 69.168 52.6197 69.1382 52.5698C69.0585 52.4471 69.0752 52.2883 69.1773 52.1828C77.3817 43.9466 81.4963 40.3227 88.3157 35.3218C88.4167 35.2473 88.555 35.2442 88.6606 35.3115C92.8187 38.1014 95.0401 39.5605 99.4774 42.4716C99.5794 42.5372 99.6304 42.6645 99.6058 42.7836C99.5795 42.9064 99.4861 43.0024 99.3644 43.0267C87.5464 45.4582 80.8474 47.6247 69.5051 52.6733C69.4214 52.7108 69.3333 52.7103 69.2571 52.6748ZM88.4932 35.9358C82.1239 40.6154 78.1058 44.1176 70.7412 51.4623C81.03 46.949 87.6135 44.8502 98.5233 42.576C94.5486 39.9706 92.3489 38.5217 88.4932 35.9358Z" fill="#0E0E0E"/>
<path d="M69.2571 52.6748C69.17 52.6342 69.1073 52.5509 69.091 52.4532C68.34 47.9923 67.9781 45.7659 67.2774 41.396C67.2549 41.2549 67.3347 41.1121 67.4649 41.0602C75.332 37.876 79.8421 36.6338 88.4476 35.2662C88.5856 35.245 88.7183 35.3204 88.7676 35.4514C88.8169 35.5825 88.7749 35.7295 88.6597 35.8154C81.8686 40.7935 77.7699 44.4022 69.5902 52.614C69.5091 52.6932 69.3929 52.7246 69.2861 52.6883C69.2806 52.6812 69.268 52.6798 69.2571 52.6748ZM67.9074 41.5322C68.5527 45.5566 68.9107 47.7631 69.5826 51.7684C77.1087 44.229 81.1749 40.6141 87.3006 36.0686C79.6151 37.3384 75.2059 38.5916 67.9074 41.5322Z" fill="#0E0E0E"/>
<path d="M47.4862 62.0724C47.4463 62.0538 47.4098 62.0278 47.3803 61.987C47.2881 61.872 47.2956 61.7044 47.3923 61.5918C55.2782 52.6083 59.2954 48.2367 67.3796 41.1105C67.4627 41.0367 67.579 41.0144 67.6804 41.0527C67.7836 41.0873 67.8555 41.1793 67.8756 41.2878C68.5762 45.6577 68.9345 47.8823 69.6873 52.3396C69.7136 52.4914 69.623 52.6383 69.4766 52.6871C59.6927 55.8239 55.2248 57.7522 47.7663 62.0589C47.6757 62.1112 47.5733 62.113 47.4862 62.0724ZM67.3598 41.9297C59.9864 48.4598 56.0047 52.7174 49.0288 60.6396C55.5775 56.9486 60.0751 55.0702 69.0426 52.1875C68.3544 48.0846 67.9946 45.8727 67.3598 41.9297Z" fill="#0E0E0E"/>
<path d="M37.3535 69.8597C37.339 69.8529 37.3208 69.8444 37.308 69.834C37.195 69.7543 37.149 69.6067 37.2021 69.4739C38.9475 65.011 43.4969 53.3414 43.6219 52.9314C43.6572 52.8083 43.7704 52.717 43.8943 52.7072C44.0217 52.6991 44.1399 52.7678 44.1871 52.8843L47.8899 61.6708C47.9464 61.8052 47.8975 61.967 47.7751 62.0495C43.3771 64.9739 41.3003 66.5673 37.676 69.812C37.5859 69.8915 37.4587 69.9087 37.3535 69.8597ZM43.9288 53.8265C42.9993 56.2746 39.9829 64.0125 38.217 68.5289C41.2663 65.8446 43.342 64.2821 47.2395 61.6827L43.9288 53.8265Z" fill="#0E0E0E"/>
<path d="M47.4862 62.0724C47.4209 62.0419 47.3659 61.9893 47.3376 61.9175L43.6348 53.1311C43.5897 53.029 43.607 52.9065 43.679 52.8185C48.6988 46.5146 51.5092 43.6513 57.3414 38.9014C57.4493 38.8122 57.6002 38.8105 57.7115 38.8939C57.8228 38.9773 57.8598 39.1252 57.8048 39.2526C54.0323 48.2047 51.9013 53.0777 47.8911 61.9145C47.8393 62.0254 47.7311 62.0965 47.6125 62.0952C47.5658 62.1005 47.5261 62.091 47.4862 62.0724ZM44.2587 53.0528L47.6276 61.0397C51.5739 52.3307 53.5926 47.689 56.7763 40.1417C51.6494 44.3831 48.9017 47.235 44.2587 53.0528Z" fill="#0E0E0E"/>
<path d="M47.4862 62.0724C47.4753 62.0673 47.4608 62.0605 47.4516 62.0518C47.326 61.9707 47.2815 61.8104 47.3417 61.6718C51.6758 52.1216 53.7026 47.4342 57.2486 39.0247C57.3053 38.8936 57.4439 38.8142 57.5811 38.8421C61.0352 39.4668 63.1257 39.9373 67.648 41.0465C67.7546 41.0737 67.8425 41.1598 67.8662 41.2699C67.89 41.38 67.8528 41.4977 67.7697 41.5716C59.7121 48.6786 55.7071 53.0334 47.8388 61.9982C47.7473 62.0996 47.6059 62.1282 47.4862 62.0724ZM57.7051 39.4853C54.2606 47.6583 52.1781 52.4369 48.7178 60.0848C55.6163 52.2526 59.5999 48.0004 66.9362 41.5026C62.9088 40.516 60.8617 40.0567 57.7051 39.4853Z" fill="#0E0E0E"/>
<path d="M88.3601 35.8422C88.3166 35.8219 88.2818 35.7922 88.2506 35.7551C85.6133 32.3462 84.2935 30.6682 81.7883 27.4874C81.7128 27.3937 81.7048 27.2593 81.7601 27.1501C81.8191 27.0425 81.9329 26.9785 82.0553 26.9906C92.534 27.9237 98.4114 29.2146 109.319 31.9462C109.465 31.9829 109.562 32.1268 109.541 32.284C109.521 32.4411 109.385 32.5532 109.232 32.5494C101.521 32.4251 97.273 33.1052 88.5743 35.8566C88.5011 35.881 88.4254 35.8727 88.3601 35.8422ZM82.7031 27.6663C84.8948 30.4488 86.2019 32.1164 88.5994 35.2154C96.2462 32.8065 100.481 32.0032 106.711 31.9321C97.5812 29.6785 91.904 28.5169 82.7031 27.6663Z" fill="#0E0E0E"/>
<path d="M120.67 38.7384C120.666 38.7367 120.662 38.735 120.655 38.7316C115.947 36.2392 113.617 34.9949 109.097 32.5178C108.966 32.4478 108.907 32.2898 108.96 32.1479C109.013 32.006 109.159 31.9209 109.301 31.9468L117.825 33.5578C117.903 33.5715 117.974 33.6181 118.016 33.6875L121.046 38.2923C121.12 38.4079 121.11 38.561 121.017 38.6661C120.933 38.7619 120.786 38.7925 120.67 38.7384ZM111.085 32.9047C114.257 34.636 116.44 35.8072 119.891 37.6325L117.588 34.1318L111.085 32.9047Z" fill="#0E0E0E"/>
<path d="M57.3965 39.4179C57.3058 39.3756 57.2411 39.2869 57.2283 39.1819C57.2132 39.0533 57.2825 38.9235 57.4018 38.8666L81.9032 27.0232C82.0403 26.9566 82.2084 27.0034 82.2882 27.1352C82.3681 27.267 82.3356 27.441 82.2153 27.5379C77.0603 31.6311 73.9635 34.6445 67.7998 41.5451C67.7259 41.6277 67.6116 41.6644 67.5033 41.6409C62.9919 40.5368 60.9104 40.0659 57.4725 39.4443C57.4454 39.4362 57.4182 39.428 57.3965 39.4179ZM79.8136 28.7008L58.4937 39.0066C61.3908 39.5471 63.4743 40.0233 67.4709 41C72.7397 35.1094 75.7764 32.0545 79.8136 28.7008Z" fill="#0E0E0E"/>
<path d="M43.7834 53.2859C43.6601 53.2284 43.5909 53.0926 43.6152 52.9553C44.0408 50.745 44.2694 49.6675 44.7836 47.4849C44.8019 47.4079 44.8455 47.3427 44.9111 47.2968C48.2636 45.042 57.0369 39.1377 57.336 38.9034C57.4651 38.7971 57.6543 38.8177 57.7575 38.9469C57.8551 39.0689 57.8407 39.2513 57.7279 39.3608C57.7208 39.3665 57.7137 39.3722 57.712 39.3759C51.9222 44.0916 49.1312 46.9323 44.1429 53.1969C44.0589 53.3108 43.9104 53.3451 43.7834 53.2859ZM45.3421 47.7364C44.9509 49.4089 44.7265 50.4299 44.4403 51.8678C47.6685 47.8622 50.019 45.2842 53.0829 42.5212C49.9683 44.6257 46.2663 47.1183 45.3421 47.7364Z" fill="#0E0E0E"/>
<path d="M67.4435 41.6176C67.3964 41.5956 67.3544 41.5625 67.3229 41.5163C67.2451 41.399 67.2547 41.2458 67.3496 41.137C73.5379 34.2029 76.6524 31.1798 81.8392 27.0564C81.9719 26.9517 82.1557 26.9743 82.2589 27.1035C84.764 30.2842 86.0875 31.964 88.7247 35.3729C88.7911 35.4579 88.8077 35.5737 88.7648 35.6753C88.7255 35.7785 88.6352 35.849 88.5295 35.8672C79.9777 37.2238 75.4963 38.4614 67.6791 41.6239C67.6025 41.6556 67.5161 41.6514 67.4435 41.6176ZM81.9745 27.7228C77.2039 31.5315 74.1682 34.4518 68.6614 40.5781C75.6613 37.8044 80.1005 36.6102 87.937 35.3478C85.5691 32.2895 84.2603 30.6257 81.9745 27.7228Z" fill="#0E0E0E"/>
<path d="M41.2261 110.751C41.1535 110.717 41.0984 110.656 41.0717 110.58L33.7912 89.405C33.7398 89.2595 33.8067 89.097 33.9455 89.0267C34.0843 88.9564 34.2524 89.0032 34.3323 89.135L43.3459 103.667C43.3886 103.736 43.4011 103.823 43.3811 103.904L41.648 110.547C41.6146 110.676 41.4997 110.771 41.3686 110.777C41.3166 110.784 41.2696 110.771 41.2261 110.751ZM35.2393 91.7552L41.3152 109.433L42.7607 103.889L35.2393 91.7552Z" fill="#0E0E0E"/>
<path d="M142.546 95.085C142.477 95.0528 142.424 94.9965 142.396 94.9247L139.431 87.3201C139.401 87.243 139.405 87.1592 139.436 87.0835L144.15 76.5086C144.211 76.3701 144.358 76.2994 144.501 76.3345C144.644 76.3695 144.738 76.508 144.723 76.6541L142.971 94.8373C142.957 94.9796 142.852 95.0924 142.714 95.1136C142.655 95.1175 142.597 95.1086 142.546 95.085ZM140.037 87.2062L142.496 93.517L143.947 78.431L140.037 87.2062Z" fill="#0E0E0E"/>
<path d="M70.9189 133.57C70.8029 133.516 70.7321 133.393 70.7493 133.262C70.7679 133.108 70.8985 132.989 71.0495 132.987L77.1379 132.945C77.1738 132.944 77.2063 132.95 77.237 132.96L89.0025 136.996C89.1491 137.051 89.2385 137.21 89.1913 137.368C89.1458 137.522 88.9896 137.621 88.8343 137.584L70.9841 133.592C70.9588 133.589 70.9371 133.579 70.9189 133.57ZM77.0816 133.558L73.7283 133.579L83.5633 135.779L77.0816 133.558Z" fill="#0E0E0E"/>
<path d="M37.3535 69.8597C37.2301 69.8022 37.161 69.6663 37.1889 69.5307L39.4105 57.5772C39.4202 57.5187 39.448 57.4686 39.4866 57.4236L43.6948 52.8034C43.7934 52.6963 43.9547 52.6724 44.0747 52.7464C44.1985 52.8221 44.2464 52.975 44.1952 53.1132L37.7653 69.687C37.7089 69.8363 37.5487 69.9147 37.4005 69.8726C37.3825 69.8732 37.368 69.8665 37.3535 69.8597ZM39.984 57.7681L38.3653 66.4774L43.0523 54.3993L39.984 57.7681Z" fill="#0E0E0E"/>
<path d="M39.5715 57.9045C39.557 57.8977 39.5389 57.8892 39.5225 57.8771C39.4003 57.7886 39.3629 57.6226 39.4357 57.4854L44.8108 47.4076C44.8819 47.2741 45.0388 47.2122 45.18 47.26C45.323 47.3132 45.4013 47.4578 45.3702 47.6099L44.2033 53.0675C44.1917 53.1207 44.1676 53.1724 44.127 53.212L39.9188 57.8323C39.831 57.9354 39.6913 57.9603 39.5715 57.9045ZM44.3377 49.5778L41.0981 55.6537L43.6369 52.8709L44.3377 49.5778Z" fill="#0E0E0E"/>
<path d="M71.2355 161.714C71.1919 161.694 71.1555 161.668 71.1171 161.636C71.0074 161.54 70.9472 161.404 70.9461 161.255L71.6613 39.1269C71.6617 38.8705 71.8498 38.6565 72.1007 38.6204L177.508 23.4149C177.651 23.3917 177.798 23.4375 177.904 23.532C178.014 23.6282 178.074 23.7643 178.075 23.9134L177.36 146.041C177.359 146.298 177.171 146.512 176.92 146.548L71.513 161.754C71.4181 161.768 71.3189 161.753 71.2355 161.714ZM72.6638 39.5629L71.9553 160.663L176.359 145.602L177.067 24.5017L72.6638 39.5629Z" fill="#0E0E0E"/>
<path d="M1.92183 16.9895C1.73318 16.9015 1.61958 16.7 1.64051 16.4846C1.6628 16.2474 1.84418 16.0573 2.07713 16.0218L107.484 0.816293C107.56 0.806378 107.637 0.81094 107.706 0.833994L177.731 23.4289C177.992 23.5143 178.137 23.7984 178.047 24.0671C177.957 24.3359 177.676 24.484 177.412 24.3968L107.494 1.83819L4.38231 16.7141L72.3238 38.6344C72.5843 38.7199 72.7301 39.004 72.6401 39.2727C72.5502 39.5414 72.2691 39.6895 72.005 39.6024L1.97798 17.0112C1.95812 17.0064 1.93997 16.9979 1.92183 16.9895Z" fill="#0E0E0E"/>
<path d="M1.20658 139.118C1.03245 139.036 0.9211 138.858 0.92079 138.66L1.63605 16.5321C1.63948 16.25 1.86506 16.022 2.14 16.0196C2.41856 16.019 2.64046 16.244 2.63875 16.5224L1.92705 138.283L71.6068 160.766C71.8691 160.848 72.0131 161.136 71.9231 161.404C71.8332 161.673 71.5521 161.821 71.288 161.734L1.26272 139.139C1.24457 139.131 1.22472 139.126 1.20658 139.118Z" fill="#0E0E0E"/>
<path d="M106.745 123.631C106.676 123.599 106.63 123.528 106.632 123.448L107.345 1.32319L107.748 1.32182L107.035 123.302L176.923 145.851L176.796 146.238L106.77 123.643C106.759 123.638 106.752 123.634 106.745 123.631Z" fill="#0E0E0E"/>
<path d="M106.819 123.278L1.40436 138.44L1.45512 138.843L106.87 123.681L106.819 123.278Z" fill="#0E0E0E"/>
</g>
</svg>
