<svg width="21" height="23" viewBox="0 0 21 23" fill="none" xmlns="http://www.w3.org/2000/svg">
<g id="Group">
<path id="Vector" d="M11.799 13.0652C12.5652 15.3355 13.0802 17.6828 13.335 20.0652C12.2712 20.4374 11.1521 20.6271 10.025 20.6262C8.04223 20.6295 6.10366 20.0403 4.45803 18.9342C5.22493 17.5133 6.27004 16.2612 7.53107 15.2528C8.7921 14.2443 10.2432 13.5 11.798 13.0642L11.799 13.0652ZM19.598 13.5282C18.8843 15.8746 17.3348 17.8778 15.243 19.1582C14.9622 16.9609 14.4733 14.7952 13.783 12.6902C15.7608 12.4859 17.7584 12.7738 19.598 13.5282ZM10.17 9.11122C10.5027 9.78989 10.8127 10.4809 11.1 11.1842C7.63645 12.1989 4.69712 14.5093 2.89303 17.6352C1.87915 16.5962 1.10165 15.3505 0.613734 13.9832C0.125816 12.6159 -0.061011 11.1594 0.0660326 9.71322C3.40903 10.4212 6.93603 10.2152 10.17 9.11122ZM17.745 4.27022C19.411 6.30491 20.215 8.91057 19.985 11.5302C17.7852 10.7025 15.4133 10.4378 13.085 10.7602C12.7634 9.948 12.4115 9.14811 12.03 8.36222C14.173 7.36553 16.1111 5.97779 17.745 4.27022ZM5.29103 1.81622C6.78596 3.51083 8.10287 5.3545 9.22103 7.31822C6.38284 8.22213 3.358 8.37034 0.445033 7.74822C1.21199 5.20766 2.95454 3.0746 5.29103 1.81622ZM10.025 0.626224C12.413 0.626224 14.606 1.46322 16.325 2.86022C14.8372 4.42216 13.0657 5.68666 11.105 6.58622C10.0015 4.60976 8.70873 2.74503 7.24503 1.01822C8.14865 0.757479 9.08454 0.625512 10.025 0.626224Z" fill="white"/>
</g>
</svg>
