<svg width="245" height="53" viewBox="0 0 245 53" fill="none" xmlns="http://www.w3.org/2000/svg">
<g id="Vector">
<path d="M27.2411 15.8561L28.2365 4.18743L18.5665 14.5858L7.85289 13.0811L12.3554 21.5493L0.930847 34.0648L15.8165 28.6061L24.5872 46.0614L26.3418 24.9843L45.5417 18.3031L27.2411 15.8561ZM23.2132 21.7838L22.3119 29.8287L18.5204 23.4775L11.2198 26.1591L16.5295 20.277L13.9217 16.0906L19.6581 16.7963L24.4931 11.5266L23.8762 17.6432L31.2709 18.7722L23.2132 21.7838Z" fill="#0E0E0E"/>
<path d="M50.4202 13.4669V0.408699H53.6324C54.3058 0.408699 54.8882 0.645293 55.3614 1.12758C55.8437 1.60077 56.0802 2.18315 56.0802 2.85654C56.0802 5.57737 56.0802 8.2982 56.0802 11.019C56.0802 11.6924 55.8437 12.2748 55.3614 12.748C54.8882 13.2303 54.3058 13.4669 53.6324 13.4669H50.4202ZM53.1319 1.45517H52.5222V12.4204H53.1319C53.3685 12.4204 53.5687 12.3385 53.7325 12.1747C53.8963 12.0018 53.9873 11.8016 53.9873 11.565C53.9873 8.4802 53.9873 5.39537 53.9873 2.31055C53.9873 2.07396 53.8963 1.87376 53.7325 1.70087C53.5687 1.53707 53.3685 1.45517 53.1319 1.45517Z" fill="#0E0E0E"/>
<path d="M59.2699 0.408699V13.4669H57.1679V0.408699H59.2699Z" fill="#0E0E0E"/>
<path d="M62.496 13.4669C61.9318 13.4669 61.4586 13.2758 61.0673 12.8754C60.6669 12.4841 60.4758 12.0109 60.4758 11.4467V2.42885C60.4758 1.86466 60.6669 1.39147 61.0673 1.00018C61.4586 0.599794 61.9318 0.408699 62.496 0.408699H64.1157C64.6708 0.408699 65.1531 0.599794 65.5444 1.00018C65.9357 1.39147 66.1359 1.86466 66.1359 2.42885V4.74929H64.0338V2.18315C64.0338 1.98296 63.961 1.81006 63.8245 1.67357C63.6789 1.52797 63.506 1.45517 63.2967 1.45517C63.0874 1.46427 62.9145 1.53707 62.778 1.68267C62.6415 1.82826 62.5688 2.00116 62.5688 2.21045V6.51465L63.7244 6.29625C64.3523 6.20525 64.8983 6.34175 65.3715 6.70574C65.8356 7.06973 66.0904 7.57022 66.1359 8.2072C66.1359 8.2254 66.1359 8.2527 66.1359 8.28V11.4467C66.1359 12.0109 65.9357 12.4841 65.5444 12.8754C65.1531 13.2758 64.6708 13.4669 64.1157 13.4669H62.496ZM62.5688 8.01611V11.6651C62.5688 11.8744 62.6415 12.0473 62.778 12.1929C62.9145 12.3385 63.0874 12.4113 63.2967 12.4204C63.506 12.4204 63.6789 12.3476 63.8245 12.202C63.961 12.0655 64.0338 11.8926 64.0338 11.6924V8.01611C64.0338 7.81591 63.961 7.64302 63.8245 7.49742C63.6789 7.35183 63.506 7.27903 63.3058 7.27903C63.1056 7.27903 62.9327 7.35183 62.7871 7.49742C62.6416 7.64302 62.5688 7.81591 62.5688 8.01611Z" fill="#0E0E0E"/>
<path d="M69.2163 0.408699V13.4669H67.1143V0.408699H69.2163Z" fill="#0E0E0E"/>
<path d="M71.5233 13.4669V1.45517H69.7488V0.408699H75.4089V1.45517H73.6253V13.4669H71.5233Z" fill="#0E0E0E"/>
<path d="M77.8888 10.9371V13.4669H75.7867V2.42885C75.7867 1.86466 75.9869 1.39147 76.3782 1.00018C76.7786 0.599794 77.2518 0.408699 77.8069 0.408699H79.4357C79.9908 0.408699 80.464 0.599794 80.8644 1.00018C81.2557 1.39147 81.4559 1.86466 81.4559 2.42885V13.4669H79.3538V10.9371H77.8888ZM78.6258 1.45517C78.4166 1.45517 78.2437 1.52797 78.1072 1.67357C77.9616 1.81006 77.8888 1.98296 77.8888 2.18315V9.88156H79.3538V2.18315C79.3538 1.98296 79.281 1.81006 79.1354 1.67357C78.9989 1.52797 78.826 1.45517 78.6258 1.45517Z" fill="#0E0E0E"/>
<path d="M82.6436 13.4669V0.408699H84.7456V12.4204H86.2107V10.7369H88.3127V13.4669H82.6436Z" fill="#0E0E0E"/>
<path d="M50.4202 31.6543V17.7867H53.8315C54.5466 17.7867 55.1651 18.0379 55.6677 18.5501C56.1798 19.0526 56.4311 19.6711 56.4311 20.3862C56.4311 23.2757 56.4311 26.1652 56.4311 29.0547C56.4311 29.7698 56.1798 30.3883 55.6677 30.8908C55.1651 31.403 54.5466 31.6543 53.8315 31.6543H50.4202ZM53.3 18.898H52.6525V30.5429H53.3C53.5513 30.5429 53.7639 30.456 53.9378 30.282C54.1118 30.0984 54.2084 29.8858 54.2084 29.6345C54.2084 26.3585 54.2084 23.0824 54.2084 19.8064C54.2084 19.5551 54.1118 19.3425 53.9378 19.1589C53.7639 18.985 53.5513 18.898 53.3 18.898Z" fill="#0E0E0E"/>
<path d="M59.7122 31.6543C59.1227 31.6543 58.6105 31.4513 58.1949 31.0261C57.7794 30.6106 57.5668 30.1081 57.5668 29.5089V19.932C57.5668 19.3329 57.7794 18.8304 58.1949 18.4148C58.6105 17.9896 59.1227 17.7867 59.7122 17.7867H61.4323C62.0315 17.7867 62.534 17.9896 62.9496 18.4148C63.3748 18.8304 63.5777 19.3329 63.5777 19.932V22.3963H61.355V19.6711C61.355 19.4585 61.2777 19.2749 61.1231 19.1299C60.9685 18.9753 60.7849 18.898 60.5723 18.898C60.3596 18.898 60.176 18.9753 60.0214 19.1299C59.8765 19.2749 59.7991 19.4585 59.7991 19.6711V25.4694H62.1185V26.5808H59.7991V29.7698C59.7991 29.9824 59.8765 30.166 60.0214 30.311C60.176 30.4656 60.3596 30.5429 60.5723 30.5429C60.7849 30.5429 60.9685 30.4656 61.1231 30.311C61.2777 30.166 61.355 29.9824 61.355 29.7698V28.8131H63.5777V29.5089C63.5777 30.1081 63.3748 30.6106 62.9496 31.0261C62.534 31.4513 62.0315 31.6543 61.4323 31.6543H59.7122Z" fill="#0E0E0E"/>
<path d="M68.0861 17.7867C68.6756 17.7867 69.1781 17.9896 69.6033 18.4148C70.0189 18.8304 70.2315 19.3329 70.2315 19.932V22.3963H67.9991V19.6711C67.9991 19.4585 67.9218 19.2749 67.7672 19.1299C67.6222 18.9753 67.4289 18.898 67.2067 18.898C66.9844 18.9077 66.8105 18.985 66.6655 19.1396C66.5109 19.2942 66.4432 19.4778 66.4432 19.7001V25.1408C66.4432 25.4114 66.5399 25.6337 66.7331 25.827C66.9168 26.0203 67.1487 26.1169 67.4193 26.1169H68.4243C68.9172 26.1169 69.3424 26.2908 69.7 26.6484C70.0479 26.9963 70.2315 27.4215 70.2315 27.924V29.5089C70.2315 30.1081 70.0189 30.6106 69.6033 31.0261C69.1781 31.4513 68.6756 31.6543 68.0861 31.6543H66.3563C65.7668 31.6543 65.2642 31.4513 64.839 31.0261C64.4235 30.6106 64.2109 30.1081 64.2109 29.5089V28.8131H66.4432V29.7698C66.4432 29.9824 66.5205 30.166 66.6752 30.311C66.8201 30.4656 67.0037 30.5429 67.2357 30.5429C67.4483 30.5333 67.6319 30.456 67.7768 30.3013C67.9218 30.1467 67.9991 29.9631 67.9991 29.7408V28.2139C67.9991 27.9434 67.9025 27.7114 67.7092 27.5181C67.5159 27.3249 67.2936 27.2282 67.0231 27.2282H66.018C65.5155 27.2282 65.0903 27.0543 64.7424 26.7064C64.3848 26.3488 64.2109 25.9236 64.2109 25.4308V19.932C64.2109 19.3329 64.4235 18.8304 64.839 18.4148C65.2642 17.9896 65.7668 17.7867 66.3563 17.7867H68.0861Z" fill="#0E0E0E"/>
<path d="M73.2999 17.7867V31.6543H71.0676V17.7867H73.2999Z" fill="#0E0E0E"/>
<path d="M76.7259 31.6543C76.1268 31.6543 75.6243 31.4513 75.2087 31.0261C74.7835 30.6106 74.5806 30.1081 74.5806 29.5089V19.932C74.5806 19.3329 74.7835 18.8304 75.2087 18.4148C75.6243 17.9896 76.1268 17.7867 76.7259 17.7867H78.4461C79.0356 17.7867 79.5478 17.9896 79.9633 18.4148C80.3789 18.8304 80.5915 19.3329 80.5915 19.932V22.3963H78.3591V19.6711C78.3591 19.4585 78.2818 19.2749 78.1369 19.1299C77.9822 18.9753 77.7986 18.898 77.5764 18.898C77.3541 18.9077 77.1705 18.985 77.0255 19.1396C76.8806 19.2942 76.8033 19.4778 76.8033 19.7001V24.2711L78.0306 24.0392C78.6974 23.9425 79.2772 24.0875 79.7797 24.474C80.2726 24.8606 80.5432 25.3921 80.5915 26.0686C80.5915 26.0879 80.5915 26.1169 80.5915 26.1459V29.5089C80.5915 30.1081 80.3789 30.6106 79.9633 31.0261C79.5478 31.4513 79.0356 31.6543 78.4461 31.6543H76.7259ZM76.8033 25.8656V29.7408C76.8033 29.9631 76.8806 30.1467 77.0255 30.3013C77.1705 30.456 77.3541 30.5333 77.5764 30.5429C77.7986 30.5429 77.9822 30.4656 78.1369 30.311C78.2818 30.166 78.3591 29.9824 78.3591 29.7698V25.8656C78.3591 25.653 78.2818 25.4694 78.1369 25.3148C77.9822 25.1602 77.7986 25.0829 77.586 25.0829C77.3734 25.0829 77.1898 25.1602 77.0352 25.3148C76.8806 25.4694 76.8033 25.653 76.8033 25.8656Z" fill="#0E0E0E"/>
<path d="M83.8629 23.5753V31.6543H81.6305V17.7867H83.8629L85.4091 25.8656V17.7867H87.6414V31.6543H85.4091L83.8629 23.5753Z" fill="#0E0E0E"/>
<path d="M52.4267 42.5785V49.8401H50.4202V37.3755H52.4267L53.8165 44.6371V37.3755H55.823V49.8401H53.8165L52.4267 42.5785Z" fill="#0E0E0E"/>
<path d="M58.9284 49.8401C58.3986 49.8401 57.9469 49.6577 57.5647 49.2755C57.1912 48.902 57.0001 48.4503 57.0001 47.9118V39.3038C57.0001 38.7653 57.1912 38.3136 57.5647 37.9401C57.9469 37.5579 58.3986 37.3755 58.9284 37.3755H60.4833C61.0131 37.3755 61.4648 37.5579 61.8383 37.9401C62.2205 38.3136 62.4116 38.7653 62.4116 39.3038V47.9118C62.4116 48.4503 62.2205 48.902 61.8383 49.2755C61.4648 49.6577 61.0131 49.8401 60.4833 49.8401H58.9284ZM59.0066 39.0693V48.1463C59.0066 48.3374 59.0761 48.5025 59.2064 48.6327C59.3454 48.7717 59.5104 48.8412 59.7015 48.8412C59.9013 48.8412 60.0576 48.7717 60.1966 48.6327C60.3356 48.5025 60.4051 48.3374 60.4051 48.1463V39.0693C60.4051 38.8782 60.3356 38.7132 60.1966 38.5829C60.0576 38.4439 59.9013 38.3744 59.7015 38.3744C59.5104 38.3744 59.3454 38.4439 59.2064 38.5829C59.0761 38.7132 59.0066 38.8782 59.0066 39.0693Z" fill="#0E0E0E"/>
<path d="M65.5431 46.1572V49.8401H63.5453V37.3755H65.5431L66.2293 46.3657L66.9155 37.3755H68.9481V49.8401H66.9416V45.94L66.4986 49.8401H65.9687L65.5431 46.1572Z" fill="#0E0E0E"/>
<path d="M72.0796 47.4254V49.8401H70.0731V39.3038C70.0731 38.7653 70.2642 38.3136 70.6377 37.9401C71.0199 37.5579 71.4716 37.3755 72.0014 37.3755H73.5563C74.0861 37.3755 74.5378 37.5579 74.92 37.9401C75.2935 38.3136 75.4846 38.7653 75.4846 39.3038V49.8401H73.4781V47.4254H72.0796ZM72.7832 38.3744C72.5834 38.3744 72.4184 38.4439 72.2881 38.5829C72.1491 38.7132 72.0796 38.8782 72.0796 39.0693V46.4178H73.4781V39.0693C73.4781 38.8782 73.4086 38.7132 73.2696 38.5829C73.1393 38.4439 72.9743 38.3744 72.7832 38.3744Z" fill="#0E0E0E"/>
<path d="M76.6704 49.8401V37.3755H79.7366C80.3794 37.3755 80.9353 37.6013 81.387 38.0617C81.8474 38.5134 82.0732 39.0693 82.0732 39.7121C82.0732 42.3092 82.0732 44.9064 82.0732 47.5036C82.0732 48.1463 81.8474 48.7022 81.387 49.1539C80.9353 49.6143 80.3794 49.8401 79.7366 49.8401H76.6704ZM79.2589 38.3744H78.6769V48.8412H79.2589C79.4847 48.8412 79.6758 48.763 79.8322 48.6067C79.9885 48.4417 80.0754 48.2506 80.0754 48.0247C80.0754 45.0801 80.0754 42.1355 80.0754 39.1909C80.0754 38.9651 79.9885 38.774 79.8322 38.6089C79.6758 38.4526 79.4847 38.3744 79.2589 38.3744Z" fill="#0E0E0E"/>
<path d="M86.4034 37.3755C86.9333 37.3755 87.385 37.5579 87.7672 37.9401C88.1407 38.3136 88.3317 38.7653 88.3317 39.3038V41.5188H86.3253V39.0693C86.3253 38.8782 86.2558 38.7132 86.1168 38.5829C85.9865 38.4439 85.8128 38.3744 85.613 38.3744C85.4132 38.3831 85.2569 38.4526 85.1266 38.5916C84.9876 38.7305 84.9268 38.8956 84.9268 39.0954V43.9857C84.9268 44.2289 85.0136 44.4287 85.1874 44.6024C85.3524 44.7761 85.5609 44.863 85.8041 44.863H86.7074C87.1504 44.863 87.5326 45.0193 87.854 45.3407C88.1667 45.6534 88.3317 46.0356 88.3317 46.4873V47.9118C88.3317 48.4503 88.1407 48.902 87.7672 49.2755C87.385 49.6577 86.9333 49.8401 86.4034 49.8401H84.8486C84.3187 49.8401 83.8671 49.6577 83.4849 49.2755C83.1114 48.902 82.9203 48.4503 82.9203 47.9118V47.2864H84.9268V48.1463C84.9268 48.3374 84.9963 48.5025 85.1352 48.6327C85.2655 48.7717 85.4306 48.8412 85.639 48.8412C85.8301 48.8325 85.9952 48.763 86.1255 48.6241C86.2558 48.4851 86.3253 48.32 86.3253 48.1203V46.7479C86.3253 46.5046 86.2384 46.2962 86.0647 46.1225C85.8909 45.9487 85.6912 45.8619 85.448 45.8619H84.5446C84.0929 45.8619 83.7107 45.7055 83.398 45.3928C83.0766 45.0714 82.9203 44.6892 82.9203 44.2462V39.3038C82.9203 38.7653 83.1114 38.3136 83.4849 37.9401C83.8671 37.5579 84.3187 37.3755 84.8486 37.3755H86.4034Z" fill="#0E0E0E"/>
<path d="M209.696 4.25128H211.006L211.198 2.95145H209.889L209.696 4.25128ZM211.372 6.93758H210.601L210.89 4.98303H209.581L209.292 6.93758H208.522L208.811 4.98303H207.626L207.751 4.25128H208.926L209.119 2.95145H207.915L208.031 2.2197H209.225L209.504 0.351807H210.274L209.995 2.2197H211.304L211.584 0.351807H212.354L212.075 2.2197H213.259L213.143 2.95145H211.969L211.776 4.25128H212.98L212.864 4.98303H211.661L211.372 6.93758Z" fill="#0E0E0E"/>
<path d="M217.975 6.09029V6.93758H213.777V6.05177L215.481 4.3283C216.053 3.74419 216.447 3.3077 216.666 3.01885C216.884 2.72358 216.993 2.41548 216.993 2.09453C216.993 1.80568 216.881 1.55856 216.656 1.35315C216.431 1.14775 216.143 1.04505 215.79 1.04505C215.488 1.04505 215.228 1.13491 215.01 1.31464C214.791 1.49437 214.65 1.71261 214.586 1.96937L213.777 1.642C213.906 1.23761 214.153 0.897412 214.519 0.6214C214.884 0.338969 215.315 0.197754 215.809 0.197754C216.406 0.197754 216.903 0.380692 217.301 0.746569C217.699 1.11244 217.898 1.56177 217.898 2.09453C217.898 2.73 217.548 3.41682 216.849 4.15499L214.923 6.09029H217.975Z" fill="#0E0E0E"/>
<path d="M222.949 1.25687L219.752 7.09163L218.962 6.68724L222.015 1.1991H218.683L218.702 0.351807H222.949V1.25687Z" fill="#0E0E0E"/>
<path d="M223.571 3.64469C223.571 2.64335 223.818 1.81852 224.313 1.17021C224.807 0.521907 225.442 0.197754 226.219 0.197754C226.996 0.197754 227.631 0.525117 228.125 1.17984C228.62 1.82815 228.867 2.64977 228.867 3.64469C228.867 4.6332 228.62 5.45803 228.125 6.11917C227.631 6.76748 226.996 7.09163 226.219 7.09163C225.442 7.09163 224.807 6.76748 224.313 6.11917C223.818 5.45803 223.571 4.6332 223.571 3.64469ZM227.962 3.64469C227.962 2.88727 227.801 2.26463 227.48 1.7768C227.166 1.28896 226.745 1.04505 226.219 1.04505C225.693 1.04505 225.272 1.28896 224.958 1.7768C224.637 2.26463 224.476 2.88727 224.476 3.64469C224.476 4.40212 224.637 5.02796 224.958 5.52222C225.272 6.00363 225.693 6.24434 226.219 6.24434C226.745 6.24434 227.166 6.00042 227.48 5.51259C227.801 5.01833 227.962 4.3957 227.962 3.64469Z" fill="#0E0E0E"/>
<path d="M233.748 1.25687L230.551 7.09163L229.762 6.68724L232.814 1.1991H229.482L229.502 0.351807H233.748V1.25687Z" fill="#0E0E0E"/>
<path d="M236.486 4.5305C235.96 4.5305 235.482 4.32189 235.052 3.90466C234.634 3.47459 234.426 2.97392 234.426 2.40264C234.426 1.80568 234.651 1.29217 235.1 0.862108C235.549 0.419205 236.076 0.197754 236.679 0.197754C237.314 0.197754 237.85 0.415996 238.287 0.85248C238.723 1.28896 238.942 1.80568 238.942 2.40264C238.942 2.93541 238.727 3.54199 238.296 4.22239L236.38 7.09163L235.668 6.60059L237.295 4.34756L237.276 4.3283C237.07 4.4631 236.807 4.5305 236.486 4.5305ZM238.046 2.39301C238.046 2.02072 237.911 1.70298 237.642 1.43981C237.379 1.17663 237.058 1.04505 236.679 1.04505C236.3 1.04505 235.979 1.17663 235.716 1.43981C235.453 1.70298 235.321 2.02072 235.321 2.39301C235.321 2.76531 235.453 3.08304 235.716 3.34622C235.992 3.60939 236.313 3.74098 236.679 3.74098C237.045 3.74098 237.366 3.60939 237.642 3.34622C237.911 3.08946 238.046 2.77173 238.046 2.39301Z" fill="#0E0E0E"/>
<path d="M243.879 1.25687L240.683 7.09163L239.893 6.68724L242.945 1.1991H239.614L239.633 0.351807H243.879V1.25687Z" fill="#0E0E0E"/>
<path d="M211.839 32.7682C211.583 33.0785 211.267 33.3299 210.892 33.5224C210.523 33.715 210.093 33.8113 209.601 33.8113C209.178 33.8113 208.788 33.7337 208.429 33.5786C208.071 33.4235 207.761 33.2122 207.498 32.9447C207.236 32.6719 207.03 32.3537 206.881 31.9899C206.731 31.6209 206.656 31.2277 206.656 30.8105C206.656 30.3932 206.731 30.0028 206.881 29.639C207.03 29.2699 207.236 28.9517 207.498 28.6842C207.761 28.4114 208.071 28.1975 208.429 28.0423C208.788 27.8872 209.178 27.8096 209.601 27.8096C210.045 27.8096 210.438 27.8926 210.78 28.0584C211.122 28.2188 211.422 28.4489 211.679 28.7484L211.31 29.1014C210.871 28.5665 210.301 28.2991 209.601 28.2991C209.269 28.2991 208.956 28.3606 208.662 28.4836C208.368 28.6067 208.111 28.7778 207.892 28.9971C207.672 29.2164 207.498 29.4812 207.37 29.7915C207.242 30.0964 207.178 30.436 207.178 30.8105C207.178 31.1849 207.242 31.5272 207.37 31.8375C207.498 32.1424 207.672 32.4072 207.892 32.6318C208.111 32.8511 208.368 33.0223 208.662 33.1453C208.956 33.263 209.269 33.3219 209.601 33.3219C210.002 33.3219 210.355 33.2416 210.66 33.0812C210.965 32.9207 211.235 32.6987 211.47 32.4152L211.839 32.7682Z" fill="#0E0E0E"/>
<path d="M215.289 32.9447H215.257C215.193 33.0624 215.115 33.1748 215.024 33.2817C214.933 33.3834 214.826 33.4743 214.703 33.5545C214.586 33.6348 214.452 33.6963 214.302 33.7391C214.158 33.7872 214.003 33.8113 213.837 33.8113C213.596 33.8113 213.385 33.7712 213.203 33.6909C213.021 33.6161 212.871 33.5091 212.754 33.37C212.636 33.2256 212.548 33.0571 212.489 32.8645C212.43 32.6666 212.401 32.45 212.401 32.2146V29.7514H212.914V32.1263C212.914 32.5436 213.005 32.8511 213.187 33.0491C213.374 33.247 213.636 33.3459 213.973 33.3459C214.16 33.3459 214.332 33.3031 214.487 33.2176C214.647 33.132 214.784 33.0196 214.896 32.8806C215.008 32.7415 215.097 32.581 215.161 32.3991C215.225 32.2119 215.257 32.0194 215.257 31.8214V29.7514H215.77V33.6829H215.289V32.9447Z" fill="#0E0E0E"/>
<path d="M216.646 33.6829V29.7514H217.128V30.4414H217.16C217.197 30.3237 217.256 30.2167 217.336 30.1204C217.422 30.0188 217.516 29.9332 217.617 29.8637C217.724 29.7888 217.834 29.7326 217.946 29.6952C218.064 29.6577 218.176 29.639 218.283 29.639C218.406 29.639 218.508 29.647 218.588 29.6631C218.668 29.6791 218.746 29.7059 218.821 29.7433L218.66 30.2247C218.553 30.1713 218.406 30.1445 218.219 30.1445C218.08 30.1445 217.946 30.1793 217.818 30.2488C217.689 30.313 217.577 30.4039 217.481 30.5216C217.385 30.6393 217.307 30.7811 217.248 30.9469C217.189 31.1073 217.16 31.2839 217.16 31.4764V33.6829H216.646Z" fill="#0E0E0E"/>
<path d="M219.254 33.6829V29.7514H219.735V30.4414H219.767C219.805 30.3237 219.863 30.2167 219.944 30.1204C220.029 30.0188 220.123 29.9332 220.225 29.8637C220.332 29.7888 220.441 29.7326 220.554 29.6952C220.671 29.6577 220.784 29.639 220.891 29.639C221.014 29.639 221.115 29.647 221.195 29.6631C221.276 29.6791 221.353 29.7059 221.428 29.7433L221.268 30.2247C221.161 30.1713 221.014 30.1445 220.826 30.1445C220.687 30.1445 220.554 30.1793 220.425 30.2488C220.297 30.313 220.184 30.4039 220.088 30.5216C219.992 30.6393 219.914 30.7811 219.855 30.9469C219.797 31.1073 219.767 31.2839 219.767 31.4764V33.6829H219.254Z" fill="#0E0E0E"/>
<path d="M225.06 32.7522C224.991 32.8966 224.902 33.033 224.795 33.1614C224.689 33.2898 224.563 33.4021 224.418 33.4984C224.279 33.5947 224.119 33.6695 223.937 33.723C223.755 33.7819 223.555 33.8113 223.335 33.8113C223.052 33.8113 222.79 33.7605 222.549 33.6588C222.308 33.5519 222.1 33.4048 221.923 33.2176C221.752 33.0303 221.618 32.811 221.522 32.5596C221.426 32.3029 221.377 32.022 221.377 31.7171C221.377 31.4336 221.42 31.1662 221.506 30.9148C221.597 30.658 221.725 30.436 221.891 30.2488C222.057 30.0563 222.257 29.9038 222.493 29.7915C222.728 29.6791 222.993 29.623 223.287 29.623C223.571 29.623 223.825 29.6738 224.049 29.7754C224.279 29.8717 224.475 30.0108 224.635 30.1927C224.795 30.3692 224.919 30.5831 225.004 30.8345C225.095 31.0859 225.141 31.3641 225.141 31.669C225.141 31.685 225.141 31.7011 225.141 31.7171C225.135 31.7332 225.132 31.7466 225.132 31.7573V31.8054H221.899C221.904 32.0782 221.952 32.3109 222.043 32.5035C222.134 32.696 222.249 32.8565 222.388 32.9849C222.527 33.1079 222.683 33.1988 222.854 33.2577C223.025 33.3165 223.191 33.3459 223.351 33.3459C223.683 33.3459 223.945 33.271 224.138 33.1213C224.33 32.9661 224.491 32.7709 224.619 32.5355L225.06 32.7522ZM224.603 31.3721C224.598 31.2437 224.571 31.1047 224.523 30.9549C224.475 30.8051 224.4 30.666 224.298 30.5377C224.196 30.4093 224.06 30.3023 223.889 30.2167C223.723 30.1311 223.517 30.0883 223.271 30.0883C223.111 30.0883 222.955 30.1178 222.806 30.1766C222.656 30.2301 222.519 30.3103 222.396 30.4173C222.279 30.5243 222.177 30.658 222.092 30.8185C222.011 30.979 221.958 31.1635 221.931 31.3721H224.603Z" fill="#0E0E0E"/>
<path d="M226.258 30.4895H226.29C226.355 30.3718 226.432 30.2622 226.523 30.1606C226.614 30.0536 226.718 29.96 226.836 29.8797C226.959 29.7995 227.093 29.738 227.237 29.6952C227.382 29.647 227.537 29.623 227.703 29.623C227.943 29.623 228.155 29.6631 228.336 29.7433C228.518 29.8182 228.668 29.9279 228.786 30.0723C228.909 30.2114 229 30.3799 229.059 30.5778C229.117 30.7704 229.147 30.9843 229.147 31.2197V33.6829H228.633V31.3079C228.633 30.8854 228.54 30.5778 228.353 30.3852C228.165 30.1873 227.903 30.0883 227.566 30.0883C227.379 30.0883 227.208 30.1311 227.053 30.2167C226.898 30.297 226.764 30.4093 226.652 30.5537C226.539 30.6928 226.451 30.8533 226.387 31.0351C226.323 31.217 226.29 31.4069 226.29 31.6048V33.6829H225.777V29.7514H226.258V30.4895Z" fill="#0E0E0E"/>
<path d="M230.228 30.2167H229.514V29.7514H230.228V28.5478H230.742V29.7514H231.721V30.2167H230.742V32.5837C230.742 32.8137 230.798 32.9849 230.91 33.0972C231.017 33.2149 231.146 33.2737 231.295 33.2737C231.376 33.2737 231.442 33.2684 231.496 33.2577C231.555 33.2416 231.619 33.2176 231.688 33.1855L231.849 33.6268C231.758 33.6695 231.664 33.699 231.568 33.715C231.477 33.7364 231.368 33.7471 231.239 33.7471C230.961 33.7471 230.726 33.6589 230.533 33.4823C230.437 33.3914 230.362 33.2817 230.308 33.1534C230.255 33.0196 230.228 32.8592 230.228 32.6719V30.2167Z" fill="#0E0E0E"/>
<path d="M232.457 33.6829V27.938H232.97V33.6829H232.457Z" fill="#0E0E0E"/>
<path d="M234.147 35.416L235.053 33.3941L233.401 29.7514H233.97L235.302 32.7843H235.318L236.594 29.7514H237.156L234.676 35.416H234.147Z" fill="#0E0E0E"/>
<path d="M239.706 28.7885C239.594 28.7885 239.498 28.7511 239.417 28.6762C239.343 28.596 239.305 28.5023 239.305 28.3954C239.305 28.283 239.343 28.1894 239.417 28.1145C239.498 28.0343 239.594 27.9942 239.706 27.9942C239.813 27.9942 239.904 28.0343 239.979 28.1145C240.059 28.1894 240.099 28.283 240.099 28.3954C240.099 28.5023 240.059 28.596 239.979 28.6762C239.904 28.7511 239.813 28.7885 239.706 28.7885ZM239.45 33.6829V29.7514H239.963V33.6829H239.45Z" fill="#0E0E0E"/>
<path d="M241.37 30.4895H241.402C241.466 30.3718 241.544 30.2622 241.634 30.1606C241.725 30.0536 241.83 29.96 241.947 29.8797C242.07 29.7995 242.204 29.738 242.349 29.6952C242.493 29.647 242.648 29.623 242.814 29.623C243.055 29.623 243.266 29.6631 243.448 29.7433C243.63 29.8182 243.779 29.9279 243.897 30.0723C244.02 30.2114 244.111 30.3799 244.17 30.5778C244.229 30.7704 244.258 30.9843 244.258 31.2197V33.6829H243.745V31.3079C243.745 30.8854 243.651 30.5778 243.464 30.3852C243.277 30.1873 243.015 30.0883 242.678 30.0883C242.49 30.0883 242.319 30.1311 242.164 30.2167C242.009 30.297 241.875 30.4093 241.763 30.5537C241.651 30.6928 241.562 30.8533 241.498 31.0351C241.434 31.217 241.402 31.4069 241.402 31.6048V33.6829H240.888V29.7514H241.37V30.4895Z" fill="#0E0E0E"/>
<path d="M154.723 41.6873H157.441C158.078 41.6873 158.651 41.7846 159.16 41.9793C159.669 42.174 160.104 42.4511 160.463 42.8106C160.823 43.1625 161.096 43.5857 161.283 44.0799C161.478 44.5742 161.575 45.1171 161.575 45.7087C161.575 46.3078 161.478 46.8545 161.283 47.3487C161.096 47.843 160.823 48.2661 160.463 48.6181C160.104 48.97 159.669 49.2434 159.16 49.4381C158.651 49.6328 158.078 49.7301 157.441 49.7301H154.723V41.6873ZM157.374 48.2923C157.816 48.2923 158.205 48.2324 158.542 48.1126C158.879 47.9853 159.16 47.8093 159.385 47.5846C159.609 47.36 159.778 47.0904 159.89 46.7758C160.003 46.4538 160.059 46.0981 160.059 45.7087C160.059 45.3193 160.003 44.9673 159.89 44.6528C159.778 44.3308 159.609 44.0574 159.385 43.8328C159.16 43.6081 158.879 43.4359 158.542 43.3161C158.205 43.1888 157.816 43.1251 157.374 43.1251H156.239V48.2923H157.374Z" fill="#0E0E0E"/>
<path d="M165.897 49.146H165.807C165.635 49.3557 165.425 49.5354 165.178 49.6852C164.938 49.835 164.628 49.9099 164.246 49.9099C163.961 49.9099 163.692 49.8612 163.437 49.7638C163.19 49.674 162.973 49.5466 162.785 49.3819C162.598 49.2171 162.452 49.0187 162.347 48.7865C162.243 48.5544 162.19 48.2998 162.19 48.0227C162.19 47.7381 162.246 47.4835 162.359 47.2589C162.471 47.0267 162.628 46.8283 162.83 46.6635C163.033 46.4988 163.269 46.3752 163.538 46.2928C163.815 46.2029 164.115 46.158 164.437 46.158C164.796 46.158 165.092 46.188 165.324 46.2479C165.556 46.3003 165.747 46.3565 165.897 46.4164V46.2479C165.897 45.9558 165.781 45.7162 165.549 45.529C165.317 45.3343 165.028 45.2369 164.684 45.2369C164.175 45.2369 163.744 45.4503 163.392 45.8772L162.325 45.147C162.909 44.4132 163.707 44.0462 164.718 44.0462C165.571 44.0462 166.223 44.2484 166.672 44.6528C167.121 45.0497 167.346 45.6413 167.346 46.4276V49.7301H165.897V49.146ZM165.897 47.4947C165.725 47.4124 165.545 47.3487 165.358 47.3038C165.178 47.2514 164.98 47.2252 164.763 47.2252C164.411 47.2252 164.137 47.3038 163.942 47.4611C163.755 47.6108 163.662 47.798 163.662 48.0227C163.662 48.2474 163.752 48.4271 163.931 48.5619C164.118 48.6967 164.332 48.7641 164.572 48.7641C164.766 48.7641 164.946 48.7304 165.111 48.663C165.275 48.5881 165.414 48.4945 165.526 48.3822C165.646 48.2623 165.736 48.1275 165.796 47.9778C165.863 47.8205 165.897 47.6595 165.897 47.4947Z" fill="#0E0E0E"/>
<path d="M170.939 41.6873H172.703L175.938 47.0791H176.028L175.938 45.529V41.6873H177.443V49.7301H175.848L172.433 44.035H172.343L172.433 45.5851V49.7301H170.939V41.6873Z" fill="#0E0E0E"/>
<path d="M181.993 49.146H181.903C181.731 49.3557 181.521 49.5354 181.274 49.6852C181.034 49.835 180.723 49.9099 180.342 49.9099C180.057 49.9099 179.787 49.8612 179.533 49.7638C179.286 49.674 179.068 49.5466 178.881 49.3819C178.694 49.2171 178.548 49.0187 178.443 48.7865C178.338 48.5544 178.286 48.2998 178.286 48.0227C178.286 47.7381 178.342 47.4835 178.454 47.2589C178.567 47.0267 178.724 46.8283 178.926 46.6635C179.128 46.4988 179.364 46.3752 179.634 46.2928C179.911 46.2029 180.21 46.158 180.532 46.158C180.892 46.158 181.188 46.188 181.42 46.2479C181.652 46.3003 181.843 46.3565 181.993 46.4164V46.2479C181.993 45.9558 181.877 45.7162 181.645 45.529C181.412 45.3343 181.124 45.2369 180.78 45.2369C180.27 45.2369 179.84 45.4503 179.488 45.8772L178.421 45.147C179.005 44.4132 179.802 44.0462 180.813 44.0462C181.667 44.0462 182.319 44.2484 182.768 44.6528C183.217 45.0497 183.442 45.6413 183.442 46.4276V49.7301H181.993V49.146ZM181.993 47.4947C181.821 47.4124 181.641 47.3487 181.454 47.3038C181.274 47.2514 181.075 47.2252 180.858 47.2252C180.506 47.2252 180.233 47.3038 180.038 47.4611C179.851 47.6108 179.757 47.798 179.757 48.0227C179.757 48.2474 179.847 48.4271 180.027 48.5619C180.214 48.6967 180.428 48.7641 180.667 48.7641C180.862 48.7641 181.042 48.7304 181.206 48.663C181.371 48.5881 181.51 48.4945 181.622 48.3822C181.742 48.2623 181.832 48.1275 181.892 47.9778C181.959 47.8205 181.993 47.6595 181.993 47.4947Z" fill="#0E0E0E"/>
<path d="M185.881 44.9448H185.971C186.143 44.6678 186.375 44.4506 186.667 44.2933C186.96 44.1286 187.293 44.0462 187.667 44.0462C188.012 44.0462 188.315 44.1024 188.577 44.2147C188.839 44.327 189.053 44.488 189.217 44.6977C189.39 44.8999 189.517 45.147 189.599 45.4391C189.689 45.7237 189.734 46.0419 189.734 46.3939V49.7301H188.263V46.5736C188.263 46.1767 188.173 45.8847 187.993 45.6975C187.821 45.5028 187.566 45.4054 187.229 45.4054C187.027 45.4054 186.847 45.4503 186.69 45.5402C186.54 45.6226 186.409 45.7386 186.297 45.8884C186.192 46.0307 186.11 46.2029 186.05 46.4051C185.997 46.5998 185.971 46.8095 185.971 47.0342V49.7301H184.499V44.2259H185.881V44.9448Z" fill="#0E0E0E"/>
<path d="M193.321 52.3362C192.932 52.3362 192.584 52.2838 192.277 52.1789C191.977 52.0816 191.715 51.9505 191.49 51.7858C191.266 51.6285 191.078 51.4525 190.929 51.2578C190.779 51.0631 190.67 50.8684 190.603 50.6737L192.007 50.112C192.112 50.4041 192.284 50.6288 192.524 50.786C192.763 50.9508 193.029 51.0332 193.321 51.0332C193.785 51.0332 194.152 50.8871 194.422 50.5951C194.692 50.3105 194.826 49.9099 194.826 49.3931V49.0112H194.737C194.564 49.2509 194.336 49.4418 194.051 49.5841C193.774 49.7189 193.445 49.7863 193.063 49.7863C192.733 49.7863 192.411 49.7189 192.097 49.5841C191.79 49.4493 191.516 49.2583 191.277 49.0112C191.037 48.7566 190.842 48.4533 190.693 48.1013C190.543 47.7494 190.468 47.3562 190.468 46.9219C190.468 46.4875 190.543 46.0944 190.693 45.7424C190.842 45.3829 191.037 45.0796 191.277 44.8325C191.516 44.5779 191.79 44.3832 192.097 44.2484C192.411 44.1136 192.733 44.0462 193.063 44.0462C193.445 44.0462 193.774 44.1173 194.051 44.2596C194.336 44.3944 194.564 44.5816 194.737 44.8213H194.826V44.2259H196.231V49.337C196.231 49.8013 196.159 50.2169 196.017 50.5838C195.875 50.9583 195.676 51.2728 195.422 51.5274C195.167 51.7895 194.86 51.988 194.501 52.1228C194.149 52.265 193.756 52.3362 193.321 52.3362ZM193.377 48.4608C193.557 48.4608 193.733 48.4271 193.905 48.3597C194.085 48.2923 194.242 48.1949 194.377 48.0676C194.512 47.9328 194.62 47.7718 194.703 47.5846C194.785 47.3899 194.826 47.169 194.826 46.9219C194.826 46.6747 194.785 46.4538 194.703 46.2591C194.62 46.0644 194.512 45.9034 194.377 45.7761C194.242 45.6413 194.085 45.5402 193.905 45.4728C193.733 45.4054 193.557 45.3717 193.377 45.3717C193.198 45.3717 193.022 45.4054 192.849 45.4728C192.677 45.5402 192.524 45.6413 192.389 45.7761C192.254 45.9109 192.145 46.0756 192.063 46.2703C191.981 46.4576 191.94 46.6747 191.94 46.9219C191.94 47.169 191.981 47.3899 192.063 47.5846C192.145 47.7718 192.254 47.9328 192.389 48.0676C192.524 48.1949 192.677 48.2923 192.849 48.3597C193.022 48.4271 193.198 48.4608 193.377 48.4608Z" fill="#0E0E0E"/>
<path d="M197.238 50.7299L197.901 49.7077C197.736 49.6477 197.594 49.5392 197.474 49.3819C197.361 49.2246 197.305 49.0374 197.305 48.8202C197.305 48.5507 197.399 48.3223 197.586 48.135C197.781 47.9478 198.013 47.8542 198.283 47.8542C198.552 47.8542 198.781 47.9478 198.968 48.135C199.155 48.3223 199.249 48.5507 199.249 48.8202C199.249 48.9625 199.226 49.0898 199.181 49.2022C199.136 49.307 199.065 49.4306 198.968 49.5729L197.901 51.168L197.238 50.7299Z" fill="#0E0E0E"/>
<path d="M201.722 41.6873H203.362L205.024 46.5287L205.316 47.5621H205.406L205.721 46.5287L207.451 41.6873H209.091L206.159 49.7301H204.564L201.722 41.6873Z" fill="#0E0E0E"/>
<path d="M210.339 43.4284C210.212 43.4284 210.088 43.4059 209.969 43.361C209.856 43.3086 209.755 43.2412 209.665 43.1588C209.583 43.0689 209.516 42.9678 209.463 42.8555C209.418 42.7432 209.396 42.6196 209.396 42.4848C209.396 42.35 209.418 42.2265 209.463 42.1141C209.516 42.0018 209.583 41.9044 209.665 41.8221C209.755 41.7322 209.856 41.6648 209.969 41.6199C210.088 41.5674 210.212 41.5412 210.339 41.5412C210.601 41.5412 210.826 41.6348 211.013 41.8221C211.201 42.0018 211.294 42.2227 211.294 42.4848C211.294 42.7469 211.201 42.9716 211.013 43.1588C210.826 43.3385 210.601 43.4284 210.339 43.4284ZM209.609 49.7301V44.2259H211.081V49.7301H209.609Z" fill="#0E0E0E"/>
<path d="M217.471 48.4046C217.217 48.8539 216.872 49.2172 216.438 49.4942C216.011 49.7713 215.487 49.9099 214.865 49.9099C214.446 49.9099 214.056 49.8387 213.697 49.6964C213.345 49.5467 213.038 49.3407 212.776 49.0786C212.514 48.8165 212.308 48.5095 212.158 48.1575C212.016 47.798 211.945 47.4049 211.945 46.978C211.945 46.5811 212.016 46.2067 212.158 45.8547C212.3 45.4953 212.499 45.1845 212.753 44.9224C213.008 44.6528 213.308 44.4394 213.652 44.2821C214.004 44.1248 214.39 44.0462 214.809 44.0462C215.251 44.0462 215.644 44.1211 215.989 44.2709C216.333 44.4132 216.621 44.6153 216.853 44.8774C217.086 45.1321 217.262 45.4354 217.381 45.7873C217.501 46.1393 217.561 46.5212 217.561 46.9331C217.561 46.9855 217.561 47.0304 217.561 47.0679C217.554 47.1128 217.55 47.154 217.55 47.1915C217.542 47.2289 217.539 47.2701 217.539 47.315H213.394C213.424 47.5397 213.484 47.7344 213.573 47.8991C213.671 48.0564 213.787 48.1912 213.922 48.3035C214.064 48.4084 214.217 48.487 214.382 48.5394C214.547 48.5844 214.715 48.6068 214.888 48.6068C215.225 48.6068 215.502 48.5319 215.719 48.3822C215.944 48.2249 216.12 48.0302 216.247 47.798L217.471 48.4046ZM216.135 46.2703C216.127 46.173 216.093 46.0644 216.033 45.9446C215.981 45.8248 215.899 45.7124 215.786 45.6076C215.681 45.5028 215.547 45.4166 215.382 45.3492C215.225 45.2818 215.034 45.2481 214.809 45.2481C214.495 45.2481 214.217 45.338 213.978 45.5177C213.738 45.6975 213.57 45.9483 213.472 46.2703H216.135Z" fill="#0E0E0E"/>
<path d="M218.831 45.484H217.865V44.2259H218.831V42.541H220.302V44.2259H221.65V45.484H220.302V47.6183C220.302 47.7456 220.313 47.8654 220.336 47.9778C220.366 48.0826 220.418 48.1725 220.493 48.2474C220.598 48.3672 220.748 48.4271 220.942 48.4271C221.07 48.4271 221.171 48.4159 221.246 48.3934C221.321 48.3634 221.392 48.326 221.459 48.2811L221.875 49.5729C221.703 49.6552 221.515 49.7151 221.313 49.7526C221.118 49.7975 220.901 49.82 220.662 49.82C220.385 49.82 220.134 49.7788 219.909 49.6964C219.692 49.6066 219.508 49.4867 219.359 49.337C219.007 49 218.831 48.5207 218.831 47.8991V45.484Z" fill="#0E0E0E"/>
<path d="M224.057 44.9448H224.147C224.319 44.6678 224.551 44.4506 224.843 44.2933C225.135 44.1286 225.468 44.0462 225.843 44.0462C226.187 44.0462 226.491 44.1024 226.753 44.2147C227.015 44.327 227.228 44.488 227.393 44.6977C227.565 44.8999 227.693 45.147 227.775 45.4391C227.865 45.7237 227.91 46.0419 227.91 46.3939V49.7301H226.438V46.5736C226.438 46.1767 226.348 45.8847 226.169 45.6975C225.996 45.5028 225.742 45.4054 225.405 45.4054C225.203 45.4054 225.023 45.4503 224.866 45.5402C224.716 45.6226 224.585 45.7386 224.472 45.8884C224.368 46.0307 224.285 46.2029 224.225 46.4051C224.173 46.5998 224.147 46.8095 224.147 47.0342V49.7301H222.675V44.2259H224.057V44.9448Z" fill="#0E0E0E"/>
<path d="M232.351 49.146H232.261C232.088 49.3557 231.879 49.5354 231.632 49.6852C231.392 49.835 231.081 49.9099 230.699 49.9099C230.415 49.9099 230.145 49.8612 229.891 49.7638C229.643 49.674 229.426 49.5466 229.239 49.3819C229.052 49.2171 228.906 49.0187 228.801 48.7865C228.696 48.5544 228.644 48.2998 228.644 48.0227C228.644 47.7381 228.7 47.4835 228.812 47.2589C228.925 47.0267 229.082 46.8283 229.284 46.6635C229.486 46.4988 229.722 46.3752 229.992 46.2928C230.269 46.2029 230.568 46.158 230.89 46.158C231.25 46.158 231.546 46.188 231.778 46.2479C232.01 46.3003 232.201 46.3565 232.351 46.4164V46.2479C232.351 45.9558 232.235 45.7162 232.002 45.529C231.77 45.3343 231.482 45.2369 231.137 45.2369C230.628 45.2369 230.198 45.4503 229.846 45.8772L228.778 45.147C229.363 44.4132 230.16 44.0462 231.171 44.0462C232.025 44.0462 232.676 44.2484 233.126 44.6528C233.575 45.0497 233.8 45.6413 233.8 46.4276V49.7301H232.351V49.146ZM232.351 47.4947C232.178 47.4124 231.999 47.3487 231.811 47.3038C231.632 47.2514 231.433 47.2252 231.216 47.2252C230.864 47.2252 230.591 47.3038 230.396 47.4611C230.209 47.6108 230.115 47.798 230.115 48.0227C230.115 48.2474 230.205 48.4271 230.385 48.5619C230.572 48.6967 230.785 48.7641 231.025 48.7641C231.22 48.7641 231.4 48.7304 231.564 48.663C231.729 48.5881 231.868 48.4945 231.98 48.3822C232.1 48.2623 232.19 48.1275 232.249 47.9778C232.317 47.8205 232.351 47.6595 232.351 47.4947Z" fill="#0E0E0E"/>
<path d="M234.857 44.2259H236.239V44.9448H236.329C236.501 44.6753 236.733 44.4581 237.025 44.2933C237.325 44.1286 237.654 44.0462 238.014 44.0462C238.433 44.0462 238.785 44.1436 239.07 44.3383C239.354 44.533 239.556 44.7726 239.676 45.0572C239.849 44.7801 240.092 44.5442 240.406 44.3495C240.721 44.1473 241.103 44.0462 241.552 44.0462C241.889 44.0462 242.181 44.1024 242.428 44.2147C242.676 44.3195 242.878 44.4693 243.035 44.664C243.2 44.8587 243.323 45.0946 243.406 45.3717C243.488 45.6413 243.529 45.9371 243.529 46.2591V49.7301H242.058V46.5287C242.058 45.7798 241.751 45.4054 241.137 45.4054C240.942 45.4054 240.77 45.4503 240.62 45.5402C240.47 45.6226 240.343 45.7386 240.238 45.8884C240.141 46.0307 240.062 46.2029 240.002 46.4051C239.95 46.6073 239.923 46.8245 239.923 47.0567V49.7301H238.452V46.5287C238.452 45.7798 238.13 45.4054 237.486 45.4054C237.299 45.4054 237.134 45.4503 236.992 45.5402C236.849 45.6226 236.729 45.7386 236.632 45.8884C236.535 46.0307 236.46 46.2029 236.407 46.4051C236.355 46.6073 236.329 46.8245 236.329 47.0567V49.7301H234.857V44.2259Z" fill="#0E0E0E"/>
</g>
</svg>
