<svg width="25" height="25" viewBox="0 0 25 25" fill="none" xmlns="http://www.w3.org/2000/svg">
<path id="Subtract" fill-rule="evenodd" clip-rule="evenodd" d="M12.7031 24.9102C19.3305 24.9102 24.7031 19.5376 24.7031 12.9102C24.7031 6.28274 19.3305 0.910156 12.7031 0.910156C6.07571 0.910156 0.703125 6.28274 0.703125 12.9102C0.703125 19.5376 6.07571 24.9102 12.7031 24.9102ZM15.2393 11.3136L9.97369 16.5792C9.71442 16.8384 9.29015 16.8384 9.03088 16.5792C8.77161 16.3199 8.77161 15.8956 9.03088 15.6364L14.2965 10.3708H9.69556C9.60827 10.3708 9.52184 10.3536 9.4412 10.3202C9.36055 10.2868 9.28728 10.2378 9.22556 10.1761C9.16384 10.1144 9.11488 10.0411 9.08147 9.96046C9.04807 9.87982 9.03088 9.79339 9.03088 9.7061C9.03088 9.61881 9.04807 9.53238 9.08147 9.45174C9.11488 9.37109 9.16384 9.29782 9.22556 9.2361C9.28728 9.17438 9.36055 9.12542 9.4412 9.09201C9.52184 9.05861 9.60827 9.04142 9.69556 9.04142L15.9087 9.04142C15.996 9.04133 16.0825 9.05846 16.1631 9.09183C16.2438 9.12521 16.3171 9.17416 16.3789 9.2359C16.4406 9.29764 16.4896 9.37095 16.5229 9.45163C16.5563 9.53232 16.5734 9.61879 16.5733 9.7061L16.5734 15.9192C16.5734 16.0065 16.5563 16.093 16.5229 16.1737C16.4896 16.2544 16.4406 16.3277 16.3789 16.3894C16.3171 16.4512 16.2438 16.5001 16.1631 16.5335C16.0825 16.5669 15.996 16.584 15.9087 16.5839C15.541 16.5839 15.2393 16.2822 15.2393 15.9145L15.2393 11.3136Z" fill="white"/>
</svg>
