<svg width="12" height="17" viewBox="0 0 12 17" fill="none" xmlns="http://www.w3.org/2000/svg">
<path id="Vector" fill-rule="evenodd" clip-rule="evenodd" d="M3.11794 5.94971C2.77874 5.94971 2.44286 6.01653 2.12947 6.14633C1.81609 6.27614 1.53134 6.4664 1.29149 6.70626C1.05163 6.94611 0.861372 7.23086 0.731564 7.54424C0.601756 7.85763 0.534945 8.19351 0.534945 8.53271C0.534945 8.87192 0.601756 9.2078 0.731564 9.52119C0.861372 9.83457 1.05163 10.1193 1.29149 10.3592C1.53134 10.599 1.81609 10.7893 2.12947 10.9191C2.44286 11.0489 2.77874 11.1157 3.11794 11.1157H5.70094V5.94971H3.11794ZM5.70094 5.44971H3.11794C2.43276 5.44971 1.77563 5.17753 1.29113 4.69303C0.806634 4.20852 0.534445 3.5514 0.534445 2.86621C0.534445 2.18103 0.806634 1.5239 1.29113 1.0394C1.77563 0.554904 2.43276 0.282715 3.11794 0.282715H5.70094V5.44971ZM6.20094 0.282715V5.44971H8.78395C9.46033 5.43641 10.1045 5.15837 10.5782 4.67532C11.0518 4.19227 11.3171 3.54273 11.3171 2.86621C11.3171 2.1897 11.0518 1.54016 10.5782 1.05711C10.1045 0.57406 9.46033 0.296023 8.78395 0.282715H6.20094ZM8.78395 5.94872C8.10594 5.94863 7.45508 6.21513 6.97183 6.69071C6.48859 7.16628 6.21171 7.81279 6.20094 8.49072V8.57372C6.20922 9.08271 6.36772 9.57792 6.65653 9.99713C6.94534 10.4163 7.35158 10.7409 7.82423 10.9299C8.29688 11.119 8.81486 11.1642 9.31312 11.0599C9.81137 10.9555 10.2677 10.7062 10.6247 10.3434C10.9818 9.98053 11.2236 9.52026 11.32 9.02039C11.4163 8.52051 11.3627 8.00333 11.166 7.53379C10.9694 7.06425 10.6383 6.66329 10.2145 6.38128C9.79071 6.09927 9.29301 5.94878 8.78395 5.94872ZM3.11794 11.6157C2.60684 11.6155 2.10715 11.7669 1.68208 12.0507C1.25701 12.3345 0.925658 12.738 0.729928 13.2102C0.534197 13.6823 0.482883 14.2019 0.582474 14.7032C0.682065 15.2045 0.928088 15.665 1.28943 16.0265C1.65077 16.388 2.11119 16.6342 2.61246 16.734C3.11374 16.8338 3.63335 16.7827 4.10557 16.5871C4.57779 16.3916 4.98142 16.0604 5.26539 15.6354C5.54937 15.2105 5.70094 14.7108 5.70094 14.1997V11.6157H3.11794Z" fill="white"/>
</svg>
