<svg width="29" height="19" viewBox="0 0 29 19" fill="none" xmlns="http://www.w3.org/2000/svg">
<path id="Vector" d="M8.31641 0.579346C9.13785 0.579346 9.89692 0.641711 10.5936 0.828807C11.2886 0.953537 11.8605 1.21369 12.3684 1.52551C12.8762 1.83734 13.254 2.28459 13.5105 2.85657C13.76 3.42676 13.8954 4.12347 13.8954 4.88254C13.8954 5.76635 13.7065 6.52542 13.2611 7.09562C12.878 7.66581 12.2525 8.17543 11.4846 8.5514C12.5644 8.86501 13.3858 9.4352 13.8865 10.1943C14.3872 10.9534 14.708 11.8995 14.708 12.9793C14.708 13.8631 14.5209 14.6222 14.2001 15.2566C13.8813 15.8958 13.401 16.4407 12.8067 16.8371C12.2365 17.2202 11.5398 17.532 10.7807 17.7209C10.0373 17.9177 9.27252 18.0231 8.50351 18.0345L0.0236206 18.0469V0.579346H8.31641ZM7.80858 7.6676C8.50351 7.6676 9.0737 7.4805 9.51382 7.15976C9.95216 6.83903 10.1464 6.27418 10.1464 5.57925C10.1464 5.19437 10.084 4.82018 9.95929 4.56894C9.82314 4.31509 9.62749 4.09804 9.38909 3.93637C9.13097 3.79463 8.85456 3.6891 8.56765 3.62277C8.25405 3.5604 7.93331 3.5604 7.55734 3.5604H3.89026V7.67651C3.89026 7.6676 7.80858 7.6676 7.80858 7.6676ZM7.99568 15.1389C8.37878 15.1389 8.75475 15.0766 9.07548 15.0142C9.38909 14.9519 9.70983 14.8253 9.95929 14.6293C10.2087 14.4333 10.4048 14.2462 10.5936 13.9344C10.7184 13.6208 10.8431 13.2377 10.8431 12.7922C10.8431 11.9084 10.5936 11.2741 10.084 10.8286C9.57619 10.4455 8.87948 10.2584 8.05804 10.2584H3.89026V15.13H7.99746L7.99568 15.1389ZM20.2157 15.0766C20.7241 15.5838 21.4832 15.8368 22.4929 15.8357C23.1878 15.8357 23.8222 15.6468 24.3318 15.326C24.8378 14.9459 25.1526 14.5658 25.2762 14.1856H28.3766C27.867 15.702 27.1079 16.7818 26.0994 17.4785C25.0909 18.1111 23.8845 18.4871 22.4288 18.4871C21.4977 18.4927 20.5742 18.3203 19.7079 17.9792C18.9269 17.6911 18.2304 17.212 17.6819 16.5858C17.0953 16.0033 16.6598 15.2865 16.4132 14.4975C16.1014 13.676 15.9677 12.7922 15.9677 11.7748C15.9677 10.8286 16.0925 9.93591 16.4132 9.11447C16.7339 8.29481 17.1723 7.59632 17.7442 6.96376C18.3144 6.39356 19.0112 5.88395 19.7702 5.57034C20.6164 5.23259 21.5195 5.0602 22.4305 5.06251C23.5104 5.06251 24.4565 5.24961 25.278 5.69507C26.0976 6.14054 26.7337 6.64302 27.2416 7.4021C27.7494 8.09702 28.1254 8.91846 28.3838 9.80405C28.5085 10.6879 28.5708 11.5788 28.5085 12.5891H19.3319C19.3319 13.6226 19.7061 14.567 20.2157 15.0766ZM24.2071 8.42667C23.7616 7.9812 23.0631 7.72996 22.2417 7.72996C21.6715 7.72996 21.2331 7.85469 20.85 8.04357C20.4669 8.23245 20.2157 8.48904 19.9662 8.7385C19.7336 8.98325 19.5786 9.29139 19.5208 9.62408C19.4566 9.93591 19.396 10.1943 19.396 10.4437H25.0909C24.9661 9.50648 24.6472 8.87214 24.2071 8.42667ZM18.6352 1.78389H25.7234V3.48913H18.6352V1.78389Z" fill="white"/>
</svg>
