<svg width="21" height="20" viewBox="0 0 21 20" fill="none" xmlns="http://www.w3.org/2000/svg">
<path id="Vector" d="M20.0274 11.6903V19.0693H15.7494V12.1843C15.7494 10.4543 15.1304 9.27431 13.5824 9.27431C12.4004 9.27431 11.6964 10.0703 11.3874 10.8393C11.2744 11.1143 11.2454 11.4973 11.2454 11.8823V19.0693H6.96536C6.96536 19.0693 7.02336 7.40931 6.96536 6.20031H11.2454V8.02431L11.2174 8.06631H11.2454V8.02431C11.8134 7.14931 12.8284 5.89831 15.1014 5.89831C17.9164 5.89831 20.0274 7.73831 20.0274 11.6903ZM2.48936 -0.00268555C1.02636 -0.00268555 0.0683594 0.957314 0.0683594 2.22031C0.0683594 3.45531 0.998359 4.44431 2.43336 4.44431H2.46136C3.95436 4.44431 4.88136 3.45531 4.88136 2.22031C4.85536 0.957314 3.95436 -0.00268555 2.48936 -0.00268555ZM0.322359 19.0693H4.60036V6.20031H0.322359V19.0693Z" fill="white"/>
</svg>
