<svg width="319" height="373" viewBox="0 0 319 373" fill="none" xmlns="http://www.w3.org/2000/svg">
<path d="M317.34 7.68066L305.746 14.3741V0.987225L317.34 7.68066ZM312.702 404.164L301.109 410.857V397.47L312.702 404.164ZM280.241 88.1366H39.0988V85.8179H280.241V88.1366ZM39.0988 6.52133H306.906V8.84H39.0988V6.52133ZM3.15933 47.329C3.15933 68.6596 19.3214 85.8179 39.0988 85.8179V88.1366C17.898 88.1366 0.840668 69.7926 0.840668 47.329H3.15933ZM0.840668 47.329C0.840668 24.8653 17.898 6.52133 39.0988 6.52133V8.84C19.3214 8.84 3.15933 25.9983 3.15933 47.329H0.840668ZM39.0988 165.115H280.241V167.433H39.0988V165.115ZM318.499 126.626C318.499 149.089 301.442 167.433 280.241 167.433V165.115C300.018 165.115 316.181 147.956 316.181 126.626H318.499ZM316.181 126.626C316.181 105.295 300.018 88.1366 280.241 88.1366V85.8179C301.442 85.8179 318.499 104.162 318.499 126.626H316.181ZM280.241 246.73H39.0988V244.411H280.241V246.73ZM3.15933 205.922C3.15933 227.253 19.3214 244.411 39.0988 244.411V246.73C17.898 246.73 0.840668 228.386 0.840668 205.922H3.15933ZM0.840668 205.922C0.840668 183.458 17.898 165.115 39.0988 165.115V167.433C19.3214 167.433 3.15933 184.591 3.15933 205.922H0.840668ZM39.0988 323.708H280.241V326.026H39.0988V323.708ZM318.499 285.219C318.499 307.682 301.442 326.026 280.241 326.026V323.708C300.018 323.708 316.181 306.549 316.181 285.219H318.499ZM316.181 285.219C316.181 263.888 300.018 246.73 280.241 246.73V244.411C301.442 244.411 318.499 262.755 318.499 285.219H316.181ZM302.268 405.323H39.0988V403.004H302.268V405.323ZM3.15933 364.515C3.15933 385.846 19.3214 403.004 39.0988 403.004V405.323C17.898 405.323 0.840668 386.979 0.840668 364.515H3.15933ZM0.840668 364.515C0.840668 342.052 17.898 323.708 39.0988 323.708V326.026C19.3214 326.026 3.15933 343.185 3.15933 364.515H0.840668Z" fill="black"/>
</svg>
